<svg height="463pt" viewBox="1 0 463 463.9531" width="463pt" xmlns="http://www.w3.org/2000/svg"><path d="m32.304688 111.953125h112c17.675781 0 32-14.328125 32-32s-14.324219-32-32-32c-3.089844.003906-6.160157.460937-9.117188 1.359375.734375-3.066406 1.109375-6.207031 1.117188-9.359375-.019532-19.410156-13.976563-36.003906-33.09375-39.351563-19.117188-3.351562-37.882813 7.507813-44.503907 25.75-3.238281-1.578124-6.796875-2.402343-10.402343-2.398437-13.253907 0-24 10.746094-24 24-.011719.347656.015624.699219.082031 1.039063-15.542969 4.0625-25.664063 19.015624-23.660157 34.957031 2.003907 15.9375 15.515626 27.917969 31.578126 28.003906zm0 0" fill="#83d8f4"/><path d="m432.304688 47.953125c-3.089844.003906-6.160157.460937-9.117188 1.359375.734375-3.066406 1.109375-6.207031 1.117188-9.359375-.019532-19.410156-13.976563-36.003906-33.09375-39.351563-19.117188-3.351562-37.882813 7.507813-44.503907 25.75-3.238281-1.578124-6.796875-2.402343-10.402343-2.398437-13.253907 0-24 10.746094-24 24-.011719.347656.015624.699219.082031 1.039063-15.542969 4.0625-25.664063 19.015624-23.660157 34.957031 2.003907 15.9375 15.515626 27.917969 31.578126 28.003906h112c17.675781 0 32-14.328125 32-32s-14.324219-32-32-32zm0 0" fill="#83d8f4"/><path d="m32.304688 463.953125h112c17.675781 0 32-14.328125 32-32s-14.324219-32-32-32c-3.089844.003906-6.160157.460937-9.117188 1.359375.734375-3.066406 1.109375-6.207031 1.117188-9.359375-.019532-19.410156-13.976563-36.003906-33.09375-39.351563-19.117188-3.351562-37.882813 7.507813-44.503907 25.75-3.238281-1.578124-6.796875-2.402343-10.402343-2.398437-13.253907 0-24 10.746094-24 24-.011719.347656.015624.699219.082031 1.039063-15.542969 4.0625-25.664063 19.015624-23.660157 34.957031 2.003907 15.9375 15.515626 27.917969 31.578126 28.003906zm0 0" fill="#83d8f4"/><path d="m432.304688 399.953125c-3.089844.003906-6.160157.460937-9.117188 1.359375.734375-3.066406 1.109375-6.207031 1.117188-9.359375-.019532-19.410156-13.976563-36.003906-33.09375-39.351563-19.117188-3.351562-37.882813 7.507813-44.503907 25.75-3.238281-1.578124-6.796875-2.402343-10.402343-2.398437-13.253907 0-24 10.746094-24 24-.011719.347656.015624.699219.082031 1.039063-15.542969 4.0625-25.664063 19.015624-23.660157 34.957031 2.003907 15.9375 15.515626 27.917969 31.578126 28.003906h112c17.675781 0 32-14.328125 32-32s-14.324219-32-32-32zm0 0" fill="#83d8f4"/><path d="m80.304688 231.953125c0 8.835937-7.160157 16-16 16-8.835938 0-16-7.164063-16-16s7.164062-16 16-16c8.839843 0 16 7.164063 16 16zm0 0" fill="#f1f2f2"/><path d="m416.304688 231.953125c0 8.835937-7.160157 16-16 16-8.835938 0-16-7.164063-16-16s7.164062-16 16-16c8.839843 0 16 7.164063 16 16zm0 0" fill="#f1f2f2"/><path d="m128.304688 223.953125h-41.46875c-2.421876-6.777344-7.753907-12.109375-14.53125-14.527344v-73.472656h-16v73.472656c-9.582032 3.339844-16.003907 12.378907-16.003907 22.527344s6.421875 19.1875 16.003907 22.527344v81.472656h16v-81.472656c6.777343-2.417969 12.109374-7.75 14.53125-14.527344h41.46875zm-64 16c-4.417969 0-8-3.582031-8-8s3.582031-8 8-8c4.421874 0 8 3.582031 8 8s-3.578126 8-8 8zm0 0" fill="#2b3990"/><path d="m424.304688 231.953125c-.039063-10.132813-6.445313-19.148437-16-22.527344v-73.472656h-16v73.472656c-6.773438 2.417969-12.105469 7.75-14.527344 14.527344h-41.472656v16h41.472656c2.421875 6.777344 7.753906 12.109375 14.527344 14.527344v73.472656h16v-73.472656c9.554687-3.378907 15.960937-12.394531 16-22.527344zm-24 8c-4.417969 0-8-3.582031-8-8s3.582031-8 8-8c4.421874 0 8 3.582031 8 8s-3.578126 8-8 8zm0 0" fill="#2b3990"/><path d="m153.859375 236.648438c-.316406-.507813-.585937-1.042969-.800781-1.597657.214844.554688.484375 1.089844.800781 1.597657zm0 0" fill="#00aeef"/><path d="m172.625 279.953125c.539062.175781 1.152344.335937 1.707031.511719-1.035156-.328125-2.058593-.65625-3.035156-1 .457031.160156.867187.328125 1.328125.488281zm0 0" fill="#21409a"/><path d="m311.578125 235.03125c-.214844.558594-.484375 1.09375-.800781 1.601562.316406-.507812.585937-1.042968.800781-1.601562zm0 0" fill="#2b3990"/><path d="m310.144531 237.425781c-.386719.519531-.808593 1.011719-1.261719 1.472657.453126-.464844.875-.957032 1.261719-1.472657zm0 0" fill="#2b3990"/><path d="m305.257812 241.777344c-.679687.457031-1.390624.902344-2.167968 1.34375.777344-.441406 1.488281-.886719 2.167968-1.34375zm0 0" fill="#2b3990"/><path d="m308.027344 239.65625c-.546875.496094-1.117188.964844-1.714844 1.402344.597656-.4375 1.167969-.90625 1.714844-1.402344zm0 0" fill="#2b3990"/><path d="m169.792969 278.914062c-1.054688-.402343-2.070313-.800781-3.039063-1.21875.96875.417969 1.984375.816407 3.039063 1.21875zm0 0" fill="#21409a"/><path d="m165.355469 277.082031c-.914063-.425781-1.777344-.855469-2.601563-1.289062.824219.433593 1.6875.863281 2.601563 1.289062zm0 0" fill="#21409a"/><path d="m158.296875 273.058594c-.59375-.4375-1.164063-.90625-1.710937-1.402344.546874.496094 1.117187.964844 1.710937 1.402344zm0 0" fill="#21409a"/><path d="m161.523438 275.152344c-.800782-.4375-1.488282-.886719-2.167969-1.34375.679687.425781 1.390625.871094 2.167969 1.34375zm0 0" fill="#21409a"/><path d="m155.730469 270.898438c-.453125-.460938-.878907-.953126-1.265625-1.472657.390625.515625.8125 1.007813 1.265625 1.472657zm0 0" fill="#21409a"/><path d="m153.859375 268.648438c-.316406-.507813-.585937-1.042969-.800781-1.597657.214844.554688.484375 1.089844.800781 1.597657zm0 0" fill="#00aeef"/><path d="m251.1875 255.257812-1.992188.152344zm0 0" fill="#21409a"/><path d="m266.820312 253.554688-1.890624.269531zm0 0" fill="#21409a"/><path d="m259.144531 254.535156c-.628906.074219-1.246093.152344-1.894531.210938.65625-.058594 1.265625-.136719 1.894531-.210938zm0 0" fill="#21409a"/><path d="m301.859375 243.792969c-.800781.433593-1.6875.863281-2.601563 1.289062.914063-.425781 1.777344-.855469 2.601563-1.289062zm0 0" fill="#2b3990"/><path d="m242.851562 255.722656c-.671874 0-1.328124.070313-2.015624.09375.6875-.023437 1.34375-.070312 2.015624-.09375zm0 0" fill="#21409a"/><path d="m223.777344 255.816406c-.6875 0-1.34375-.070312-2.015625-.09375.671875.023438 1.328125.070313 2.015625.09375zm0 0" fill="#21409a"/><path d="m297.859375 245.695312c-.96875.417969-1.984375.800782-3.039063 1.21875 1.054688-.402343 2.070313-.800781 3.039063-1.21875zm0 0" fill="#2b3990"/><path d="m291.988281 247.953125c.460938-.160156.871094-.328125 1.324219-.488281-.972656.34375-2 .671875-3.03125 1 .554688-.175782 1.167969-.335938 1.707031-.511719zm0 0" fill="#2b3990"/><path d="m274.128906 252.386719c-.65625.125-1.308594.246093-1.984375.359375.675781-.113282 1.328125-.242188 1.984375-.359375zm0 0" fill="#21409a"/><path d="m287.433594 249.320312c-.800782.242188-1.6875.472657-2.558594.695313.871094-.222656 1.71875-.460937 2.558594-.695313zm0 0" fill="#21409a"/><path d="m281.035156 250.960938c-.730468.167968-1.464844.335937-2.214844.496093.75-.160156 1.484376-.304687 2.214844-.496093zm0 0" fill="#21409a"/><path d="m297.859375 277.695312c-.96875.417969-1.984375.800782-3.039063 1.21875 1.054688-.402343 2.070313-.800781 3.039063-1.21875zm0 0" fill="#2b3990"/><path d="m215.417969 255.410156-1.992188-.152344zm0 0" fill="#21409a"/><path d="m301.859375 275.792969c-.800781.433593-1.6875.863281-2.601563 1.289062.914063-.425781 1.777344-.855469 2.601563-1.289062zm0 0" fill="#2b3990"/><path d="m287.433594 281.320312c-.800782.242188-1.6875.472657-2.558594.695313.871094-.222656 1.71875-.460937 2.558594-.695313zm0 0" fill="#21409a"/><path d="m291.988281 279.953125c.460938-.160156.871094-.328125 1.324219-.488281-.972656.34375-2 .671875-3.03125 1 .554688-.175782 1.167969-.335938 1.707031-.511719zm0 0" fill="#2b3990"/><path d="m179.738281 282.015625c-.871093-.222656-1.726562-.453125-2.558593-.695313.839843.234376 1.6875.472657 2.558593.695313zm0 0" fill="#21409a"/><path d="m312.304688 263.953125c-.003907.816406-.136719 1.625-.398438 2.398437.261719-.773437.394531-1.582031.398438-2.398437zm0 0" fill="#2b3990"/><path d="m308.027344 271.65625c-.546875.496094-1.117188.964844-1.714844 1.402344.597656-.4375 1.167969-.90625 1.714844-1.402344zm0 0" fill="#2b3990"/><path d="m281.035156 282.960938c-.730468.167968-1.464844.335937-2.214844.496093.75-.160156 1.484376-.304687 2.214844-.496093zm0 0" fill="#21409a"/><path d="m311.578125 267.03125c-.214844.558594-.484375 1.09375-.800781 1.601562.316406-.507812.585937-1.042968.800781-1.601562zm0 0" fill="#2b3990"/><path d="m310.144531 269.425781c-.386719.519531-.808593 1.011719-1.261719 1.472657.453126-.464844.875-.957032 1.261719-1.472657zm0 0" fill="#2b3990"/><path d="m305.257812 273.777344c-.679687.457031-1.390624.902344-2.167968 1.34375.777344-.441406 1.488281-.886719 2.167968-1.34375zm0 0" fill="#2b3990"/><path d="m215.417969 287.410156-1.992188-.152344zm0 0" fill="#21409a"/><path d="m199.683594 285.855469-1.890625-.269531zm0 0" fill="#21409a"/><path d="m207.363281 286.746094c-.648437-.058594-1.265625-.136719-1.898437-.210938.632812.074219 1.242187.152344 1.898437.210938zm0 0" fill="#21409a"/><path d="m274.128906 284.386719c-.65625.125-1.308594.246093-1.984375.359375.675781-.113282 1.328125-.242188 1.984375-.359375zm0 0" fill="#21409a"/><path d="m185.792969 283.457031c-.75-.160156-1.488281-.328125-2.214844-.496093.726563.191406 1.464844.335937 2.214844.496093zm0 0" fill="#21409a"/><path d="m192.464844 284.753906c-.671875-.113281-1.328125-.234375-1.984375-.359375.65625.109375 1.3125.238281 1.984375.359375zm0 0" fill="#21409a"/><path d="m259.144531 286.535156c-.628906.074219-1.246093.152344-1.894531.210938.65625-.058594 1.265625-.136719 1.894531-.210938zm0 0" fill="#21409a"/><path d="m266.820312 285.554688-1.890624.269531zm0 0" fill="#21409a"/><path d="m242.851562 287.722656c-.671874 0-1.328124.070313-2.015624.09375.6875-.023437 1.34375-.070312 2.015624-.09375zm0 0" fill="#21409a"/><path d="m223.777344 287.816406c-.6875 0-1.34375-.070312-2.015625-.09375.671875.023438 1.328125.070313 2.015625.09375zm0 0" fill="#21409a"/><path d="m251.1875 287.257812-1.992188.152344zm0 0" fill="#21409a"/><path d="m312.304688 231.953125c-.003907.816406-.136719 1.625-.398438 2.398437.261719-.773437.394531-1.582031.398438-2.398437zm0 0" fill="#2b3990"/><g fill="#21409a"><path d="m199.683594 221.855469-1.890625-.269531zm0 0"/><path d="m192.464844 220.753906c-.671875-.113281-1.328125-.234375-1.984375-.359375.65625.109375 1.3125.238281 1.984375.359375zm0 0"/><path d="m185.792969 219.457031c-.75-.160156-1.488281-.328125-2.214844-.496093.726563.191406 1.464844.335937 2.214844.496093zm0 0"/><path d="m172.625 215.953125c.539062.175781 1.152344.335937 1.707031.511719-1.035156-.328125-2.058593-.65625-3.035156-1 .457031.160156.867187.328125 1.328125.488281zm0 0"/><path d="m179.738281 218.015625c-.871093-.222656-1.726562-.453125-2.558593-.695313.839843.234376 1.6875.472657 2.558593.695313zm0 0"/><path d="m251.1875 223.257812-1.992188.152344zm0 0"/><path d="m242.851562 223.722656c-.671874 0-1.328124.070313-2.015624.09375.6875-.023437 1.34375-.070312 2.015624-.09375zm0 0"/><path d="m169.792969 214.914062c-1.054688-.402343-2.070313-.800781-3.039063-1.21875.96875.417969 1.984375.816407 3.039063 1.21875zm0 0"/><path d="m223.777344 223.816406c-.6875 0-1.34375-.070312-2.015625-.09375.671875.023438 1.328125.070313 2.015625.09375zm0 0"/><path d="m259.144531 222.535156c-.628906.074219-1.246093.152344-1.894531.210938.65625-.058594 1.265625-.136719 1.894531-.210938zm0 0"/><path d="m207.363281 222.746094c-.648437-.058594-1.265625-.136719-1.898437-.210938.632812.074219 1.242187.152344 1.898437.210938zm0 0"/><path d="m215.417969 223.410156-1.992188-.152344zm0 0"/></g><path d="m152.304688 231.953125c.003906.816406.140624 1.625.402343 2.398437-.261719-.773437-.398437-1.582031-.402343-2.398437zm0 0" fill="#00aeef"/><path d="m152.304688 263.953125c.003906.816406.140624 1.625.402343 2.398437-.261719-.773437-.398437-1.582031-.402343-2.398437zm0 0" fill="#00aeef"/><path d="m165.355469 213.082031c-.914063-.425781-1.777344-.855469-2.601563-1.289062.824219.433593 1.6875.863281 2.601563 1.289062zm0 0" fill="#21409a"/><path d="m158.296875 209.058594c-.59375-.4375-1.164063-.90625-1.710937-1.402344.546874.496094 1.117187.964844 1.710937 1.402344zm0 0" fill="#21409a"/><path d="m207.363281 254.746094c-.648437-.058594-1.265625-.136719-1.898437-.210938.632812.074219 1.242187.152344 1.898437.210938zm0 0" fill="#21409a"/><path d="m153.859375 204.648438c-.316406-.507813-.585937-1.042969-.800781-1.597657.214844.554688.484375 1.089844.800781 1.597657zm0 0" fill="#00aeef"/><path d="m155.730469 206.898438c-.453125-.460938-.878907-.953126-1.265625-1.472657.390625.515625.8125 1.007813 1.265625 1.472657zm0 0" fill="#00aeef"/><path d="m152.304688 199.953125c.003906.816406.140624 1.625.402343 2.398437-.261719-.773437-.398437-1.582031-.402343-2.398437zm0 0" fill="#00aeef"/><path d="m161.523438 211.152344c-.800782-.4375-1.488282-.886719-2.167969-1.34375.679687.425781 1.390625.871094 2.167969 1.34375zm0 0" fill="#21409a"/><path d="m161.523438 243.152344c-.800782-.4375-1.488282-.886719-2.167969-1.34375.679687.425781 1.390625.871094 2.167969 1.34375zm0 0" fill="#21409a"/><path d="m169.792969 246.914062c-1.054688-.402343-2.070313-.800781-3.039063-1.21875.96875.417969 1.984375.816407 3.039063 1.21875zm0 0" fill="#21409a"/><path d="m165.355469 245.082031c-.914063-.425781-1.777344-.855469-2.601563-1.289062.824219.433593 1.6875.863281 2.601563 1.289062zm0 0" fill="#21409a"/><path d="m155.730469 238.898438c-.453125-.460938-.878907-.953126-1.265625-1.472657.390625.515625.8125 1.007813 1.265625 1.472657zm0 0" fill="#21409a"/><path d="m158.296875 241.058594c-.59375-.4375-1.164063-.90625-1.710937-1.402344.546874.496094 1.117187.964844 1.710937 1.402344zm0 0" fill="#21409a"/><path d="m179.738281 250.015625c-.871093-.222656-1.726562-.453125-2.558593-.695313.839843.234376 1.6875.472657 2.558593.695313zm0 0" fill="#21409a"/><path d="m172.625 247.953125c.539062.175781 1.152344.335937 1.707031.511719-1.035156-.328125-2.058593-.65625-3.035156-1 .457031.160156.867187.328125 1.328125.488281zm0 0" fill="#21409a"/><path d="m192.464844 252.753906c-.671875-.113281-1.328125-.234375-1.984375-.359375.65625.109375 1.3125.238281 1.984375.359375zm0 0" fill="#21409a"/><path d="m199.683594 253.855469-1.890625-.269531zm0 0" fill="#21409a"/><path d="m185.792969 251.457031c-.75-.160156-1.488281-.328125-2.214844-.496093.726563.191406 1.464844.335937 2.214844.496093zm0 0" fill="#21409a"/><path d="m291.988281 215.953125c.460938-.160156.871094-.328125 1.324219-.488281-.972656.34375-2 .671875-3.03125 1 .554688-.175782 1.167969-.335938 1.707031-.511719zm0 0" fill="#2b3990"/><path d="m287.433594 217.320312c-.800782.242188-1.6875.472657-2.558594.695313.871094-.222656 1.71875-.460937 2.558594-.695313zm0 0" fill="#21409a"/><path d="m266.820312 221.554688-1.890624.269531zm0 0" fill="#21409a"/><path d="m274.128906 220.386719c-.65625.125-1.308594.246093-1.984375.359375.675781-.113282 1.328125-.242188 1.984375-.359375zm0 0" fill="#21409a"/><path d="m297.859375 213.695312c-.96875.417969-1.984375.800782-3.039063 1.21875 1.054688-.402343 2.070313-.800781 3.039063-1.21875zm0 0" fill="#2b3990"/><path d="m312.304688 199.953125c-.003907.816406-.136719 1.625-.398438 2.398437.261719-.773437.394531-1.582031.398438-2.398437zm0 0" fill="#00aeef"/><path d="m281.035156 218.960938c-.730468.167968-1.464844.335937-2.214844.496093.75-.160156 1.484376-.304687 2.214844-.496093zm0 0" fill="#21409a"/><path d="m311.578125 203.03125c-.214844.558594-.484375 1.09375-.800781 1.601562.316406-.507812.585937-1.042968.800781-1.601562zm0 0" fill="#00aeef"/><path d="m301.859375 211.792969c-.800781.433593-1.6875.863281-2.601563 1.289062.914063-.425781 1.777344-.855469 2.601563-1.289062zm0 0" fill="#2b3990"/><path d="m310.144531 205.425781c-.386719.519531-.808593 1.011719-1.261719 1.472657.453126-.464844.875-.957032 1.261719-1.472657zm0 0" fill="#2b3990"/><path d="m305.257812 209.777344c-.679687.457031-1.390624.902344-2.167968 1.34375.777344-.441406 1.488281-.886719 2.167968-1.34375zm0 0" fill="#2b3990"/><path d="m308.027344 207.65625c-.546875.496094-1.117188.964844-1.714844 1.402344.597656-.4375 1.167969-.90625 1.714844-1.402344zm0 0" fill="#2b3990"/><path d="m172.625 183.953125c19.375 5.675781 39.496094 8.371094 59.679688 8 20.183593.371094 40.308593-2.324219 59.683593-8 12.636719-4.238281 20.316407-9.839844 20.316407-16 0-13.28125-35.839844-24-80-24-44.160157 0-80 10.71875-80 24 0 6.160156 7.683593 11.761719 20.320312 16zm0 0" fill="#acabb1"/><path d="m153.035156 203.03125c.214844.558594.484375 1.09375.800782 1.601562.175781.265626.40625.511719.605468.800782.386719.519531.808594 1.011718 1.265625 1.472656.253907.253906.566407.503906.855469.800781.546875.496094 1.117188.960938 1.710938 1.398438.328124.246093.695312.480469 1.058593.71875.679688.457031 1.390625.90625 2.167969 1.34375.390625.234375.796875.449219 1.230469.671875.800781.433594 1.6875.867187 2.601562 1.289062l1.398438.617188c.96875.414062 1.984375.800781 3.039062 1.214844.496094.183593.992188.375 1.503907.550781.976562.34375 2 .671875 3.03125 1 1.035156.328125 1.875.578125 2.851562.855469.796875.242187 1.6875.472656 2.558594.699218 1.246094.328125 2.527344.640625 3.839844.941406.726562.167969 1.464843.335938 2.214843.496094 1.519531.328125 3.089844.632813 4.6875.929688.65625.128906 1.3125.246094 1.984375.359375 1.738282.304687 3.519532.574219 5.328125.839843l1.890625.273438c1.878906.246094 3.820313.472656 5.78125.679688.632813.070312 1.25.152343 1.898438.207031 1.984375.199219 4 .359375 6.0625.511719l1.992187.152343c2.078125.136719 4.207031.222657 6.34375.3125.671875 0 1.328125.070313 2.015625.09375 2.800782.089844 5.648438.136719 8.527344.136719 2.882812 0 5.730469-.046875 8.527344-.136719.691406 0 1.347656-.070312 2.019531-.09375 2.132813-.089843 4.261719-.175781 6.34375-.3125l1.992187-.152343c2.046876-.152344 4.078126-.3125 6.0625-.511719.648438-.054688 1.265626-.136719 1.894532-.207031 1.960937-.207032 3.90625-.433594 5.785156-.679688l1.886719-.273438c1.808593-.265624 3.59375-.535156 5.328125-.839843.671875-.113281 1.328125-.230469 1.984375-.359375 1.601562-.296875 3.199219-.601563 4.6875-.929688.753906-.160156 1.488281-.328125 2.21875-.496094 1.3125-.300781 2.589843-.613281 3.839843-.941406.871094-.226562 1.726563-.457031 2.558594-.699218.976563-.277344 1.921875-.558594 2.847656-.855469.929688-.292969 2.054688-.65625 3.03125-1 .511719-.175781 1.007813-.367188 1.503907-.550781 1.058593-.398438 2.074219-.800782 3.042969-1.214844l1.398437-.617188c.910156-.421875 1.777344-.855468 2.601563-1.289062.421874-.222656.796874-.4375 1.230468-.671875.800782-.4375 1.488282-.886719 2.167969-1.34375.359375-.238281.726563-.472657 1.054687-.71875.597657-.4375 1.167969-.902344 1.714844-1.398438.285156-.257812.597656-.507812.855469-.800781.453125-.460938.875-.953125 1.261719-1.472656.203125-.265625.433594-.511719.609375-.800782.316406-.507812.582031-1.042968.800781-1.601562.09375-.238281.246094-.460938.328125-.703125.273437-.761719.425781-1.5625.445313-2.375v-32c0 6.160156-7.679688 11.761719-20.316407 16-19.375 5.675781-39.5 8.371094-59.683593 8-20.183594.371094-40.304688-2.324219-59.679688-8-12.636719-4.238281-20.320312-9.839844-20.320312-16v32c.003906.816406.140624 1.625.402343 2.398437.078125.21875.230469.441407.328125.679688zm0 0" fill="#4d66ae"/><path d="m153.035156 235.03125c.214844.558594.484375 1.09375.800782 1.601562.175781.265626.40625.511719.605468.800782.386719.519531.808594 1.011718 1.265625 1.472656.253907.253906.566407.503906.855469.757812.546875.496094 1.117188.964844 1.710938 1.402344.328124.246094.695312.480469 1.058593.71875.679688.457032 1.390625.902344 2.167969 1.34375.390625.230469.796875.449219 1.230469.671875.800781.433594 1.6875.863281 2.601562 1.289063l1.398438.617187c.96875.414063 1.984375.796875 3.039062 1.214844.496094.183594.992188.375 1.503907.550781.976562.34375 2 .671875 3.03125 1 1.035156.328125 1.875.578125 2.851562.855469.796875.242187 1.6875.472656 2.558594.695313 1.246094.328124 2.527344.640624 3.839844.945312.726562.167969 1.464843.335938 2.214843.496094 1.519531.328125 3.089844.632812 4.6875.929687.65625.125 1.3125.246094 1.984375.359375 1.738282.304688 3.519532.574219 5.328125.839844l1.890625.269531c1.878906.25 3.820313.472657 5.78125.683594.632813.070313 1.25.148437 1.898438.207031 1.984375.199219 4 .359375 6.0625.511719l1.992187.152344c2.078125.136719 4.207031.222656 6.34375.3125.671875 0 1.328125.070312 2.015625.09375 2.800782.089843 5.648438.136719 8.527344.136719 2.882812 0 5.730469-.046876 8.527344-.136719.691406 0 1.347656-.070313 2.019531-.09375 2.132813-.089844 4.261719-.175781 6.34375-.3125l1.992187-.152344c2.046876-.152344 4.078126-.3125 6.0625-.511719.648438-.058594 1.265626-.136718 1.894532-.207031 1.960937-.210937 3.90625-.433594 5.785156-.683594l1.886719-.269531c1.808593-.265625 3.59375-.535156 5.328125-.839844.671875-.113281 1.328125-.234375 1.984375-.359375 1.601562-.296875 3.199219-.601562 4.6875-.929687.753906-.160156 1.488281-.328125 2.21875-.496094 1.3125-.304688 2.589843-.617188 3.839843-.945312.871094-.222657 1.726563-.453126 2.558594-.695313.976563-.277344 1.921875-.558594 2.847656-.855469.929688-.296875 2.054688-.65625 3.03125-1 .511719-.175781 1.007813-.367187 1.503907-.550781 1.058593-.402344 2.074219-.800781 3.042969-1.214844l1.398437-.617187c.910156-.425782 1.777344-.855469 2.601563-1.289063.421874-.222656.796874-.441406 1.230468-.671875.800782-.441406 1.488282-.886718 2.167969-1.34375.359375-.238281.726563-.472656 1.054687-.71875.597657-.4375 1.167969-.90625 1.714844-1.402344.285156-.253906.597656-.503906.855469-.757812.453125-.460938.875-.953125 1.261719-1.472656.203125-.265625.433594-.511719.609375-.800782.316406-.507812.582031-1.042968.800781-1.601562.09375-.238281.246094-.460938.328125-.703125.273437-.761719.425781-1.5625.445313-2.375v-32c-.003907.816406-.136719 1.625-.398438 2.398437-.078125.242188-.230469.464844-.328125.707032-.214844.554687-.484375 1.089844-.800781 1.597656-.175782.265625-.40625.511719-.605469.800781-.390625.515625-.8125 1.007813-1.265625 1.472657-.265625.253906-.566406.503906-.855469.800781-.546875.496093-1.117187.960937-1.710937 1.398437-.328125.25-.699219.480469-1.058594.71875-.679688.457032-1.390625.90625-2.167969 1.34375-.390625.234375-.800781.449219-1.230469.671875-.800781.433594-1.6875.867188-2.601562 1.289063l-1.398438.617187c-.96875.414063-1.984374.800781-3.039062 1.214844-.496094.183594-.992188.375-1.503906.550781-.511719.179688-.867188.328125-1.328125.488282-.464844.160156-1.152344.335937-1.707031.511718-.925782.296875-1.871094.578125-2.847657.859375-.796875.238281-1.6875.46875-2.558593.695313-1.246094.328125-2.527344.640625-3.839844.941406-.734375.167969-1.464844.335938-2.214844.496094-1.519531.328125-3.089844.632812-4.6875.929687-.65625.121094-1.3125.25-1.984375.359375-1.738281.304688-3.519531.578125-5.328125.839844l-1.890625.273438c-1.886719.246093-3.816406.472656-5.78125.679687-.632813.070313-1.25.152344-1.898437.207031-1.984376.199219-4 .359375-6.0625.511719l-1.992188.152344c-2.082031.128906-4.207031.226562-6.34375.3125-.671875 0-1.328125.070312-2.015625.097656-2.800781.085937-5.648437.132813-8.527344.132813-2.882812 0-5.730469-.046876-8.53125-.132813-.6875 0-1.34375-.074219-2.015625-.097656-2.132812-.085938-4.261718-.183594-6.34375-.3125l-1.992187-.152344c-2.046875-.152344-4.078125-.3125-6.0625-.511719-.648438-.054687-1.265625-.136718-1.894531-.207031-1.96875-.207031-3.898438-.433594-5.785157-.679687l-1.886719-.273438c-1.808593-.261719-3.59375-.535156-5.328124-.839844-.671876-.109375-1.328126-.238281-1.984376-.359375-1.601562-.296875-3.203124-.601562-4.6875-.929687-.753906-.160156-1.480468-.328125-2.21875-.496094-1.3125-.300781-2.589843-.613281-3.839843-.941406-.871094-.226563-1.71875-.457032-2.558594-.695313-.976563-.28125-1.921875-.5625-2.847656-.859375-.554688-.175781-1.167969-.335937-1.703125-.511718-.539063-.175782-.875-.328126-1.328125-.488282-.457031-.15625-1.011719-.367187-1.503907-.550781-1.058593-.398437-2.074218-.800781-3.042968-1.214844l-1.398438-.617187c-.914062-.421875-1.777344-.855469-2.601562-1.289063-.421875-.222656-.839844-.4375-1.230469-.671875-.800781-.4375-1.488281-.886718-2.167969-1.34375-.359375-.238281-.726562-.46875-1.054687-.71875-.597657-.4375-1.167969-.902344-1.714844-1.398437-.285156-.257813-.589844-.503907-.855469-.800781-.453125-.464844-.875-.957032-1.261718-1.472657-.203126-.265625-.433594-.511719-.609376-.800781-.316406-.507812-.585937-1.042969-.800781-1.597656-.09375-.242188-.246093-.464844-.328125-.707032-.277344-.769531-.429687-1.578124-.449218-2.398437v32c.003906.816406.140624 1.625.402343 2.398437.078125.21875.230469.441407.328125.679688zm0 0" fill="#21409a"/><path d="m159.355469 209.777344c-.359375-.242188-.730469-.472656-1.058594-.71875.328125.246094.699219.496094 1.058594.71875zm0 0" fill="#21409a"/><path d="m156.585938 207.65625c-.289063-.253906-.597657-.503906-.855469-.800781.265625.296875.574219.546875.855469.800781zm0 0" fill="#21409a"/><path d="m177.179688 217.320312c-.976563-.277343-1.921876-.558593-2.847657-.855468.925781.289062 1.871094.578125 2.847657.855468zm0 0" fill="#21409a"/><path d="m162.753906 211.792969c-.421875-.222657-.839844-.441407-1.230468-.671875.382812.230468.808593.449218 1.230468.671875zm0 0" fill="#21409a"/><path d="m153.035156 203.03125c-.097656-.238281-.25-.460938-.328125-.703125.078125.242187.230469.464844.328125.703125zm0 0" fill="#00aeef"/><path d="m171.296875 215.464844c-.511719-.175782-1.007813-.367188-1.503906-.550782.496093.183594.992187.375 1.503906.550782zm0 0" fill="#21409a"/><path d="m166.753906 213.695312-1.398437-.613281zm0 0" fill="#21409a"/><path d="m299.257812 213.082031-1.398437.613281zm0 0" fill="#2b3990"/><path d="m154.464844 205.425781c-.199219-.265625-.429688-.511719-.605469-.800781.175781.289062.40625.535156.605469.800781zm0 0" fill="#00aeef"/><path d="m290.28125 216.464844c-.925781.296875-1.871094.578125-2.847656.855468.976562-.277343 1.921875-.566406 2.847656-.855468zm0 0" fill="#21409a"/><path d="m294.820312 214.914062c-.496093.183594-.992187.375-1.507812.550782.515625-.175782 1.011719-.367188 1.507812-.550782zm0 0" fill="#2b3990"/><path d="m272.144531 220.753906c-1.734375.304688-3.519531.574219-5.324219.839844 1.804688-.273438 3.589844-.542969 5.324219-.839844zm0 0" fill="#21409a"/><path d="m278.820312 219.457031c-1.523437.328125-3.089843.632813-4.691406.929688 1.601563-.296875 3.167969-.601563 4.691406-.929688zm0 0" fill="#21409a"/><path d="m183.578125 218.960938c-1.3125-.304688-2.589844-.617188-3.839844-.945313 1.25.335937 2.527344.640625 3.839844.945313zm0 0" fill="#21409a"/><path d="m310.753906 204.648438c-.175781.265624-.40625.511718-.609375.800781.203125-.289063.433594-.535157.609375-.800781zm0 0" fill="#00aeef"/><path d="m311.90625 202.351562c-.078125.242188-.230469.464844-.328125.707032.097656-.265625.25-.488282.328125-.707032zm0 0" fill="#00aeef"/><path d="m308.882812 206.898438c-.257812.253906-.570312.503906-.855468.796874.277344-.292968.589844-.542968.855468-.796874zm0 0" fill="#2b3990"/><path d="m306.3125 209.058594c-.324219.246094-.695312.476562-1.054688.71875.359376-.222656.730469-.472656 1.054688-.71875zm0 0" fill="#2b3990"/><path d="m303.089844 211.152344c-.390625.234375-.800782.449218-1.230469.671875.421875-.253907.847656-.472657 1.230469-.671875zm0 0" fill="#2b3990"/><path d="m284.875 218.015625c-1.25.328125-2.527344.640625-3.839844.945313 1.3125-.304688 2.589844-.609376 3.839844-.945313zm0 0" fill="#21409a"/><path d="m213.425781 223.257812c-2.046875-.152343-4.078125-.3125-6.0625-.511718 1.984375.199218 4.015625.359375 6.0625.511718zm0 0" fill="#21409a"/><path d="m205.464844 222.535156c-1.957032-.207031-3.902344-.429687-5.78125-.679687 1.886718.246093 3.816406.472656 5.78125.679687zm0 0" fill="#21409a"/><path d="m221.761719 223.722656c-2.136719-.089844-4.261719-.175781-6.34375-.3125 2.082031.125 4.207031.222656 6.34375.3125zm0 0" fill="#21409a"/><path d="m190.480469 220.386719c-1.597657-.296875-3.199219-.601563-4.6875-.929688 1.519531.328125 3.089843.632813 4.6875.929688zm0 0" fill="#21409a"/><path d="m197.792969 221.554688c-1.804688-.265626-3.589844-.539063-5.328125-.839844 1.738281.335937 3.523437.605468 5.328125.839844zm0 0" fill="#21409a"/><path d="m240.835938 223.816406c-2.800782.089844-5.648438.136719-8.53125.136719 2.882812 0 5.730468-.046875 8.53125-.136719zm0 0" fill="#21409a"/><path d="m249.195312 223.410156c-2.082031.136719-4.207031.222656-6.34375.3125 2.136719-.089844 4.261719-.1875 6.34375-.3125zm0 0" fill="#21409a"/><path d="m232.304688 223.953125c-2.878907 0-5.726563-.046875-8.527344-.136719 2.800781.089844 5.648437.136719 8.527344.136719zm0 0" fill="#21409a"/><path d="m257.25 222.746094c-1.984375.199218-4 .359375-6.0625.511718 2.046875-.152343 4.078125-.3125 6.0625-.511718zm0 0" fill="#21409a"/><path d="m264.929688 221.855469c-1.878907.25-3.824219.472656-5.785157.679687 1.96875-.207031 3.898438-.433594 5.785157-.679687zm0 0" fill="#21409a"/><path d="m153.035156 267.03125c.214844.558594.484375 1.09375.800782 1.601562.175781.265626.40625.511719.605468.800782.386719.519531.808594 1.011718 1.265625 1.472656.253907.253906.566407.503906.855469.757812.546875.496094 1.117188.964844 1.710938 1.402344.328124.246094.695312.480469 1.058593.71875.679688.457032 1.390625.902344 2.167969 1.34375.390625.230469.796875.449219 1.230469.671875.800781.433594 1.6875.863281 2.601562 1.289063l1.398438.617187c.96875.414063 1.984375.796875 3.039062 1.214844.496094.183594.992188.375 1.503907.550781.976562.34375 2 .671875 3.03125 1 1.035156.328125 1.875.578125 2.851562.855469.796875.242187 1.6875.472656 2.558594.695313 1.246094.328124 2.527344.640624 3.839844.945312.726562.167969 1.464843.335938 2.214843.496094 1.519531.328125 3.089844.632812 4.6875.929687.65625.125 1.3125.246094 1.984375.359375 1.738282.304688 3.519532.574219 5.328125.839844l1.890625.269531c1.878906.25 3.820313.472657 5.78125.683594.632813.070313 1.25.148437 1.898438.207031 1.984375.199219 4 .359375 6.0625.511719l1.992187.152344c2.078125.136719 4.207031.222656 6.34375.3125.671875 0 1.328125.070312 2.015625.09375 2.800782.089843 5.648438.136719 8.527344.136719 2.882812 0 5.730469-.046876 8.527344-.136719.691406 0 1.347656-.070313 2.019531-.09375 2.132813-.089844 4.261719-.175781 6.34375-.3125l1.992187-.152344c2.046876-.152344 4.078126-.3125 6.0625-.511719.648438-.058594 1.265626-.136718 1.894532-.207031 1.960937-.210937 3.90625-.433594 5.785156-.683594l1.886719-.269531c1.808593-.265625 3.59375-.535156 5.328125-.839844.671875-.113281 1.328125-.234375 1.984375-.359375 1.601562-.296875 3.199219-.601562 4.6875-.929687.753906-.160156 1.488281-.328125 2.21875-.496094 1.3125-.304688 2.589843-.617188 3.839843-.945312.871094-.222657 1.726563-.453126 2.558594-.695313.976563-.277344 1.921875-.558594 2.847656-.855469.929688-.296875 2.054688-.65625 3.03125-1 .511719-.175781 1.007813-.367187 1.503907-.550781 1.058593-.402344 2.074219-.800781 3.042969-1.214844l1.398437-.617187c.910156-.425782 1.777344-.855469 2.601563-1.289063.421874-.222656.796874-.441406 1.230468-.671875.800782-.441406 1.488282-.886718 2.167969-1.34375.359375-.238281.726563-.472656 1.054687-.71875.597657-.4375 1.167969-.90625 1.714844-1.402344.285156-.253906.597656-.503906.855469-.757812.453125-.460938.875-.953125 1.261719-1.472656.203125-.265625.433594-.511719.609375-.800782.316406-.507812.582031-1.042968.800781-1.601562.09375-.238281.246094-.460938.328125-.703125.273437-.761719.425781-1.5625.445313-2.375v-32c-.003907.816406-.136719 1.625-.398438 2.398437-.078125.242188-.230469.464844-.328125.707032-.214844.554687-.484375 1.089844-.800781 1.597656-.175782.265625-.40625.511719-.605469.800781-.390625.515625-.8125 1.007813-1.265625 1.472657-.265625.253906-.566406.503906-.855469.757812-.546875.5-1.117187.964844-1.710937 1.402344-.328125.246094-.699219.480468-1.058594.71875-.679688.457031-1.390625.90625-2.167969 1.34375-.390625.234375-.800781.449218-1.230469.671875-.800781.433593-1.6875.863281-2.601562 1.289062l-1.398438.617188c-.96875.414062-1.984374.796875-3.039062 1.214843-.496094.183594-.992188.375-1.503906.550782-.511719.175781-.867188.328125-1.328125.488281-.464844.160156-1.152344.335937-1.707031.511719-.925782.296875-1.871094.578125-2.847657.855468-.796875.242188-1.6875.472657-2.558593.699219-1.246094.328125-2.527344.636719-3.839844.941407-.734375.167968-1.464844.335937-2.214844.496093-1.519531.328125-3.089844.632813-4.6875.929688-.65625.117187-1.3125.246093-1.984375.359375-1.738281.304687-3.519531.574218-5.328125.839844l-1.890625.273437c-1.886719.242187-3.816406.46875-5.78125.679687-.632813.070313-1.25.152344-1.898437.207032-1.984376.199218-4 .359375-6.0625.511718l-1.992188.152344c-2.082031.128906-4.207031.222656-6.34375.3125-.671875 0-1.328125.070313-2.015625.09375-2.800781.089844-5.648437.136719-8.527344.136719-2.882812 0-5.730469-.046875-8.53125-.136719-.6875 0-1.34375-.070312-2.015625-.09375-2.132812-.089844-4.261718-.183594-6.34375-.3125l-1.992187-.152344c-2.046875-.152343-4.078125-.3125-6.0625-.511718-.648438-.054688-1.265625-.136719-1.894531-.207032-1.96875-.210937-3.898438-.4375-5.785157-.679687l-1.886719-.273437c-1.808593-.265626-3.59375-.535157-5.328124-.839844-.671876-.113282-1.328126-.242188-1.984376-.359375-1.601562-.296875-3.203124-.601563-4.6875-.929688-.753906-.160156-1.480468-.328125-2.21875-.496093-1.3125-.304688-2.589843-.613282-3.839843-.941407-.871094-.226562-1.71875-.457031-2.558594-.699219-.976563-.277343-1.921875-.558593-2.847656-.855468-.554688-.175782-1.167969-.335938-1.703125-.511719-.539063-.175781-.875-.328125-1.328125-.488281-.457031-.160156-1.011719-.367188-1.503907-.550782-1.058593-.398437-2.074218-.800781-3.042968-1.214843l-1.398438-.617188c-.914062-.425781-1.777344-.855469-2.601562-1.289062-.421875-.222657-.839844-.4375-1.230469-.671875-.800781-.4375-1.488281-.886719-2.167969-1.34375-.359375-.238282-.726562-.472656-1.054687-.71875-.597657-.4375-1.167969-.902344-1.714844-1.402344-.285156-.253906-.589844-.503906-.855469-.757812-.453125-.464844-.875-.957032-1.261718-1.472657-.203126-.265625-.433594-.511719-.609376-.800781-.316406-.507812-.585937-1.042969-.800781-1.597656-.09375-.242188-.246093-.464844-.328125-.707032-.277344-.769531-.429687-1.578124-.449218-2.398437v32c.003906.816406.140624 1.625.402343 2.398437.078125.21875.230469.441407.328125.679688zm0 0" fill="#193073"/><path d="m240.835938 255.816406c-2.800782.089844-5.648438.136719-8.53125.136719 2.882812 0 5.730468-.046875 8.53125-.136719zm0 0" fill="#21409a"/><path d="m294.820312 246.914062c-.496093.183594-.992187.375-1.507812.550782.515625-.175782 1.011719-.367188 1.507812-.550782zm0 0" fill="#2b3990"/><path d="m183.578125 250.960938c-1.3125-.304688-2.589844-.617188-3.839844-.945313 1.25.335937 2.527344.640625 3.839844.945313zm0 0" fill="#21409a"/><path d="m205.464844 254.535156c-1.957032-.207031-3.902344-.429687-5.78125-.679687 1.886718.246093 3.816406.472656 5.78125.679687zm0 0" fill="#21409a"/><path d="m272.144531 252.753906c-1.734375.304688-3.519531.574219-5.324219.839844 1.804688-.273438 3.589844-.542969 5.324219-.839844zm0 0" fill="#21409a"/><path d="m232.304688 255.953125c-2.878907 0-5.726563-.046875-8.527344-.136719 2.800781.089844 5.648437.136719 8.527344.136719zm0 0" fill="#21409a"/><path d="m306.3125 241.058594c-.324219.246094-.695312.476562-1.054688.71875.359376-.222656.730469-.472656 1.054688-.71875zm0 0" fill="#2b3990"/><path d="m290.28125 248.464844c-.925781.296875-1.871094.578125-2.847656.855468.976562-.277343 1.921875-.566406 2.847656-.855468zm0 0" fill="#21409a"/><path d="m177.179688 249.320312c-.976563-.277343-1.921876-.558593-2.847657-.855468.925781.289062 1.871094.578125 2.847657.855468zm0 0" fill="#21409a"/><path d="m159.355469 241.777344c-.359375-.242188-.730469-.472656-1.058594-.71875.328125.246094.699219.496094 1.058594.71875zm0 0" fill="#21409a"/><path d="m310.753906 236.648438c-.175781.265624-.40625.511718-.609375.800781.203125-.289063.433594-.535157.609375-.800781zm0 0" fill="#2b3990"/><path d="m299.257812 245.082031-1.398437.613281zm0 0" fill="#2b3990"/><path d="m249.195312 255.410156c-2.082031.136719-4.207031.222656-6.34375.3125 2.136719-.089844 4.261719-.1875 6.34375-.3125zm0 0" fill="#21409a"/><path d="m197.792969 253.554688c-1.804688-.265626-3.589844-.539063-5.328125-.839844 1.738281.335937 3.523437.605468 5.328125.839844zm0 0" fill="#21409a"/><path d="m311.90625 234.351562c-.078125.242188-.230469.464844-.328125.707032.097656-.265625.25-.488282.328125-.707032zm0 0" fill="#2b3990"/><path d="m264.929688 253.855469c-1.878907.25-3.824219.472656-5.785157.679687 1.96875-.207031 3.898438-.433594 5.785157-.679687zm0 0" fill="#21409a"/><path d="m303.089844 243.152344c-.390625.234375-.800782.449218-1.230469.671875.421875-.253907.847656-.472657 1.230469-.671875zm0 0" fill="#2b3990"/><path d="m257.25 254.746094c-1.984375.199218-4 .359375-6.0625.511718 2.046875-.152343 4.078125-.3125 6.0625-.511718zm0 0" fill="#21409a"/><path d="m221.761719 255.722656c-2.136719-.089844-4.261719-.175781-6.34375-.3125 2.082031.125 4.207031.222656 6.34375.3125zm0 0" fill="#21409a"/><path d="m166.753906 245.695312-1.398437-.613281zm0 0" fill="#21409a"/><path d="m153.035156 235.03125c-.097656-.238281-.25-.460938-.328125-.703125.078125.242187.230469.464844.328125.703125zm0 0" fill="#00aeef"/><path d="m162.753906 243.792969c-.421875-.222657-.839844-.441407-1.230468-.671875.382812.230468.808593.449218 1.230468.671875zm0 0" fill="#21409a"/><path d="m278.820312 251.457031c-1.523437.328125-3.089843.632813-4.691406.929688 1.601563-.296875 3.167969-.601563 4.691406-.929688zm0 0" fill="#21409a"/><path d="m308.882812 238.898438c-.257812.253906-.570312.503906-.855468.757812.277344-.253906.589844-.503906.855468-.757812zm0 0" fill="#2b3990"/><path d="m156.585938 239.65625c-.289063-.253906-.597657-.503906-.855469-.757812.265625.253906.574219.503906.855469.757812zm0 0" fill="#21409a"/><path d="m154.464844 237.425781c-.199219-.265625-.429688-.511719-.605469-.800781.175781.289062.40625.535156.605469.800781zm0 0" fill="#21409a"/><path d="m171.296875 247.464844c-.511719-.175782-1.007813-.367188-1.503906-.550782.496093.183594.992187.375 1.503906.550782zm0 0" fill="#21409a"/><path d="m213.425781 255.257812c-2.046875-.152343-4.078125-.3125-6.0625-.511718 1.984375.199218 4.015625.359375 6.0625.511718zm0 0" fill="#21409a"/><path d="m284.875 250.015625c-1.25.328125-2.527344.640625-3.839844.945313 1.3125-.304688 2.589844-.609376 3.839844-.945313zm0 0" fill="#21409a"/><path d="m190.480469 252.386719c-1.597657-.296875-3.199219-.601563-4.6875-.929688 1.519531.328125 3.089843.632813 4.6875.929688zm0 0" fill="#21409a"/><path d="m232.304688 319.953125c44.160156 0 80-10.71875 80-24v-32c-.003907.816406-.136719 1.625-.398438 2.398437-.078125.242188-.230469.464844-.328125.707032-.214844.554687-.484375 1.089844-.800781 1.597656-.175782.265625-.40625.511719-.605469.800781-.390625.515625-.8125 1.007813-1.265625 1.472657-.265625.253906-.566406.503906-.855469.757812-.546875.5-1.117187.964844-1.710937 1.402344-.328125.246094-.699219.480468-1.058594.71875-.679688.457031-1.390625.90625-2.167969 1.34375-.390625.234375-.800781.449218-1.230469.671875-.800781.433593-1.6875.863281-2.601562 1.289062l-1.398438.617188c-.96875.414062-1.984374.796875-3.039062 1.214843-.496094.183594-.992188.375-1.503906.550782-.511719.175781-.867188.328125-1.328125.488281-.464844.160156-1.152344.335937-1.707031.511719-.925782.296875-1.871094.578125-2.847657.855468-.796875.242188-1.6875.472657-2.558593.699219-1.246094.328125-2.527344.636719-3.839844.941407-.734375.167968-1.464844.335937-2.214844.496093-1.519531.328125-3.089844.632813-4.6875.929688-.65625.117187-1.3125.246093-1.984375.359375-1.738281.304687-3.519531.574218-5.328125.839844l-1.890625.273437c-1.886719.242187-3.816406.46875-5.78125.679687-.632813.070313-1.25.152344-1.898437.207032-1.984376.199218-4 .359375-6.0625.511718l-1.992188.152344c-2.082031.128906-4.207031.222656-6.34375.3125-.671875 0-1.328125.070313-2.015625.09375-2.800781.089844-5.648437.136719-8.527344.136719-2.882812 0-5.730469-.046875-8.53125-.136719-.6875 0-1.34375-.070312-2.015625-.09375-2.132812-.089844-4.261718-.183594-6.34375-.3125l-1.992187-.152344c-2.046875-.152343-4.078125-.3125-6.0625-.511718-.648438-.054688-1.265625-.136719-1.894531-.207032-1.96875-.210937-3.898438-.4375-5.785157-.679687l-1.886719-.273437c-1.808593-.265626-3.59375-.535157-5.328124-.839844-.671876-.113282-1.328126-.242188-1.984376-.359375-1.601562-.296875-3.203124-.601563-4.6875-.929688-.753906-.160156-1.480468-.328125-2.21875-.496093-1.3125-.304688-2.589843-.613282-3.839843-.941407-.871094-.226562-1.71875-.457031-2.558594-.699219-.976563-.277343-1.921875-.558593-2.847656-.855468-.554688-.175782-1.167969-.335938-1.703125-.511719-.539063-.175781-.875-.328125-1.328125-.488281-.457031-.160156-1.011719-.367188-1.503907-.550782-1.058593-.398437-2.074218-.800781-3.042968-1.214843l-1.398438-.617188c-.914062-.425781-1.777344-.855469-2.601562-1.289062-.421875-.222657-.839844-.4375-1.230469-.671875-.800781-.4375-1.488281-.886719-2.167969-1.34375-.359375-.238282-.726562-.472656-1.054687-.71875-.597657-.4375-1.167969-.902344-1.714844-1.402344-.285156-.253906-.589844-.503906-.855469-.757812-.453125-.464844-.875-.957032-1.261718-1.472657-.203126-.265625-.433594-.511719-.609376-.800781-.316406-.507812-.585937-1.042969-.800781-1.597656-.09375-.242188-.246093-.464844-.328125-.707032-.277344-.769531-.429687-1.578124-.449218-2.398437v32c0 13.28125 35.839843 24 80 24zm0 0" fill="#11204d"/><path d="m221.761719 287.722656c-2.136719-.089844-4.261719-.175781-6.34375-.3125 2.082031.125 4.207031.222656 6.34375.3125zm0 0" fill="#21409a"/><path d="m240.835938 287.816406c-2.800782.089844-5.648438.136719-8.53125.136719 2.882812 0 5.730468-.046875 8.53125-.136719zm0 0" fill="#21409a"/><path d="m232.304688 287.953125c-2.878907 0-5.726563-.046875-8.527344-.136719 2.800781.089844 5.648437.136719 8.527344.136719zm0 0" fill="#21409a"/><path d="m311.90625 266.351562c-.078125.242188-.230469.464844-.328125.707032.097656-.265625.25-.488282.328125-.707032zm0 0" fill="#2b3990"/><path d="m257.25 286.746094c-1.984375.199218-4 .359375-6.0625.511718 2.046875-.152343 4.078125-.3125 6.0625-.511718zm0 0" fill="#21409a"/><path d="m213.425781 287.257812c-2.046875-.152343-4.078125-.3125-6.0625-.511718 1.984375.199218 4.015625.359375 6.0625.511718zm0 0" fill="#21409a"/><path d="m205.464844 286.535156c-1.957032-.207031-3.902344-.429687-5.78125-.679687 1.886718.246093 3.816406.472656 5.78125.679687zm0 0" fill="#21409a"/><path d="m306.3125 273.058594c-.324219.246094-.695312.476562-1.054688.71875.359376-.222656.730469-.472656 1.054688-.71875zm0 0" fill="#2b3990"/><path d="m154.464844 269.425781c-.199219-.265625-.429688-.511719-.605469-.800781.175781.289062.40625.535156.605469.800781zm0 0" fill="#21409a"/><path d="m290.28125 280.464844c-.925781.296875-1.871094.578125-2.847656.855468.976562-.277343 1.921875-.566406 2.847656-.855468zm0 0" fill="#21409a"/><path d="m156.585938 271.65625c-.289063-.253906-.597657-.503906-.855469-.757812.265625.253906.574219.503906.855469.757812zm0 0" fill="#21409a"/><path d="m294.820312 278.914062c-.496093.183594-.992187.375-1.507812.550782.515625-.175782 1.011719-.367188 1.507812-.550782zm0 0" fill="#21409a"/><path d="m166.753906 277.695312-1.398437-.613281zm0 0" fill="#21409a"/><path d="m308.882812 270.898438c-.257812.253906-.570312.503906-.855468.757812.277344-.253906.589844-.503906.855468-.757812zm0 0" fill="#2b3990"/><path d="m159.355469 273.777344c-.359375-.242188-.730469-.472656-1.058594-.71875.328125.246094.699219.496094 1.058594.71875zm0 0" fill="#21409a"/><path d="m303.089844 275.152344c-.390625.234375-.800782.449218-1.230469.671875.421875-.253907.847656-.472657 1.230469-.671875zm0 0" fill="#2b3990"/><path d="m162.753906 275.792969c-.421875-.222657-.839844-.441407-1.230468-.671875.382812.230468.808593.449218 1.230468.671875zm0 0" fill="#21409a"/><path d="m249.195312 287.410156c-2.082031.136719-4.207031.222656-6.34375.3125 2.136719-.089844 4.261719-.1875 6.34375-.3125zm0 0" fill="#21409a"/><path d="m299.257812 277.082031-1.398437.613281zm0 0" fill="#2b3990"/><path d="m177.179688 281.320312c-.976563-.277343-1.921876-.558593-2.847657-.855468.925781.289062 1.871094.578125 2.847657.855468zm0 0" fill="#21409a"/><path d="m272.144531 284.753906c-1.734375.304688-3.519531.574219-5.324219.839844 1.804688-.273438 3.589844-.542969 5.324219-.839844zm0 0" fill="#21409a"/><path d="m183.578125 282.960938c-1.3125-.304688-2.589844-.617188-3.839844-.945313 1.25.335937 2.527344.640625 3.839844.945313zm0 0" fill="#21409a"/><path d="m197.792969 285.554688c-1.804688-.265626-3.589844-.539063-5.328125-.839844 1.738281.335937 3.523437.605468 5.328125.839844zm0 0" fill="#21409a"/><path d="m190.480469 284.386719c-1.597657-.296875-3.199219-.601563-4.6875-.929688 1.519531.328125 3.089843.632813 4.6875.929688zm0 0" fill="#21409a"/><path d="m264.929688 285.855469c-1.878907.25-3.824219.472656-5.785157.679687 1.96875-.207031 3.898438-.433594 5.785157-.679687zm0 0" fill="#21409a"/><path d="m310.753906 268.648438c-.175781.265624-.40625.511718-.609375.800781.203125-.289063.433594-.535157.609375-.800781zm0 0" fill="#2b3990"/><path d="m153.035156 267.03125c-.097656-.238281-.25-.460938-.328125-.703125.078125.242187.230469.464844.328125.703125zm0 0" fill="#00aeef"/><path d="m171.296875 279.464844c-.511719-.175782-1.007813-.367188-1.503906-.550782.496093.183594.992187.375 1.503906.550782zm0 0" fill="#21409a"/><path d="m284.875 282.015625c-1.25.328125-2.527344.640625-3.839844.945313 1.3125-.304688 2.589844-.609376 3.839844-.945313zm0 0" fill="#21409a"/><path d="m278.820312 283.457031c-1.523437.328125-3.089843.632813-4.691406.929688 1.601563-.296875 3.167969-.601563 4.691406-.929688zm0 0" fill="#21409a"/></svg>