<svg xmlns="http://www.w3.org/2000/svg" width="1980" height="400"><defs><filter id="dropshadow"><feGaussianBlur in="SourceAlpha" stdDeviation="4" result="blur"></feGaussianBlur><feOffset in="blur" dx="2" dy="2" result="offsetBlur"></feOffset><feMerge><feMergeNode in="offsetBlur"></feMergeNode><feMergeNode in="SourceGraphic"></feMergeNode></feMerge></filter></defs><rect fill="#4682b4" x="50" y="299.8076466392291" width="85" class="bar" height="50.1923533607709"></rect><rect fill="#4682b4" x="150" y="285.20167181124475" width="85" class="bar" height="64.79832818875522"></rect><rect fill="#4682b4" x="250" y="266.34535830831703" width="85" class="bar" height="83.654641691683"></rect><rect fill="#4682b4" x="350" y="242.00185757603725" width="85" class="bar" height="107.99814242396276"></rect><rect fill="#4682b4" x="450" y="210.57439813066406" width="85" class="bar" height="139.42560186933594"></rect><rect fill="#4682b4" x="550" y="170.0015479866873" width="85" class="bar" height="179.9984520133127"></rect><rect fill="#4682b4" x="650" y="117.62199845081332" width="85" class="bar" height="232.37800154918668"></rect><rect fill="#4682b4" x="750" y="50" width="85" class="bar" height="300"></rect><text dominant-baseline="text-before-edge" text-anchor="middle" fill="#000000" x="92.5" y="355" style="font-family:Verdana">2021</text><text dominant-baseline="text-before-edge" text-anchor="middle" fill="#000000" x="192.5" y="355" style="font-family:Verdana">2022</text><text dominant-baseline="text-before-edge" text-anchor="middle" fill="#000000" x="292.5" y="355" style="font-family:Verdana">2023</text><text dominant-baseline="text-before-edge" text-anchor="middle" fill="#000000" x="392.5" y="355" style="font-family:Verdana">2024</text><text dominant-baseline="text-before-edge" text-anchor="middle" fill="#000000" x="492.5" y="355" style="font-family:Verdana">2025</text><text dominant-baseline="text-before-edge" text-anchor="middle" fill="#000000" x="592.5" y="355" style="font-family:Verdana">2026</text><text dominant-baseline="text-before-edge" text-anchor="middle" fill="#000000" x="692.5" y="355" style="font-family:Verdana">2027</text><text dominant-baseline="text-before-edge" text-anchor="middle" fill="#000000" x="792.5" y="355" style="font-family:Verdana">2028</text><line stroke="#000000" stroke-width="2" x1="50" y1="350" x2="835" y2="350"></line><line stroke="#000" stroke-width="2" x1="950" y1="20" x2="350" y2="20"></line><line stroke="#000" stroke-width="2" x1="950" y1="20" x2="950" y2="30"></line><line stroke="#000" stroke-width="2" x1="350" y1="20" x2="350" y2="30"></line><text fill="#000000" x="630" y="15">CAGR: 29.1%</text><text x="92.5" y="294.8076466392291">235.20</text><text x="192.5" y="280.20167181124475"></text><text x="292.5" y="261.34535830831703"></text><text x="392.5" y="237.00185757603725">506.08</text><text x="492.5" y="205.57439813066406">653.34</text><text x="592.5" y="165.0015479866873"></text><text x="692.5" y="112.62199845081332"></text><text x="792.5" y="45">1088.90</text></svg>