<svg id="Capa_1" enable-background="new 0 0 511.058 511.058" height="512" viewBox="0 0 511.058 511.058" width="512" xmlns="http://www.w3.org/2000/svg"><g><path d="m255.529 21.055c-135.311 0-245.002 109.691-245.002 245.002 0 40.418 9.794 78.547 27.128 112.152l321.181 110.049c83.681-38.972 141.696-123.805 141.696-222.202-.001-135.31-109.692-245.001-245.003-245.001z" fill="#833faf"/><path d="m145.982 236.696-28.611 89.932 37.271 17.479 28.378-91.243z" fill="#fe3d97"/><path d="m174.658 257.7-24.491 76.981 45.125 26.659 32.422-103.64z" fill="#ffc242"/><path d="m290.642 255.058-76.247 17.202-23.261 73.117 27.752 15.962h32.952c6.789-22.737 20.589-48.062 48.645-55.121z" fill="#fef156"/><path d="m194.664 341.335-56.231-14.723c-24.402-6.39-50.184 1.187-67.675 19.361-3.591 3.731-7.376 7.116-11.228 10.179-8.217 6.532-15.541 13.951-21.875 22.057 16.064 31.144 38.613 58.396 65.855 79.981l162.825 50.202v-91.838z" fill="#ade9f7"/><path d="m263.887 507.638 9.015 2.78c30.524-2.14 59.51-9.854 85.933-22.16-11.428-40.115-32.149-71.269-50.3-92.586-17.575-20.64-41.136-35.293-67.36-42.159l-48.583-12.72 7.862 59.83z" fill="#e8f8fc"/><path d="m198.754 387.644c-45.661-4.098-86.206 26.828-95.248 70.544 8.635 6.841 17.748 13.103 27.269 18.749l66.2 14.167 26-83.332z" fill="#2a428b"/><path d="m197.691 387.55s7.359 7.187 6.968 15.079c-.237 4.791-3.114 9.242-8.547 13.226-.336.243-8.236 6.069-8.949 15.072-.444 5.617 2.019 11.154 7.322 16.457 10.101 10.102-9.099 32.88-18.79 43.39l64.202 19.774-.003.016c5.17.326 10.383.495 15.635.495 5.861 0 11.669-.22 17.427-.624 4.364-10.509 6.777-22.031 6.777-34.119 0-46.821-36.138-85.198-82.042-88.766z" fill="#1d2e79"/><path d="m196.696 416.666c-35.536-3.534-65.95 24.367-65.95 59.649 0 .207.013.411.016.619 11.578 6.865 23.778 12.784 36.481 17.694l4.8 1.48 38.754-20.554z" fill="#02c0fc"/><path d="m195.234 416.555c-9.699 8.217-11.587 19.994-.749 30.829l-5.76 42.057 11.402 15.327c12.915 2.989 26.163 4.924 39.771 5.781 6.767-9.707 10.747-21.502 10.747-34.232-.001-31.582-24.425-57.44-55.411-59.762z" fill="#64f9ea"/><path d="m190.695 446.341c-16.554 0-29.975 13.42-29.975 29.975 0 6.848 2.301 13.155 6.166 18.203 10.736 4.169 21.833 7.612 33.24 10.249 11.932-3.954 20.543-15.193 20.543-28.452.001-16.555-13.419-29.975-29.974-29.975z" fill="#1d8df2"/><path d="m282.769 209.589-19.149-33.191-11.211-33.956h-63.224l4.456 98.665 18.613 32.933c8.69 1.767 17.684 2.696 26.896 2.696 12.974 0 25.516-1.846 37.385-5.279 6.234-16.801 6.234-43.938 6.234-61.868z" fill="#1d8df2"/><path d="m222.559 229.93-17.917-151.49-74.612-14.284c-15.841 22.041-25.174 49.072-25.174 78.286 0 65.482 46.87 120.007 108.889 131.884 30.946-18.125 8.814-44.396 8.814-44.396z" fill="#27a6ff"/><path d="m139.868 85.045c7.078 5.137 16.898 6.114 29.195 2.904l20.122 54.493h63.224l-11.26-19.449 19.406-95.404c0-4.855-17.773-15.726-15.05-19.288-2.107-.098-4.225-.154-6.357-.154-45.505 0-85.718 22.637-110.008 57.26.409 3.455 2.292 13.516 10.728 19.638z" fill="#02c0fc"/><path d="m312.787 192.505c-16.025 23.525-43.026 38.975-73.637 38.975-49.174 0-89.038-39.863-89.038-89.038 0-21.079 7.33-40.444 19.574-55.694l92.684 30.291z" fill="#1d2e79"/><path d="m190.698 106.934c.641 15.131 10.246 24.078 27.417 19.682l43.927 27.239c.109 2.516 1.021 12.589 8.541 18.434 5.565 4.324 13.368 5.246 23.191 2.742 8.351-2.125 14.934 10.532 18.354 18.424 10.118-14.448 16.059-32.035 16.059-51.013 0-49.174-39.864-89.038-89.038-89.038-28.731 0-54.279 13.612-70.559 34.734-.338 11.644 6.752 20.119 22.108 18.796z" fill="#2a428b"/><path d="m305.642 165.107 37.433-135.458c-18.921-14.947-44.998-26.199-80.934-29.556-12.355-1.154-22.991 8.674-22.991 21.083v62.532l27.377 110.089v24.798c0 19.195 3.095 38.265 9.167 56.475 6.683 20.043 22.177 35.923 42.051 43.097l22.343 8.065c3.979 1.437 7.992 1.987 11.883 1.816l13.973-27.607z" fill="#ade9f7"/><path d="m287.002 174.813c.059 4.219.649 25.414 6.466 47.856 8.587 33.134 24.629 53.917 46.391 60.102 8.474 2.407 13.843 7.186 15.958 14.201 2.549 8.451.264 19.487-4.429 31.1 18.835-.468 34.945-18.301 30.001-39.185-1.346-5.689-1.359-11.586 2.118-15.793 1.938-2.344 3.082-5.258 2.872-8.292-.22-3.178-1.217-6.792-4.311-8.594-1.257-.732-1.294-2.531-.042-3.273 2.683-1.59 5.504-4.105 5.504-7.646v-8.54c0-3.181 2.528-5.746 5.706-5.883 4.808-.207 11.897-1.635 18.229-7.298 5.789-5.176 5.903-13.831.285-19.192l-27.547-26.285c-5.427-5.179-5.488-13.823-.134-19.077 4.227-4.149 6.99-9.486 7.999-15.225-.17-1.038 4.608-72.299-49.521-114.56-11.198 1.068-30.15 4.677-42.688 16.829-8.534 8.273-12.861 19.229-12.861 32.563v31.428l-10.46 28.39z" fill="#e8f8fc"/><path d="m350.957 172.416h-12.448c-8.243 0-14.987-6.744-14.987-14.987 0-8.243 6.744-14.987 14.987-14.987h12.448c8.243 0 14.987 6.744 14.987 14.987 0 8.243-6.744 14.987-14.987 14.987z" fill="#1d8df2"/><path d="m289.552 174.882c-10.671 16.545-29.25 27.509-50.402 27.509-33.109 0-59.949-26.84-59.949-59.949 0-13.781 4.662-26.467 12.479-36.592l66.962 3.257z" fill="#27a6ff"/><path d="m198.303 124.17c4.778 3.767 11.441 4.589 19.812 2.445l43.927 27.239c.109 2.516 1.021 12.589 8.541 18.434 4.593 3.569 10.714 4.813 18.233 3.734 6.49-9.58 10.283-21.137 10.283-33.581 0-33.109-26.84-59.949-59.949-59.949-19.907 0-37.537 9.711-48.441 24.645.165 3.315 1.214 12.006 7.594 17.033z" fill="#02c0fc"/><circle cx="239.15" cy="142.442" fill="#64f9ea" r="29.975"/></g></svg>