<svg id="Capa_1" enable-background="new 0 0 512 512" height="512" viewBox="0 0 512 512" width="512" xmlns="http://www.w3.org/2000/svg" xmlns:xlink="http://www.w3.org/1999/xlink"><linearGradient id="SVGID_1_" gradientUnits="userSpaceOnUse" x1="256" x2="256" y1="512" y2="0"><stop offset="0" stop-color="#5558ff"/><stop offset="1" stop-color="#00c0ff"/></linearGradient><linearGradient id="SVGID_2_" gradientUnits="userSpaceOnUse" x1="256" x2="256" y1="421" y2="91"><stop offset="0" stop-color="#addcff"/><stop offset=".5028" stop-color="#eaf6ff"/><stop offset="1" stop-color="#eaf6ff"/></linearGradient><g><g><g><path d="m256 512c-42.026 0-84.303-11.322-122.944-32.837-24.746 20.986-56.243 32.837-88.056 32.837h-30c-8.284 0-15-6.716-15-15s6.716-15 15-15c24.935 0 46-21.065 46-46v-16.05c-39.381-46.692-61-104.686-61-163.95 0-68.113 26.702-132.327 75.188-180.812 48.486-48.486 112.699-75.188 180.812-75.188s132.326 26.702 180.812 75.188c48.486 48.485 75.188 112.699 75.188 180.812s-26.702 132.327-75.188 180.812c-48.486 48.486-112.699 75.188-180.812 75.188z" fill="url(#SVGID_1_)"/></g></g><g><g><path d="m286 211h-60c-8.284 0-15 6.716-15 15v180c0 8.284 6.716 15 15 15h60c8.284 0 15-6.716 15-15v-180c0-8.284-6.716-15-15-15zm-30-30c24.813 0 45-20.187 45-45s-20.187-45-45-45-45 20.187-45 45 20.187 45 45 45z" fill="url(#SVGID_2_)"/></g></g></g></svg>