<svg id="Layer_1" enable-background="new 0 0 512 512" viewBox="0 0 512 512" xmlns="http://www.w3.org/2000/svg" xmlns:xlink="http://www.w3.org/1999/xlink"><linearGradient id="lg1"><stop offset="0" stop-color="#26f09b"/><stop offset="1" stop-color="#05a0fa"/></linearGradient><linearGradient id="SVGID_1_" gradientTransform="matrix(1 0 0 -1 0 514.13)" gradientUnits="userSpaceOnUse" x1="255.991" x2="255.991" xlink:href="#lg1" y1="512.655" y2="5.465"/><linearGradient id="SVGID_00000163068453835664940490000001305455828110666927_" gradientTransform="matrix(1 0 0 -1 0 514.13)" gradientUnits="userSpaceOnUse" x1="315.445" x2="315.445" xlink:href="#lg1" y1="512.655" y2="5.465"/><g id="Layer_2_00000142859436617116995270000006171049473697231289_"><g id="cart_check"><path d="m427 318.8h.5c11 0 20.7-7.1 24.2-17.5l59-178.1c4.4-13.4-2.8-27.8-16.2-32.2-2.6-.9-5.3-1.3-8-1.3h-93.8l-66.4 66.4c-16.7 16.7-43.8 16.7-60.5 0l-52.3-52.3c-4-4-7.2-8.8-9.4-14.1h-61.9l-17.8-57.1c-3.4-10.5-13.2-17.8-24.4-17.8h-74.5c-14.1 0-25.5 11.4-25.5 25.5s11.4 25.5 25.5 25.5h55.8l17.7 56.8c0 .2.1.3.1.5l51.5 164.8-40.3 106.6c-5 13.2 1.6 27.9 14.8 32.9 2.9 1.1 6 1.7 9 1.7h48.1v48.9c0 13.8 11.2 25 25 25s25-11.2 25-25v-48.9h117.2v48.9c0 13.8 11.2 25 25 25s25-11.2 25-25v-48.9h35.8c14.1 0 25.5-11.4 25.5-25.5s-11.4-25.5-25.5-25.5h-264.1l24-63.5z" fill="url(#SVGID_1_)"/><path d="m277.9 144.1c10 10 26.3 10 36.3 0l91.2-91.2c10-10 10-26.3 0-36.3-10-10-26.3-10-36.3 0l-73 73-34.2-34.1c-10-10-26.3-10-36.3 0-10 10-10 26.3 0 36.3z" fill="url(#SVGID_00000163068453835664940490000001305455828110666927_)"/></g></g></svg>