<svg id="Gps" enable-background="new 0 0 64 64" height="512" viewBox="0 0 64 64" width="512" xmlns="http://www.w3.org/2000/svg"><g><path d="m54.739 64h-45.478c-.491 0-.818-.506-.617-.953l9.676-21.581c.109-.243.351-.4.617-.4h26.127c.267 0 .508.157.617.4l9.674 21.581c.202.447-.125.953-.616.953z" fill="#28d1b0"/><path d="m48.373 47.462 1.807 4.03h-16.755l-18.832 12.508h-5.325c-.491 0-.818-.506-.617-.953l1.779-3.968 19.344-11.079c.633-.363 1.436-.538 2.231-.538z" fill="#ffe169"/><path d="m54.742 63.993h-4.723c.487 0 .812-.501.609-.947l-9.675-21.584c-.108-.244-.352-.392-.609-.392h4.723c.271 0 .501.149.609.392l9.675 21.584c.203.447-.122.947-.609.947z" opacity=".09"/><path d="m34.326.147c-.755-.072-1.546-.144-2.337-.144s-1.546.072-2.301.144c-12.799 1.474-19.306 16.359-12.871 27.504l14 24.284c.521.903 1.824.903 2.345 0l14-24.284c6.471-11.145-.037-25.994-12.836-27.504zm-.595 23.387c-4.755 1.28-9.013-2.884-7.887-7.685.538-2.294 2.295-4.051 4.59-4.589 4.802-1.126 8.966 3.134 7.684 7.889-.569 2.11-2.276 3.817-4.387 4.385z" fill="#f43d76"/><path d="m34.322.149c-.758-.068-1.543-.149-2.327-.149-.663 0-1.299.054-1.922.108.122.013.257.027.379.041 12.801 1.502 19.31 16.36 12.828 27.497l-13.234 22.964.771 1.326c.514.907 1.827.907 2.341 0l14.006-24.29c6.468-11.137-.04-25.995-12.842-27.497z" opacity=".09"/></g></svg>