<svg id="Layer_1" height="512" viewBox="0 0 32 32" width="512" xmlns="http://www.w3.org/2000/svg" xmlns:xlink="http://www.w3.org/1999/xlink" data-name="Layer 1"><linearGradient id="linear-gradient" gradientUnits="userSpaceOnUse" x1="5.03" x2="26.97" y1="23.61" y2="8.38"><stop offset=".01" stop-color="#0056e0"/><stop offset="1" stop-color="#00e5b8"/></linearGradient><path d="m19.29 16a3.29 3.29 0 1 1 -3.29-3.32 3.29 3.29 0 0 1 3.29 3.32zm12.56.52s-5.28 9.32-15.85 9.32-15.85-9.32-15.85-9.32a1 1 0 0 1 0-1s5.27-9.36 15.85-9.36 15.85 9.31 15.85 9.31a1 1 0 0 1 0 1.05zm-10.43-.52a5.42 5.42 0 1 0 -5.42 5.45 5.46 5.46 0 0 0 5.42-5.45z" fill="url(#linear-gradient)"/></svg>