<svg id="Layer_1" enable-background="new 0 0 512.001 512.001" height="512" viewBox="0 0 512.001 512.001" width="512" xmlns="http://www.w3.org/2000/svg"><g><g><g fill="#2eabff"><path d="m168.353 371.194c-1.635 0-3.283-.515-4.684-1.583l-63.22-48.141c-3.401-2.591-4.06-7.448-1.469-10.85 2.59-3.401 7.448-4.062 10.85-1.469l63.22 48.141c3.401 2.591 4.059 7.448 1.469 10.85-1.524 2.001-3.831 3.052-6.166 3.052z"/><path d="m34.383 389.907c-1.568 0-3.148-.475-4.517-1.46-3.47-2.498-4.258-7.336-1.76-10.807l48.849-67.864c2.498-3.47 7.337-4.255 10.806-1.76 3.47 2.498 4.258 7.336 1.76 10.806l-48.849 67.864c-1.512 2.102-3.884 3.221-6.289 3.221z"/><path d="m447.679 387.298c-1.25 0-2.517-.302-3.693-.943-3.756-2.042-5.144-6.744-3.101-10.5l36.625-67.329c2.042-3.756 6.745-5.146 10.5-3.101 3.756 2.042 5.144 6.744 3.101 10.5l-36.625 67.329c-1.403 2.582-4.062 4.044-6.807 4.044z"/><path d="m434.056 391.36c-1.869 0-3.743-.672-5.23-2.035l-48.257-44.236c-3.151-2.889-3.364-7.786-.475-10.939 2.889-3.15 7.786-3.365 10.938-.475l48.257 44.236c3.151 2.889 3.364 7.786.475 10.939-1.526 1.665-3.613 2.51-5.708 2.51z"/></g><path d="m400.907 176.628c-7.259-80.015-86.749-132.206-102.385-140.27-1.593-.821-2.616-2.412-2.766-4.198-1.211-14.362-14.118-20.97-30.344-27.566-32.871-6.595-57.225-4.144-57.225-4.144s50.026 10.818 50.026 69.092c0 0 94.655 34.631 102.698 123.283 8.042 88.652-76.059 178.369-7.704 241.457 0 0 6.816-9.767 16.382-26.526.889-61.957 39.053-145.866 31.318-231.128z" fill="#2b4d66"/><g><path d="m265.411 4.594c10.849 8.802 19.022 20.115 20.233 34.477.151 1.785 1.174 3.376 2.766 4.198 15.636 8.063 96.237 53.343 103.496 133.359 7.735 85.262-38.329 164.059-22.32 231.129 31.01-54.333 90.926-182.189 41.237-289.25-58.158-125.31-187.862-119.159-201.456-118.154 5.229-.384 27.4-1.506 56.044 4.241z" fill="#365e7d"/><g fill="#dab9d8"><path d="m208.872.391c.117-.009.246-.02.392-.03-.149.01-.275.02-.392.03z"/><path d="m208.267.442c.021-.002.061-.005.091-.008-.037.003-.068.006-.091.008z"/><path d="m208.503.421c.069-.006.153-.013.244-.021-.093.008-.174.015-.244.021z"/></g></g><path d="m248.039 225.274s-17.299 16.052-36.537 18.137c-19.239 2.084-33.728-15.399-45.167-12.92-11.439 2.478-29.078 24.53-44.846 23.91-15.166-.596-46.933-25.733-36.014-53.869s36.917-34.389 49.396-57.836 32.238-67.736 73.314-82.325v-59.921s59.026 1.818 59.026 60.092c0 0 94.655 34.632 102.697 123.283 8.043 88.652-52.096 164.937-16.703 250.457l-115.007 9-113.893-9s-4.94-45.318 35.693-77.197c69.769-54.739 88.041-131.811 88.041-131.811z" fill="#4a80aa"/><path d="m107.764 442.842c0 10.384 8.752 17.559 15.188 17.559h230.493c6.436 0 15.188-8.426 15.188-17.559-3.13-5.127-8.752-8.559-15.188-8.559h-230.493c-6.437 0-12.058 3.433-15.188 8.559z" fill="#407093"/><path d="m23.611 402.925c9.748 0 21.718-8.505 21.718-23.369-3.604-8.448-11.97-14.369-21.718-14.369s-18.115 5.921-21.718 14.369c-.001 18.007 11.97 23.369 21.718 23.369z" fill="#ff4755"/><path d="m353.444 451.401h-230.492c-6.436 0-12.058-3.433-15.188-8.559-1.654 2.709-2.624 5.882-2.624 9.29 0 9.858 7.975 17.85 17.812 17.85l115.246 9 115.246-9c9.837 0 17.812-7.991 17.812-17.85 0-3.408-.97-6.581-2.624-9.29-3.129 5.127-8.751 8.559-15.188 8.559z" fill="#365e7d"/><path d="m391.907 493.42v-2.451c0-11.591-9.397-20.988-20.988-20.988h-265.442c-11.591 0-20.988 9.396-20.988 20.987v2.451l153.709 9z" fill="#365e7d"/><path d="m89.651 512.001h297.095c2.851 0 5.161-2.311 5.161-5.161v-13.42h-307.417v13.419c0 2.851 2.31 5.162 5.161 5.162z" fill="#2b4d66"/><path d="m23.611 393.925c-9.748 0-18.115-5.921-21.718-14.369-1.217 2.852-1.893 5.992-1.893 9.29 0 13.067 10.571 23.66 23.61 23.66 13.04 0 23.61-10.593 23.61-23.66 0-3.298-.675-6.438-1.892-9.29-3.603 8.448-11.969 14.369-21.717 14.369z" fill="#fc2b3a"/><path d="m95.869 319.121c9.748 0 21.718-8.505 21.718-23.369-3.604-8.448-11.97-14.369-21.718-14.369s-18.115 5.921-21.718 14.369c-.001 18.008 11.97 23.369 21.718 23.369z" fill="#ff4755"/><path d="m95.869 310.122c-9.748 0-18.115-5.921-21.718-14.369-1.217 2.852-1.892 5.992-1.892 9.29 0 13.067 10.57 23.66 23.61 23.66s23.61-10.593 23.61-23.66c0-3.298-.675-6.438-1.892-9.29-3.604 8.447-11.97 14.369-21.718 14.369z" fill="#fc2b3a"/><path d="m441.17 408.82c9.748 0 21.718-8.506 21.718-23.369-3.604-8.448-11.97-14.369-21.718-14.369s-18.115 5.921-21.718 14.369c-.001 18.007 11.97 23.369 21.718 23.369z" fill="#ff4755"/><path d="m441.17 399.82c-9.748 0-18.115-5.921-21.718-14.369-1.217 2.852-1.892 5.992-1.892 9.29 0 13.067 10.571 23.66 23.61 23.66 13.04 0 23.611-10.593 23.611-23.66 0-3.298-.675-6.438-1.892-9.29-3.605 8.448-11.971 14.369-21.719 14.369z" fill="#fc2b3a"/><path d="m488.39 311.972c9.748 0 21.718-8.505 21.718-23.369-3.603-8.448-11.97-14.369-21.718-14.369s-18.115 5.921-21.718 14.369c0 18.007 11.97 23.369 21.718 23.369z" fill="#ff4755"/><path d="m488.39 302.972c-9.748 0-18.115-5.921-21.718-14.369-1.217 2.852-1.892 5.992-1.892 9.29 0 13.067 10.57 23.66 23.61 23.66s23.611-10.593 23.611-23.66c0-3.298-.676-6.438-1.892-9.29-3.604 8.448-11.971 14.369-21.719 14.369z" fill="#fc2b3a"/></g></g></svg>