<svg id="Capa_1" enable-background="new 0 0 512 512" height="512" viewBox="0 0 512 512" width="512" xmlns="http://www.w3.org/2000/svg"><g><path d="m151 181.015-75 89.985h30v121l30 30h90v-151z" fill="#ffb64c"/><path d="m106 392-106 120h121l45-30 29.375-58.75.625-31.25z" fill="#ff9100"/><path d="m361 181.015-75 89.985v151h96.562l23.438-30v-121h30z" fill="#9266d8"/><path d="m256 0-105 90h45v332h60 60v-332h45z" fill="#ff7666"/><path d="m316 90h45l-105-90v422h60z" fill="#ff4547"/><path d="m406 392h-90l-1.625 26.751 37.374 74.748 39.251 18.501h121z" fill="#5858a0"/><g><path d="m316 392h-60-60l-75 120h135 135z" fill="#ff4547"/><path d="m316 392h-60v120h135z" fill="#e00016"/></g></g></svg>