<svg id="_x33_0" enable-background="new 0 0 64 64" height="512" viewBox="0 0 64 64" width="512" xmlns="http://www.w3.org/2000/svg"><g><g><g><path d="m54 12v12c0 .55-.45 1-1 1h-2c-.55 0-1-.45-1-1v-1-10-1c0-.55.45-1 1-1h2c.55 0 1 .45 1 1z" fill="#aab2bd"/></g><g><path d="m42 13.8-8 .8-3.1.31c-.51.05-.9.48-.9.99v5.1l4 .4 2 .2 6 .6 8 .8v-10z" fill="#ccd1d9"/></g><g><path d="m23.52 7.15c2.31.73 4.23 2.37 5.32 4.55l.16.31h-5-6-2c-1.1 0-2.1.45-2.83 1.17-.72.72-1.17 1.72-1.17 2.83-1.1 0-2 .9-2 2v.17c0 .53.21 1.04.59 1.42l1.41 1.41v5c-4.79-1.66-8-6.18-8-11.25 0-3.52 1.43-6.71 3.74-9.02 2.3-2.31 5.5-3.74 9.02-3.74h4.25c3.15.01 6.1 1.49 7.99 4.01h-.39c-1.77 0-3.51.4-5.09 1.14z" fill="#656d78"/></g><g><path d="m56 29 6 9h-4v24h-4v-24h-4z" fill="#ffeaa7"/></g><g><path d="m44 37 6 9h-4v16h-4v-16h-4z" fill="#ffeaa7"/></g><g><path d="m32 45 6 9h-4v8h-4v-8h-4z" fill="#ffeaa7"/></g><g><path d="m13.67 48.26-3.89 3.12c-.5.4-1.13.62-1.78.62s-1.28-.22-1.78-.62l-3.89-3.12c.18-.16.41-.26.67-.26h3 6 1c.26 0 .49.1.67.26z" fill="#cf9e76"/></g><g><path d="m14 50v8h-2-9c-.55 0-1-.45-1-1v-8c0-.29.13-.56.33-.74l3.89 3.12c.5.4 1.13.62 1.78.62s1.28-.22 1.78-.62l3.89-3.12c.2.18.33.45.33.74z" fill="#dfb28b"/></g><g><path d="m26 61v1h-6v-1c0-1.66-1.34-3-3-3h1 4 1c1.66 0 3 1.34 3 3z" fill="#d3a06c"/></g><g><path d="m20 61v1h-7c-.55 0-1-.45-1-1v-3h2 3c1.66 0 3 1.34 3 3z" fill="#d3a06c"/></g><g><path d="m36 21.6v1.27c0 8.47-6.14 15.67-14.44 17.05h-.01c-.18-.68-.42-1.33-.71-1.96-.44-.95-1-1.84-1.66-2.64-.36-.44-.76-.86-1.18-1.25v-2.07h1c6.08 0 11-4.92 11-11l4 .4z" fill="#4fc1e9"/></g><g><path d="m24 24.01v.36c0 2.01-1.63 3.64-3.64 3.64-.24 0-.48-.02-.71-.07l-1.65-.33v4.39 2.07c-1.64-1.51-3.69-2.6-6-3.06v-5-5l-1.41-1.41c-.38-.38-.59-.89-.59-1.42v-.17c0-1.1.9-2 2-2 0-1.11.45-2.11 1.17-2.83.73-.72 1.73-1.17 2.83-1.17h2 6v1.17c0 1.81.72 3.55 2 4.83l-2 2z" fill="#f0d0b4"/></g><g><path d="m18 50h4v8h-4z" fill="#969faa"/></g><g><path d="m12 48h-6v-7.3c0-4.1 2.32-7.86 6-9.69l1 4.99 7.84 1.96c.29.63.53 1.28.71 1.96.3 1.05.45 2.15.45 3.29v6.79h-4-4v-1c0-.29-.13-.56-.33-.74-.18-.16-.41-.26-.67-.26z" fill="#4fc1e9"/></g><g><path d="m20.84 37.96-7.84-1.96-1-4.99c2.31.46 4.36 1.55 6 3.06.42.39.82.81 1.18 1.25.66.8 1.22 1.69 1.66 2.64z" fill="#3bafda"/></g><g><path d="m18 50v8h-1-3v-8z" fill="#969faa"/></g></g><g><path d="m18.293 15.707 1.293 1.293-1.293 1.293 1.414 1.414 2.707-2.707-2.707-2.707z"/><path d="m56 27.197-7.869 11.803h4.869v22h-6v-14h4.869l-7.869-11.803-7.869 11.803h4.869v14h-6v-6h4.869l-7.869-11.803-7.869 11.803h4.869v6h-2c0-2.206-1.794-4-4-4v-13.792c0-.86-.089-1.703-.247-2.524 8.313-1.869 14.247-9.19 14.247-17.813v-.166l12 1.2v.095c0 1.103.897 2 2 2h2c1.103 0 2-.897 2-2v-12c0-1.103-.897-2-2-2h-2c-1.103 0-2 .897-2 2v.095l-18.198 1.82c-1.028.102-1.802.958-1.802 1.99v5.095c0 5.514-4.486 10-10 10v-2.17l.451.09c.3.06.606.09.909.09 2.558 0 4.64-2.082 4.64-4.64v-3.946l2.414-2.414-.707-.707c-1.101-1.101-1.707-2.564-1.707-4.121v-.172h5.619l-.881-1.759c-.815-1.63-2.077-2.991-3.601-3.957.804-.186 1.63-.284 2.468-.284h2.395l-1.2-1.6c-2.063-2.75-5.346-4.398-8.782-4.409-.406-.002-2.094-.001-4.262 0-7.585.004-13.756 6.176-13.756 13.759 0 5.249 3.189 9.951 8 11.931v3.725c-3.715 2.099-6 5.983-6 10.288v6.296h-2c-1.103 0-2 .897-2 2v8c0 1.103.897 2 2 2h8v2c0 1.103.897 2 2 2h46v-24h4.869zm-5-15.197h2l.001 12h-2.001zm-32 45v-6h2v6zm-7.851-8-1.992 1.594c-.654.523-1.658.523-2.313 0l-1.993-1.594zm3.851 2h2v6h-2zm3.733-14.597-4.876-1.219-.557-2.778c2.207.765 4.083 2.18 5.433 3.997zm16.267-15.908v-4.99l6-.6v6.19zm14 1.4-6-.6v-6.59l6-.6zm-16-6.19v4.59l-2-.2v-4.19zm-2.056 6.394 4.056.406v.366c0 7.708-5.324 14.247-12.769 15.882-.682-1.927-1.795-3.662-3.231-5.086v-.667c6.246 0 11.387-4.798 11.944-10.901zm-6.314-4.133-1.63 1.63v3.414h-2c-1.103 0-2-.897-2-2h-2c0 2.206 1.794 4 4 4h1.913c-.339 1.305-1.674 2.224-3.07 1.949l-4.646-.929-.393 1.961 2.196.439v3.607c-1.205-.806-2.549-1.424-4-1.809v-9.632l-1.707-1.707c-.189-.189-.293-.44-.293-.707v-.172c0-.551.449-1 1-1h1v-1c0-1.654 1.346-3 3-3h7v.171c0 1.755.573 3.421 1.63 4.785zm-19.63-3.206c0-6.481 5.274-11.756 11.757-11.759 2.164-.001 3.849-.001 4.254 0 2.129.007 4.187.782 5.793 2.134-1.91.268-3.736.961-5.359 2.043l1.109 1.664c.327-.218.666-.41 1.011-.591 1.473.543 2.766 1.499 3.69 2.758h-9.255c-.551 0-1-.449-1-1s.449-1 1-1h1v-2h-1c-1.654 0-3 1.346-3 3 0 .379.078.738.207 1.072-2.101.338-3.772 1.981-4.134 4.075-1.202.392-2.073 1.523-2.073 2.854v.171c0 .801.312 1.555.879 2.122l1.121 1.121v3.071c-3.637-1.834-6-5.582-6-9.735zm2 25.944c0-3.3 1.625-6.292 4.298-8.108l.846 4.22 7.961 1.99c.572 1.365.895 2.853.895 4.402v5.792h-6c0-1.103-.897-2-2-2v-8h-2v8h-4zm-4 9.377 2.595 2.076c.68.543 1.534.843 2.405.843s1.725-.3 2.405-.844l2.595-2.075v6.919h-10zm10 8.919h4c1.103 0 2 .897 2 2h-6zm7.444 0h2.556c1.103 0 2 .897 2 2h-4c0-.732-.212-1.409-.556-2zm19.425-14 4.131-6.197 4.131 6.197h-3.131v16h-2v-16zm-12 8 4.131-6.197 4.131 6.197h-3.131v8h-2v-8zm29.131-16v24h-2v-24h-3.131l4.131-6.197 4.131 6.197z"/></g></g></svg>