<?xml version="1.0"?>
<svg xmlns="http://www.w3.org/2000/svg" viewBox="0 0 512 512" width="512" height="512"><g id="filled_outline" data-name="filled outline"><path d="M161.41174,192,184,256h25.37258a16,16,0,0,0,11.31371-4.68629L264,208V192Z" style="fill:#d14521"/><path d="M384,128v16a31.98308,31.98308,0,0,1-32,32h-8a32.004,32.004,0,0,1-32,32H184a31.95855,31.95855,0,0,1-32-32V141.25a31.99516,31.99516,0,0,1,9.37-22.62l17.66-17.66A17.06461,17.06461,0,0,1,184,97.54V96a31.97287,31.97287,0,0,1,32-32H320a63.77445,63.77445,0,0,1,34.57007,10.12A64.79112,64.79112,0,0,1,366.88,84.43,63.731,63.731,0,0,1,383.51,120,65.9505,65.9505,0,0,1,384,128Z" style="fill:#ef5e3b"/><path d="M343.02954,376h-.00012a16.97091,16.97091,0,0,0-11.99951,4.97009l15.99951-15.99963A16.97006,16.97006,0,0,0,352,352.97058v-.00012A16.97042,16.97042,0,0,0,335.02954,336h-.00012a16.97068,16.97068,0,0,0-11.99963,4.97021l15.99963-15.99975A16.97006,16.97006,0,0,0,344,312.97058v-.00012A16.97042,16.97042,0,0,0,327.02954,296h-.00012a16.97094,16.97094,0,0,0-12,4.97046h0l16-16A16.97006,16.97006,0,0,0,336,272.97058v-.00012A16.97042,16.97042,0,0,0,319.02954,256h-.00012a16.97094,16.97094,0,0,0-12,4.97046L224,344l-5.89807-41.2865A17.13709,17.13709,0,0,0,184,305.137V352l8,64v72h88V456l49.88037-41.56689A16.87832,16.87832,0,0,0,336.97046,416h.00012a16.97055,16.97055,0,0,0,12-4.97058l6.05884-6.059A16.97006,16.97006,0,0,0,360,392.97058v-.00012A16.97042,16.97042,0,0,0,343.02954,376Z" style="fill:#ffceb6"/><polygon points="115.429 75.429 144 64 115.429 52.571 104 24 92.571 52.571 64 64 92.571 75.429 104 104 115.429 75.429" style="fill:#ffc431"/><polygon points="459.429 219.429 488 208 459.429 196.571 448 168 436.571 196.571 408 208 436.571 219.429 448 248 459.429 219.429" style="fill:#ffc431"/><path d="M192,496h88a7.99977,7.99977,0,0,0,8-8V459.74707l43.60181-36.33459a24.93941,24.93941,0,0,0,23.02563-6.72644l6.0586-6.0586a24.9626,24.9626,0,0,0-7.54322-40.47949,24.9524,24.9524,0,0,0-8-40,24.9524,24.9524,0,0,0-8-40,24.96674,24.96674,0,0,0-35.77026-34.834L229.657,327.02954l-3.6355-25.44751A25.13707,25.13707,0,0,0,176,305.13721V352a7.93221,7.93221,0,0,0,.062.99219L184,416.49805V488A7.99977,7.99977,0,0,0,192,496ZM312.9707,384a8.97072,8.97072,0,0,1-6.34326-15.314l3.0293-3.0293,19.0293-19.0293A8.97072,8.97072,0,0,1,341.37256,359.314l-16,16-6.0586,6.0586A8.9123,8.9123,0,0,1,312.9707,384Zm36.40186,15.314-6.0586,6.0586A8.97072,8.97072,0,0,1,330.62744,392.686l6.0586-6.0586A8.97072,8.97072,0,0,1,349.37256,399.314ZM192,305.13721a9.13725,9.13725,0,0,1,18.18262-1.29248l5.898,41.28662a7.99679,7.99679,0,0,0,3.11963,5.26855A72.34587,72.34587,0,0,1,248,408h16a88.48117,88.48117,0,0,0-28.17236-64.51416l76.8584-76.8584A8.97072,8.97072,0,0,1,325.37256,279.314l-16,16-35.0293,35.0293,11.31348,11.31348,35.0293-35.0293A8.97072,8.97072,0,0,1,333.37256,319.314l-16,16-19.0293,19.0293-3.0293,3.0293a24.96605,24.96605,0,0,0,16.71,42.60351,24.83452,24.83452,0,0,0,5.33276,14.4795L274.87842,449.854A8.00149,8.00149,0,0,0,272,456v24H200V416a7.93221,7.93221,0,0,0-.062-.99219L192,351.502Z"/><path d="M392,144V128a72.08124,72.08124,0,0,0-72-72H216a40.04468,40.04468,0,0,0-39.87036,36.92834,25.33521,25.33521,0,0,0-2.75708,2.38562L155.71582,112.9707A39.73644,39.73644,0,0,0,144,141.25488V176a39.914,39.914,0,0,0,13.99451,30.3551l14.694,41.63269A24.03691,24.03691,0,0,0,195.32031,264h14.05225a23.843,23.843,0,0,0,16.9707-7.02979L267.31348,216H312a40.06761,40.06761,0,0,0,39.19507-32H352A40.04521,40.04521,0,0,0,392,144ZM216,72h40v8a7.99877,7.99877,0,0,0,2.34326,5.65674L272,99.31348V112H256a56.34833,56.34833,0,0,0-33.59961,11.2002A55.33213,55.33213,0,0,0,216,128.85309V112.9707A24.83449,24.83449,0,0,0,214.32678,104H224a7.99877,7.99877,0,0,0,5.65674-2.34326l16-16L234.34326,74.34326,220.68652,88h-27.3103A24.03824,24.03824,0,0,1,216,72Zm-48.9707,52.28418L184.686,106.62744A8.97072,8.97072,0,0,1,200,112.9707V200H184a24.03683,24.03683,0,0,1-23.70056-20.22485L188.7998,158.3999l-9.5996-12.7998L160,160.00024V141.25488A23.84457,23.84457,0,0,1,167.0293,124.28418Zm48.00049,121.37256A7.94834,7.94834,0,0,1,209.37256,248H195.32031a8.01237,8.01237,0,0,1-7.54394-5.3374l-9.55982-27.08612A40.13494,40.13494,0,0,0,184,216h60.68652ZM312,200H216V184h32V168H216a40,40,0,0,1,40-40h40a39.94407,39.94407,0,0,1,39.16479,32H283.31348l-21.65674-21.65674-11.31348,11.31348,24,24A7.99877,7.99877,0,0,0,280,176h56A24.02687,24.02687,0,0,1,312,200Zm40-32a56.001,56.001,0,0,0-56-56h-8V96a7.99877,7.99877,0,0,0-2.34326-5.65674L272,76.68652V72h48a55.652,55.652,0,0,1,28.73145,7.955L340.68652,88H312v16h32a7.99877,7.99877,0,0,0,5.65674-2.34326l11.54-11.54A55.83272,55.83272,0,0,1,375.41943,120H352v16h24v8A24.0275,24.0275,0,0,1,352,168Z"/><polygon points="104 296 104 280 120 280 120 264 104 264 104 248 88 248 88 264 72 264 72 280 88 280 88 296 104 296"/><rect x="56" y="184" width="24" height="16"/><path d="M146.97119,71.42773a7.99991,7.99991,0,0,0,0-14.85546L121.583,46.417,111.42773,21.02881a7.99991,7.99991,0,0,0-14.85546,0L86.417,46.417,61.02881,56.57227a7.99991,7.99991,0,0,0,0,14.85546L86.417,81.583l10.15528,25.38818a7.99991,7.99991,0,0,0,14.85546,0L121.583,81.583ZM108.001,72.45752,104,82.45947,99.999,72.45752A7.9992,7.9992,0,0,0,95.54248,68.001L85.54053,64l10.00195-4.001A7.9992,7.9992,0,0,0,99.999,55.54248L104,45.54053l4.001,10.002a7.9992,7.9992,0,0,0,4.45654,4.45654L122.45947,64l-10.00195,4.001A7.9992,7.9992,0,0,0,108.001,72.45752Z"/><path d="M490.97119,200.57227,465.583,190.417l-10.15528-25.38818a7.99991,7.99991,0,0,0-14.85546,0L430.417,190.417l-25.38818,10.15528a7.99991,7.99991,0,0,0,0,14.85546L430.417,225.583l10.15528,25.38818a7.99991,7.99991,0,0,0,14.85546,0L465.583,225.583l25.38818-10.15528a7.99991,7.99991,0,0,0,0-14.85546ZM456.45752,212.001a7.9992,7.9992,0,0,0-4.45654,4.45654L448,226.45947l-4.001-10.002a7.9992,7.9992,0,0,0-4.45654-4.45654L429.54053,208l10.002-4.001a7.9992,7.9992,0,0,0,4.45654-4.45654l4.001-10.002,4.001,10.002a7.9992,7.9992,0,0,0,4.45654,4.45654l10.002,4.001Z"/><rect x="472" y="104" width="24" height="16"/><rect x="16" y="136" width="24" height="16"/><polygon points="416 64 416 48 432 48 432 32 416 32 416 16 400 16 400 32 384 32 384 48 400 48 400 64 416 64"/></g></svg>
