<svg id="Capa_1" enable-background="new 0 0 512.003 512.003" height="512" viewBox="0 0 512.003 512.003" width="512" xmlns="http://www.w3.org/2000/svg"><g><g><path d="m500.499 466.742h-489c-2.209 0-4-1.791-4-4v-451.242c0-2.209 1.791-4 4-4h489c2.209 0 4 1.791 4 4v451.242c0 2.209-1.791 4-4 4z" fill="#e2e8f5"/><path d="m310.441 364.67-14.87 30.01-38.685 8.866-40.485-8.866-13.07-30.33 11.79-2.61c8.87-1.96 15.19-9.83 15.19-18.91v-42.53h51.66v42.53c0 9.08 6.32 16.95 15.2 18.91z" fill="#c18e58"/><path d="m295.571 394.68-39.43 109.82-39.74-109.82z" fill="#f2f2f2"/><path d="m247.771 499.546-28.614 4.954h-88.226c-1.105 0-2-.895-2-2v-100.97c0-12.12 8.42-22.61 20.25-25.22l54.15-11.96 13.07 30.33z" fill="#76a0d4"/><path d="m379.347 406.464-1.694 92.612-17.292 5.424h-67.231l-27.288-6.083 29.73-103.737 14.87-30.01 34.22 7.56 17.463 5.81c11.829 2.61 17.222 16.304 17.222 28.424z" fill="#76a0d4"/><path d="m383.361 401.53v100.97c0 1.105-.895 2-2 2h-21v-107.47c0-10.95-6.32-20.63-15.7-24.8l18.44 4.08c11.83 2.61 20.26 13.1 20.26 25.22z" fill="#5e87ca"/><path d="m357.606 245.805c6.072-15.928 5.115-30.05-1.788-45.635l-11.739-26.504c-16.453-37.147-47.295-60.99-87.923-60.99-5.079 0-10.238-1.314-15.165-.586-34.491 5.094-64.329 27.482-78.722 59.991l-11.802 26.655c-6.903 15.591-7.365 33.277-1.286 49.207l.008.02c9.572 25.083 33.655 41.636 60.502 41.586l93.125-.175c26.061-4.745 45.255-18.558 54.79-43.569z" fill="#73788c"/><path d="m363.081 247.77c-9.53 25.01-33.5 41.55-60.27 41.6h-.56c13.88-7.44 25.03-20.03 30.83-35.89 6.07-16.59 5.61-35.01-1.29-51.25l-11.74-27.61c-14.43-33.92-44.49-57.28-79.06-62.53 4.97-.74 10.04-1.12 15.17-1.12 40.63 0 77.43 23.95 93.89 61.1l11.74 26.5c6.9 15.59 7.36 33.27 1.29 49.2z" fill="#5e6577"/><path d="m198.712 225.391 29.382-.179c20.486-.125 38.471-13.655 44.271-33.303h31.306c7.13 0 12.911 5.78 12.911 12.911v38.755c0 34.44-20.968 65.411-52.945 78.202-4.802 1.921-10.159 1.921-14.961 0-31.977-12.791-52.945-43.762-52.945-78.202v-15.183c0-1.651 1.332-2.991 2.981-3.001z" fill="#d19d6c"/><path d="m293.13 504.5 24.502-55.767c.373-.849.114-1.843-.627-2.401l-10.856-8.188c-.756-.571-1.009-1.594-.604-2.45l30.819-65.293-26.579-17.528c-6.927-4.568-16.288-.896-18.262 7.163l-35.38 144.464z" fill="#94bde5"/><path d="m219.157 504.5-24.502-55.767c-.373-.849-.114-1.843.627-2.401l10.856-8.188c.756-.571 1.009-1.594.604-2.45l-30.817-65.29 27.666-17.731c6.958-4.459 16.235-.715 18.149 7.324l34.403 144.503z" fill="#94bde5"/><circle cx="92.65" cy="313.484" fill="#fbd166" r="55.935"/><path d="m100.349 306.543c-2.167-.933-4.106-1.596-5.664-2.129-2.659-.909-3.8-1.345-4.386-1.995-.583-.646-.772-1.273-.595-1.97.154-.605.655-1.372 1.601-1.708 2.364-.838 5.136.408 5.929.809 3.694 1.871 8.208.392 10.079-3.305 1.87-3.695.391-8.208-3.305-10.078-1.045-.529-2.415-1.129-4.026-1.632v-2.018c0-4.143-3.358-7.5-7.5-7.5s-7.5 3.357-7.5 7.5v2.619c-4.875 2.179-8.5 6.434-9.817 11.626-1.417 5.587.037 11.309 3.989 15.695 3.25 3.609 7.025 4.9 10.677 6.15 1.452.496 2.953 1.01 4.592 1.715 2.676 1.15 2.898 3.067 2.614 4.473-.12.594-.907 3.557-4.604 3.581-3.568.059-5.416-.684-8.017-2.18-3.591-2.064-8.176-.829-10.241 2.764-2.064 3.591-.828 8.175 2.763 10.24 2.283 1.313 4.826 2.562 8.043 3.347v1.905c0 4.143 3.358 7.5 7.5 7.5s7.5-3.357 7.5-7.5v-2.55c5.94-2.398 10.424-7.553 11.756-14.131 1.819-8.985-2.757-17.516-11.388-21.228z" fill="#fce698"/><g fill="#ff976e"><path d="m428.227 221.499-39.967 52.024c-2.897 3.771-.209 9.227 4.547 9.227h18.326c.552 0 1 .448 1 1v52.088c0 .552.448 1 1 1h39.282c.552 0 1-.448 1-1v-52.088c0-.552.448-1 1-1h18.326c4.755 0 7.444-5.456 4.547-9.227l-39.967-52.024c-2.295-2.988-6.799-2.988-9.094 0z"/><path d="m413.067 364.439h39.414c.552 0 1 .448 1 1v25.62c0 .552-.448 1-1 1h-39.414c-.552 0-1-.448-1-1v-25.62c0-.552.448-1 1-1z"/><path d="m87.935 53.908-39.967 52.024c-2.897 3.771-.209 9.227 4.547 9.227h18.325c.552 0 1 .448 1 1v52.088c0 .552.448 1 1 1h39.282c.552 0 1-.448 1-1v-52.088c0-.552.448-1 1-1h18.326c4.755 0 7.444-5.456 4.547-9.227l-39.967-52.024c-2.295-2.988-6.798-2.988-9.093 0z"/><path d="m72.775 199.617h39.414c.552 0 1 .448 1 1v25.62c0 .552-.448 1-1 1h-39.414c-.552 0-1-.448-1-1v-25.62c0-.552.447-1 1-1z"/></g><g><path d="m402.322 140.032h-34.082c-1.105 0-2-.895-2-2v-49.414c0-1.105.895-2 2-2h34.082l13.731 26.707z" fill="#92c73d"/><path d="m438.404 140.032h-36.082v-75.784c0-1.105.895-2 2-2h34.082l9.837 48.209z" fill="#a4d64d"/><path d="m472.485 140.032h-34.082v-100.154c0-1.105.895-2 2-2h32.082c1.105 0 2 .895 2 2v98.155c0 1.104-.895 1.999-2 1.999z" fill="#b7e261"/></g></g><g><path d="m504.501 223.43c-4.142 0-7.5 3.357-7.5 7.5v228.31h-106.14v-57.709c0-15.512-10.994-29.2-26.141-32.546l-32.543-7.19-16.736-12.534c-5.506-4.124-12.671-5.232-19.166-2.961-1.84.643-3.547 1.539-5.097 2.634-1.09-1.814-1.704-3.907-1.704-6.11v-27.428c6.807-5.386 12.759-11.674 17.723-18.658 28.251-1.745 52.745-19.674 62.893-46.301 3.139-8.242 4.731-16.892 4.731-25.708 0-10.114-2.076-19.937-6.172-29.198l-11.741-26.5c-17.646-39.828-57.191-65.562-100.747-65.562-21.384 0-42.166 6.167-60.102 17.835-4.81 3.131-9.393 6.652-13.621 10.466-3.076 2.773-3.321 7.517-.546 10.592 2.773 3.077 7.516 3.322 10.592.547 3.648-3.29 7.604-6.329 11.757-9.032 15.494-10.08 33.447-15.407 51.92-15.407 37.626 0 71.789 22.232 87.033 56.639l11.738 26.496c3.244 7.334 4.889 15.114 4.889 23.126 0 6.985-1.261 13.839-3.748 20.368-6.776 17.779-21.632 30.659-39.536 35.092 4.892-11.298 7.545-23.705 7.545-36.616v-38.755c0-11.255-9.156-20.411-20.411-20.411h-31.306c-14.006 0-25.839-11.478-25.839-25.063 0-4.143-3.358-7.5-7.5-7.5s-7.5 3.357-7.5 7.5c0 18.468 12.808 34.05 30.165 38.666-6.748 11.973-19.382 19.613-33.643 19.7l-32.363.198c-4.124.025-7.454 3.376-7.454 7.5v18.164c0 12.993 2.686 25.475 7.636 36.831-17.964-4.389-32.863-17.27-39.668-35.116-5.425-14.173-5.019-29.639 1.13-43.513l11.799-26.657c1.02-2.302 2.122-4.546 3.275-6.67 1.976-3.641.626-8.193-3.014-10.17-3.641-1.977-8.193-.626-10.169 3.014-1.344 2.477-2.624 5.084-3.807 7.753l-11.799 26.656c-7.785 17.565-8.278 37.155-1.368 55.094 10.222 26.622 34.725 44.455 62.996 46.124 4.932 6.904 10.833 13.123 17.57 18.458v27.448c0 2.207-.612 4.3-1.701 6.112-1.551-1.096-3.259-1.993-5.1-2.636-6.495-2.27-13.659-1.162-19.165 2.961l-16.733 12.531c-.007.002-.014.002-.022.004l-32.528 7.188c-15.143 3.342-26.134 17.029-26.134 32.545v9.54c0 4.143 3.358 7.5 7.5 7.5s7.5-3.357 7.5-7.5v-9.54c0-8.671 5.908-16.03 14.369-17.897l20.897-4.618 26.354 55.834-8.548 6.447c-2.776 2.094-3.749 5.821-2.351 9.005l25.14 57.216c1.666 3.793 6.09 5.518 9.883 3.85 3.792-1.666 5.516-6.091 3.85-9.883l-22.752-51.784 8.681-6.547c2.837-2.14 3.783-5.977 2.266-9.189l-27.54-58.347 19.159-14.349c2.164-1.621 4.373-1.104 5.223-.807.844.295 2.872 1.257 3.568 3.831l34.222 141.966c.812 3.368 3.826 5.742 7.291 5.742s6.479-2.374 7.291-5.742l34.223-141.967c.697-2.573 2.724-3.535 3.568-3.83.85-.298 3.061-.814 5.223.807l19.159 14.349-27.54 58.347c-1.517 3.213-.571 7.05 2.266 9.189l8.682 6.547-22.752 51.784c-1.666 3.792.058 8.217 3.85 9.883.982.432 2.005.636 3.013.636 2.885 0 5.635-1.675 6.871-4.485l25.139-57.216c1.398-3.184.426-6.911-2.351-9.005l-8.548-6.447 26.353-55.833 20.895 4.616c8.33 1.841 14.376 9.368 14.376 17.899v102.967c0 4.143 3.358 7.5 7.5 7.5s7.5-3.357 7.5-7.5v-30.26h113.641c4.142 0 7.5-3.357 7.5-7.5v-235.81c.001-4.143-3.357-7.5-7.499-7.5zm-248.358 249.066-16.951-70.317h33.901zm20.567-85.317h-41.133l-6.02-24.972c5.239-5.006 8.256-11.926 8.256-19.381v-17.788c2.615 1.346 5.302 2.592 8.078 3.702 3.311 1.324 6.788 1.985 10.266 1.985s6.956-.662 10.266-1.985c2.766-1.106 5.445-2.347 8.052-3.689v17.775c0 7.443 3.017 14.372 8.255 19.382zm-15.859-72.367c-3.027 1.211-6.363 1.211-9.39 0-29.299-11.72-48.231-39.683-48.231-71.238v-10.71l24.909-.152c22.05-.135 41.302-13.298 49.526-33.303h26.005c2.984 0 5.411 2.428 5.411 5.411v38.755c.001 31.555-18.93 59.517-48.23 71.237z"/><path d="m504.501 0h-80.85c-4.142 0-7.5 3.357-7.5 7.5s3.358 7.5 7.5 7.5h73.35v180.93c0 4.143 3.358 7.5 7.5 7.5s7.5-3.357 7.5-7.5v-188.43c0-4.143-3.358-7.5-7.5-7.5z"/><path d="m128.931 438.57c-4.142 0-7.5 3.357-7.5 7.5v13.17h-106.43v-444.24h373.65c4.142 0 7.5-3.357 7.5-7.5s-3.358-7.5-7.5-7.5h-381.15c-4.142 0-7.5 3.357-7.5 7.5v459.24c0 4.143 3.358 7.5 7.5 7.5h113.93v30.26c0 4.143 3.358 7.5 7.5 7.5s7.5-3.357 7.5-7.5v-58.43c0-4.142-3.358-7.5-7.5-7.5z"/><path d="m29.216 313.484c0 34.978 28.457 63.435 63.435 63.435s63.435-28.457 63.435-63.435-28.458-63.434-63.436-63.434-63.434 28.457-63.434 63.434zm63.434-48.434c26.707 0 48.435 21.728 48.435 48.435s-21.728 48.435-48.435 48.435-48.435-21.728-48.435-48.435 21.728-48.435 48.435-48.435z"/><path d="m76.938 339.2c2.283 1.313 4.826 2.562 8.043 3.347v1.905c0 4.143 3.358 7.5 7.5 7.5s7.5-3.357 7.5-7.5v-2.55c5.94-2.398 10.424-7.553 11.756-14.131 1.819-8.985-2.758-17.517-11.388-21.229-2.167-.933-4.106-1.596-5.664-2.129-2.659-.909-3.8-1.345-4.386-1.995-.583-.646-.772-1.273-.595-1.97.154-.605.655-1.372 1.601-1.708 2.886-1.023 5.678.613 6.287.996s2.62 1.258 4.158 1.258c4.142 0 7.5-3.358 7.5-7.5 0-2.639-1.366-4.955-3.426-6.292l.002-.003c-.453-.298-2.643-1.658-5.845-2.656v-2.027c0-4.143-3.358-7.5-7.5-7.5s-7.5 3.357-7.5 7.5v2.619c-4.875 2.179-8.5 6.434-9.817 11.626-1.417 5.587.037 11.309 3.989 15.695 3.25 3.609 7.025 4.9 10.677 6.15 1.452.496 2.953 1.01 4.592 1.715 2.676 1.15 2.898 3.067 2.614 4.473-.12.594-.907 3.557-4.604 3.581-3.568.059-5.416-.684-8.017-2.18-3.591-2.064-8.176-.829-10.241 2.764-2.064 3.592-.827 8.176 2.764 10.241z"/><path d="m484.612 282.864c2.245-4.555 1.717-9.885-1.376-13.911l-39.967-52.023c-2.525-3.286-6.35-5.171-10.494-5.171-4.145 0-7.97 1.885-10.494 5.171l-39.967 52.023c-3.093 4.026-3.621 9.356-1.376 13.911 2.244 4.556 6.793 7.385 11.871 7.385h11.826v46.588c0 4.143 3.358 7.5 7.5 7.5h41.282c4.142 0 7.5-3.357 7.5-7.5v-46.588h11.826c5.076 0 9.624-2.829 11.869-7.385zm-50.437-56.796c-.001.002-.002.003-.004.005zm19.24 49.181c-4.142 0-7.5 3.357-7.5 7.5v46.588h-26.282v-46.588c0-4.143-3.358-7.5-7.5-7.5h-15.742l36.382-47.357 36.383 47.357z"/><path d="m453.481 356.939h-41.414c-4.142 0-7.5 3.357-7.5 7.5v27.62c0 4.143 3.358 7.5 7.5 7.5h41.414c4.142 0 7.5-3.357 7.5-7.5v-27.62c0-4.142-3.358-7.5-7.5-7.5zm-7.5 27.621h-26.414v-12.62h26.414z"/><path d="m144.319 115.273c2.245-4.555 1.717-9.885-1.376-13.911l-39.967-52.023c-2.525-3.286-6.35-5.171-10.495-5.171-4.144 0-7.969 1.885-10.494 5.171l-39.966 52.022c-3.094 4.026-3.622 9.357-1.377 13.912 2.244 4.555 6.792 7.385 11.871 7.385h11.827v46.588c0 4.143 3.358 7.5 7.5 7.5h41.282c4.142 0 7.5-3.357 7.5-7.5v-46.588h11.826c5.076 0 9.625-2.829 11.869-7.385zm-31.197-7.615c-4.142 0-7.5 3.357-7.5 7.5v46.588h-26.281v-46.588c0-4.143-3.358-7.5-7.5-7.5h-15.742l36.383-47.357 36.382 47.357z"/><path d="m113.188 234.737c4.142 0 7.5-3.357 7.5-7.5v-27.62c0-4.143-3.358-7.5-7.5-7.5h-41.413c-4.142 0-7.5 3.357-7.5 7.5v27.62c0 4.143 3.358 7.5 7.5 7.5zm-33.913-27.62h26.414v12.62h-26.414z"/><path d="m394.822 79.118h-28.582c-4.142 0-7.5 3.357-7.5 7.5v53.414c0 4.143 3.358 7.5 7.5 7.5h108.245c4.142 0 7.5-3.357 7.5-7.5v-102.154c0-4.143-3.358-7.5-7.5-7.5h-36.082c-4.142 0-7.5 3.357-7.5 7.5v16.87h-28.582c-4.142 0-7.5 3.357-7.5 7.5v16.87zm0 53.414h-21.082v-38.414h21.082zm51.082-87.154h21.082v87.154h-21.082zm-36.082 24.37h21.082v62.784h-21.082z"/></g></g></svg>