<svg id="_x33_0" enable-background="new 0 0 64 64" height="512" viewBox="0 0 64 64" width="512" xmlns="http://www.w3.org/2000/svg"><g><g><g><path d="m24 41.31v-11.31c0-.01 0-.01 0-.02 0-3.35-2.18-6.29-5.34-7.3-.15-.05-.31-.09-.47-.13-1.24-.31-2.19-.55-2.19-.55h46v38c0 1.1-.9 2-2 2h-36v-4c0-.96-.18-1.89-.51-2.75l.02-.01c.32-.6.49-1.28.49-1.97 0-.83-.24-1.64-.7-2.32l-.47-.7c-.54-.82-.83-1.77-.83-2.75s.29-1.93.83-2.75l.23-.35c.61-.91.94-1.99.94-3.09z" fill="#e6e9ed"/></g><g><path d="m62 22h-46l-.57-2.26v-.01c1.51-.57 2.57-2.03 2.57-3.73v-.4l2.5-1c.91-.36 1.5-1.24 1.5-2.21 0-.13-.01-.26-.03-.38l.03-.01h38c1.1 0 2 .9 2 2z" fill="#b4dd7f"/></g><g><path d="m10.67 8.22-2.67 1.78h-1.61c-.77 0-1.46.37-1.9.94l-.3-1.2c-.13-.49-.19-1-.19-1.51 0-3.44 2.79-6.23 6.23-6.23h5.54c1.72 0 3.28.7 4.41 1.82 1.12 1.13 1.82 2.69 1.82 4.41 0 .51-.06 1.02-.19 1.51l-.3 1.2c-.44-.57-1.13-.94-1.9-.94h-1.61-4c-1.39 0-2.61-.7-3.33-1.78z" fill="#656d78"/></g><g><path d="m18.66 22.68-1.66 3.32-4-2-4 2-1.66-3.32c-3.16 1-5.34 3.95-5.34 7.3v.02 11.31c0-.86.2-1.71.59-2.49l1.73-3.45c1.64-3.29 5-5.37 8.68-5.37 1.84 0 3.6.52 5.1 1.45 1.51.93 2.76 2.27 3.58 3.92l1.73 3.45c.39.78.59 1.63.59 2.49v-11.31c0-.01 0-.01 0-.02 0-3.35-2.18-6.29-5.34-7.3z" fill="#4fc1e9"/></g><g><path d="m18.66 22.68-1.66 3.32-4-2 3-2s.95.24 2.19.55c.16.04.32.08.47.13z" fill="#3bafda"/></g><g><path d="m13 24-4 2-1.66-3.32c.16-.05.32-.1.48-.14l2.18-.54z" fill="#3bafda"/></g><g><path d="m8 44c0 1.7 1.06 3.16 2.57 3.73v.01l-.57 2.26-2.18.54c-2.49.62-4.44 2.42-5.31 4.71h-.01c-.32-.6-.5-1.28-.5-1.98 0-.83.24-1.64.7-2.32l.47-.7c.54-.82.83-1.77.83-2.75s-.29-1.93-.83-2.75l-.23-.35c-.61-.91-.94-1.99-.94-3.09 0-.86.2-1.71.59-2.49l1.73-3.45c1.64-3.29 5-5.37 8.68-5.37 1.84 0 3.6.52 5.1 1.45 1.51.93 2.76 2.27 3.58 3.92l1.73 3.45c.39.78.59 1.63.59 2.49 0 1.1-.33 2.18-.94 3.09l-.23.35c-.54.82-.83 1.77-.83 2.75s.29 1.93.83 2.75l.47.7c.46.68.7 1.49.7 2.32 0 .69-.17 1.37-.49 1.97l-.02.01c-.87-2.29-2.82-4.08-5.3-4.7-1.24-.31-2.19-.55-2.19-.55l-.57-2.26v-.01c1.51-.57 2.57-2.03 2.57-3.73v-3.67c0-.2-.13-.37-.32-.44-1.76-.58-3.36-1.57-4.68-2.89-1.32 1.32-2.92 2.31-4.68 2.89-.19.07-.32.24-.32.44z" fill="#fcd770"/></g><g><path d="m10 50v2c0 1.1.9 2 2 2h2c1.1 0 2-.9 2-2v-2s.95.24 2.19.55c2.48.62 4.43 2.41 5.3 4.7.33.86.51 1.79.51 2.75v4h-5-12-5v-4-.02c0-.96.18-1.88.51-2.73.87-2.29 2.82-4.09 5.31-4.71z" fill="#ff826e"/></g><g><path d="m14 48c.5 0 .99-.09 1.43-.27v.01l.57 2.26v2c0 1.1-.9 2-2 2h-2c-1.1 0-2-.9-2-2v-2l.57-2.26v-.01c.44.18.92.27 1.43.27z" fill="#f0d0b4"/></g><g><path d="m18 40.33v3.67c0 1.7-1.06 3.16-2.57 3.73-.44.18-.93.27-1.43.27h-2c-.51 0-.99-.09-1.43-.27-1.51-.57-2.57-2.03-2.57-3.73v-3.67c0-.2.13-.37.32-.44 1.76-.58 3.36-1.57 4.68-2.89 1.32 1.32 2.92 2.31 4.68 2.89.19.07.32.24.32.44z" fill="#f0d0b4"/></g><g><path d="m19.61 10c.77 0 1.46.37 1.9.94.23.3.39.67.46 1.07.02.12.03.25.03.38 0 .97-.59 1.85-1.5 2.21l-2.5 1v-5.6z" fill="#f0d0b4"/></g><g><path d="m14 20c.51 0 .99-.09 1.43-.27v.01l.57 2.26-3 2-3-2 .57-2.26v-.01c.44.18.92.27 1.43.27z" fill="#f0d0b4"/></g><g><path d="m18 15.6v.4c0 1.7-1.06 3.16-2.57 3.73-.44.18-.92.27-1.43.27h-2c-.51 0-.99-.09-1.43-.27-1.51-.57-2.57-2.03-2.57-3.73v-.4-5.6l2.67-1.78c.72 1.08 1.94 1.78 3.33 1.78h4z" fill="#f0d0b4"/></g><g><path d="m8 10v5.6l-2.5-1c-.91-.36-1.5-1.24-1.5-2.21 0-.55.18-1.05.49-1.45.44-.57 1.13-.94 1.9-.94z" fill="#f0d0b4"/></g><g><path d="m44 44h14v14h-14z" fill="#fcd770"/></g><g><path d="m44 26h14v14h-14z" fill="#fcd770"/></g></g><g><path d="m60 11h-37.304c-.033-.072-.076-.139-.113-.208l.2-.804c.144-.573.217-1.163.217-1.755 0-3.988-3.244-7.233-7.232-7.233h-5.535c-3.989 0-7.233 3.245-7.233 7.233 0 .592.073 1.182.216 1.753l.201.806c-.257.477-.417 1.014-.417 1.593 0 1.392.835 2.625 2.128 3.143l1.901.761c.098 1.681 1.019 3.133 2.377 3.965l-.231.921-1.601.398c-3.87.962-6.574 4.421-6.574 8.427v11.314c0 1.3.381 2.56 1.103 3.643l.233.349c.435.652.664 1.41.664 2.194s-.229 1.542-.664 2.194l-.465.697c-.569.854-.871 1.848-.871 2.876 0 .702.152 1.397.429 2.042-.276.851-.429 1.755-.429 2.691v5h59c1.654 0 3-1.346 3-3v-46c0-1.654-1.346-3-3-3zm1 3v7h-44.22l-.187-.746c1.358-.831 2.279-2.284 2.377-3.965l1.901-.761c1.098-.439 1.86-1.397 2.066-2.528h37.063c.552 0 1 .449 1 1zm-38 21.763-.422-.844c-1.675-3.349-4.906-5.511-8.578-5.85v-3.451l3.447 1.724 1.695-3.391c2.323 1.079 3.862 3.409 3.858 6.049zm-6.814-12.685 1.028.258-.662 1.323-1.564-.782zm2.814-12.078h.615c.764 0 1.385.622 1.385 1.385 0 .569-.342 1.074-.87 1.286l-1.13.452zm-14 1.385c0-.763.621-1.385 1.385-1.385h.615v3.123l-1.13-.452c-.528-.212-.87-.716-.87-1.286zm2.697-3.385h-1.312c-.451 0-.881.092-1.275.253-.067-.335-.11-.676-.11-1.02 0-2.885 2.348-5.233 5.232-5.233h5.535c2.885 0 5.233 2.348 5.233 5.233 0 .343-.043.684-.111 1.02-.394-.161-.823-.253-1.274-.253h-.615-1-4c-1.654 0-3-1.346-3-3v-1h-2v1c0 .667.131 1.303.369 1.885zm1.303 1.535 1.48-.987c.905.897 2.149 1.452 3.52 1.452h3v5c0 1.654-1.346 3-3 3h-2c-1.654 0-3-1.346-3-3zm3 10.465h2c.24 0 .47-.038.702-.071l.158.63-1.86 1.239-1.859-1.239.157-.63c.232.033.462.071.702.071zm-2.187 2.077 1.199.799-1.564.782-.662-1.326zm-2.957.871 1.696 3.394 3.448-1.724v3.451c-3.672.339-6.903 2.501-8.578 5.85l-.422.844v-5.78c0-2.634 1.539-4.959 3.856-6.035zm-2.856 20.249-.233-.349c-.501-.753-.767-1.629-.767-2.534 0-.706.167-1.412.482-2.043l1.729-3.458c1.484-2.968 4.469-4.813 7.789-4.813s6.305 1.845 7.789 4.814l1.729 3.458c.315.63.482 1.337.482 2.042 0 .904-.266 1.781-.767 2.533l-.233.35c-.654.98-1 2.123-1 3.303s.346 2.322 1 3.302l.465.699c.157.234.275.488.364.751-1.13-1.279-2.639-2.233-4.392-2.673l-1.612-.403-.231-.922c1.436-.88 2.406-2.45 2.406-4.254v-3.666c0-.63-.401-1.188-1-1.388-1.609-.537-3.094-1.454-4.293-2.653l-.707-.707-.707.707c-1.199 1.199-2.684 2.116-4.294 2.653-.598.2-.999.758-.999 1.388v3.666c0 1.804.97 3.374 2.406 4.253l-.231.921-1.601.398c-1.757.437-3.27 1.392-4.402 2.675.089-.262.206-.514.362-.748l.466-.696c.654-.98 1-2.123 1-3.303s-.346-2.322-1-3.303zm10 2.803h-2c-1.654 0-3-1.346-3-3v-3.286c1.459-.536 2.821-1.338 4-2.352 1.179 1.014 2.541 1.815 4 2.352v3.286c0 1.654-1.346 3-3 3zm-3 3.122.298-1.193c.232.033.462.071.702.071h2c.24 0 .47-.038.702-.071l.298 1.192v1.879c0 .551-.448 1-1 1h-2c-.552 0-1-.449-1-1zm-8 7.861c0-3.069 2.08-5.729 5.058-6.47l.942-.234v.721c0 1.654 1.346 3 3 3h2c1.654 0 3-1.346 3-3v-.719l.95.238c2.979.746 5.055 3.41 5.05 6.48v3h-2.78l.761-3.804-1.961-.393-.84 4.198h-10.36l-.84-4.196-1.96.392.76 3.804h-2.78zm57 3.017h-35v-2.999c.002-.936-.151-1.841-.428-2.694.276-.643.428-1.338.428-2.04 0-1.028-.302-2.022-.871-2.875l-.465-.699c-.435-.651-.664-1.409-.664-2.193s.229-1.542.664-2.193l.233-.35c.722-1.082 1.103-2.342 1.103-3.643v-11.313c.005-2.838-1.364-5.404-3.546-7.001h39.546v37c0 .551-.448 1-1 1z"/><path d="m49 52.586-1.293-1.293-1.414 1.414 2.707 2.707 6.707-6.707-1.414-1.414z"/><path d="m43 59h16v-16h-16zm2-14h12v12h-12z"/><path d="m49 34.586-1.293-1.293-1.414 1.414 2.707 2.707 6.707-6.707-1.414-1.414z"/><path d="m43 41h16v-16h-16zm2-14h12v12h-12z"/><path d="m35 29h6v2h-6z"/><path d="m27 29h6v2h-6z"/><path d="m27 33h14v2h-14z"/><path d="m27 37h2v2h-2z"/><path d="m31 37h2v2h-2z"/><path d="m35 37h2v2h-2z"/><path d="m27 47h14v2h-14z"/><path d="m27 51h14v2h-14z"/><path d="m27 55h2v2h-2z"/><path d="m31 55h2v2h-2z"/><path d="m35 55h2v2h-2z"/></g></g></svg>