<svg height="512" viewBox="0 0 64 64" width="512" xmlns="http://www.w3.org/2000/svg"><g id="Layer_12" data-name="Layer 12"><path d="m23 12.62a13 13 0 1 0 18 0" fill="#0059be"/><path d="m41 12.62h-18a13.07 13.07 0 0 0 -1.517 1.753 12.988 12.988 0 0 0 22.058 13.6 12.977 12.977 0 0 0 -2.541-15.353z" fill="#006bdb"/><path d="m39.119 26.03-4.119-1.03v-2.8h-6v2.8l-4.119 1.03a5.121 5.121 0 0 0 -3.595 3.282l-.006.037a12.994 12.994 0 0 0 21.447-.01l-.013-.027a5.121 5.121 0 0 0 -3.595-3.282z" fill="#e73844"/><path d="m25.881 26.03-.052.013a3.05 3.05 0 0 0 -.927 5.394c2.121 1.565 5.148 3.438 7.6 3.532a12.978 12.978 0 0 0 10.227-5.63l-.013-.027a5.121 5.121 0 0 0 -3.595-3.282l-4.121-1.03v-2.8h-5v2.8z" fill="#ff4d55"/><path d="m32 29a4.722 4.722 0 0 0 4.588-3.6l-1.588-.4v-2.8h-6v2.8l-1.588.4a4.722 4.722 0 0 0 4.588 3.6z" fill="#d08d78"/><path d="m23 13.5v-4.5a7 7 0 0 1 7-7h3.838a4.387 4.387 0 0 1 4.162 3 4.388 4.388 0 0 1 3 4.162v4.338" fill="#383838"/><path d="m25 9v4.5h16v-4.338a4.388 4.388 0 0 0 -3-4.162 4.387 4.387 0 0 0 -4.162-3h-1.838a7 7 0 0 0 -7 7z" fill="#4c4c4c"/><g fill="#d08d78"><path d="m32 23a6 6 0 0 0 6-6v-6a2 2 0 0 0 -2-2 10.242 10.242 0 0 1 -7.243 3h-2.757v5a6 6 0 0 0 6 6z"/><path d="m27 13h-2.5a2.5 2.5 0 0 0 -2.5 2.5 2.5 2.5 0 0 0 2.5 2.5h2.5"/><path d="m37 13h2.5a2.5 2.5 0 0 1 2.5 2.5 2.5 2.5 0 0 1 -2.5 2.5h-2.5"/></g><path d="m33 22.91a6 6 0 0 0 5-5.91v-6a2 2 0 0 0 -2-2 10.242 10.242 0 0 1 -7.243 3h-.757v5a6 6 0 0 0 5 5.91z" fill="#f2b9a1"/><path d="m36.588 25.4-1.588-.4v-1.809a5.933 5.933 0 0 1 -4.588.59v1.219a1.349 1.349 0 0 0 -.8 2.077 4.731 4.731 0 0 0 3.1 1.863 4.72 4.72 0 0 0 3.876-3.54z" fill="#f2b9a1"/><path d="m29 57.72v5.28h-12v-3a4.829 4.829 0 0 0 -1.41-3.41l-10.05-10.05a12.081 12.081 0 0 1 -3.54-8.54v-9a14.884 14.884 0 0 1 .52-3.93l3.03-11.39a2.262 2.262 0 0 1 4.45.58 26.573 26.573 0 0 1 -.23 3.46l-1.52 11.43a1.909 1.909 0 0 1 .76-.15 2 2 0 0 1 1.59.78l6.4 8.22a15.137 15.137 0 0 1 9.8 8.72 28.644 28.644 0 0 1 2.2 11z" fill="#d08d78"/><path d="m26.8 46.72a15.137 15.137 0 0 0 -9.8-8.72l-6.4-8.22a2 2 0 0 0 -1.59-.78 1.909 1.909 0 0 0 -.76.15l1.52-11.43a26.573 26.573 0 0 0 .23-3.46 2.261 2.261 0 0 0 -.66-1.6 2.233 2.233 0 0 0 -.6-.42 2.272 2.272 0 0 0 -1.19 1.44l-3.03 11.39a14.884 14.884 0 0 0 -.52 3.93v9a12.081 12.081 0 0 0 3.54 8.54l10.05 10.05a4.829 4.829 0 0 1 1.41 3.41v3h10v-5.28a28.644 28.644 0 0 0 -2.2-11z" fill="#f2b9a1"/><path d="m13.156 44.537-5.929-9.33a7.75 7.75 0 0 1 -1.227-4.197 2.987 2.987 0 0 1 .893-2.136 2.921 2.921 0 0 1 .985-.652l.744 1.856a.969.969 0 0 0 -.326.22.987.987 0 0 0 -.3.712 5.75 5.75 0 0 0 .912 3.119l5.932 9.334z" fill="#d08d78"/><path d="m35 57.72v5.28h12v-3a4.829 4.829 0 0 1 1.41-3.41l10.05-10.05a12.081 12.081 0 0 0 3.54-8.54v-9a14.884 14.884 0 0 0 -.52-3.93l-3.03-11.39a2.262 2.262 0 0 0 -4.45.58 26.573 26.573 0 0 0 .23 3.46l1.52 11.43a1.909 1.909 0 0 0 -.76-.15 2 2 0 0 0 -1.59.78l-6.4 8.22a15.137 15.137 0 0 0 -9.8 8.72 28.644 28.644 0 0 0 -2.2 11z" fill="#d08d78"/><path d="m37.2 46.72a15.137 15.137 0 0 1 9.8-8.72l6.4-8.22a2 2 0 0 1 1.59-.78 1.909 1.909 0 0 1 .76.15l-1.52-11.43a26.573 26.573 0 0 1 -.23-3.46 2.261 2.261 0 0 1 .66-1.6 2.233 2.233 0 0 1 .6-.42 2.272 2.272 0 0 1 1.186 1.44l3.03 11.39a14.884 14.884 0 0 1 .524 3.93v9a12.081 12.081 0 0 1 -3.54 8.54l-10.05 10.05a4.829 4.829 0 0 0 -1.41 3.41v3h-10v-5.28a28.644 28.644 0 0 1 2.2-11z" fill="#f2b9a1"/><path d="m50.844 44.537 5.929-9.33a7.75 7.75 0 0 0 1.227-4.197 2.987 2.987 0 0 0 -.893-2.136 2.921 2.921 0 0 0 -.985-.652l-.744 1.856a.969.969 0 0 1 .326.22.987.987 0 0 1 .3.712 5.75 5.75 0 0 1 -.912 3.119l-5.932 9.334z" fill="#d08d78"/></g></svg>