<svg id="_x33_0" enable-background="new 0 0 62.477 62" height="512" viewBox="0 0 62.477 62" width="512" xmlns="http://www.w3.org/2000/svg"><g><g><g><path d="m17.04 45.45-2.04 2.55c0-.55-.45-1-1-1h-7v-16h24 26v28c0 1.1-.9 2-2 2h-20c1.1 0 2-.9 2-2 0-.55-.22-1.05-.59-1.41-.36-.37-.86-.59-1.41-.59h2c.55 0 1.05-.22 1.41-.59.37-.36.59-.86.59-1.41 0-1.1-.9-2-2-2h2c.55 0 1.05-.22 1.41-.59.37-.36.59-.86.59-1.41 0-1.1-.9-2-2-2h-2c1.1 0 2-.9 2-2 0-.55-.22-1.05-.59-1.41-.36-.37-.86-.59-1.41-.59h-8l1.62-2.43c.25-.37.38-.81.38-1.25v-.07c0-1.24-1.01-2.25-2.25-2.25-.49 0-.96.16-1.35.45l-1.83 1.38c-1.04.77-2.23 1.3-3.49 1.55-1.99.4-3.78 1.49-5.04 3.07z" fill="#d3a06c"/></g><g><path d="m61 21-4 10h-26l3.5-8.74c.3-.76 1.04-1.26 1.85-1.26h.31 6.17 4.05 6.12z" fill="#b27946"/></g><g><path d="m27.5 22.26 3.5 8.74h-24l-4-10h6 6.12 4.05 6.17.31c.81 0 1.55.5 1.85 1.26z" fill="#b27946"/></g><g><path d="m14 47c.55 0 1 .45 1 1v11 1c0 .55-.45 1-1 1h-13v-14h6z" fill="#e6e9ed"/></g><g><path d="m37 49h2c1.1 0 2 .9 2 2 0 .55-.22 1.05-.59 1.41-.36.37-.86.59-1.41.59h-2c1.1 0 2 .9 2 2 0 .55-.22 1.05-.59 1.41-.36.37-.86.59-1.41.59h-2c.55 0 1.05.22 1.41.59.37.36.59.86.59 1.41 0 1.1-.9 2-2 2h-13.4c-2.35 0-4.64-.7-6.6-2v-11l2.04-2.55c1.26-1.58 3.05-2.67 5.04-3.07 1.26-.25 2.45-.78 3.49-1.55l1.83-1.38c.39-.29.86-.45 1.35-.45 1.24 0 2.25 1.01 2.25 2.25v.07c0 .44-.13.88-.38 1.25l-1.62 2.43h8c.55 0 1.05.22 1.41.59.37.36.59.86.59 1.41 0 1.1-.9 2-2 2z" fill="#f0d0b4"/></g><g><path d="m46.88 21c-.99-7.89-7.72-14-15.88-14s-14.89 6.11-15.88 14h-6.12l2.51-.71c1.71-.48 1.99-2.77.46-3.66l-2.02-1.17 4-6.92 2.89 1.67c.89.51 1.88-.48 1.37-1.37l-1.67-2.89 6.92-4 1.67 2.89c.52.89 1.87.52 1.87-.5v-3.34h8v3.34c0 1.02 1.35 1.39 1.87.5l1.67-2.89 6.92 4-1.67 2.89c-.51.89.48 1.88 1.37 1.37l2.89-1.67 4 6.92-2.02 1.17c-1.53.89-1.25 3.18.46 3.66l2.51.71z" fill="#ffc729"/></g><g><path d="m46.88 21h-4.05c-.95-5.68-5.88-10-11.83-10s-10.88 4.32-11.83 10h-4.05c.99-7.89 7.72-14 15.88-14s14.89 6.11 15.88 14z" fill="#fcd770"/></g><g><path d="m42.83 21h-6.17c-.83-2.33-3.05-4-5.66-4s-4.83 1.67-5.66 4h-6.17c.95-5.68 5.88-10 11.83-10s10.88 4.32 11.83 10z" fill="#ffeaa7"/></g></g><g><path d="m42 56h2v2h-2z"/><path d="m46 56h2v2h-2z"/><path d="m50 56h2v2h-2z"/><path d="m62.477 20h-9.339l-2.38-.673c-.593-.168-.701-.685-.721-.839s-.041-.683.492-.99l2.89-1.668-5-8.66-3.759 2.17 2.17-3.759-8.66-5-2.17 3.759v-4.34h-10v4.34l-2.17-3.759-8.66 5 2.17 3.759-3.759-2.17-5 8.66 2.89 1.668c.533.308.512.836.492.99s-.128.671-.721.839l-2.38.673h-7.339l4.477 11.193v14.807h-6v16h14c.872 0 1.608-.565 1.881-1.345 1.773.879 3.721 1.345 5.722 1.345h13.397 20c1.654 0 3-1.346 3-3v-27.807zm-6.154 10h-23.846l2.949-7.371c.152-.382.517-.629.928-.629h23.169zm-30.246-11.965-3.054-2.618c1.797-1.891 4.25-3.129 6.977-3.373v4.034c-1.499.218-2.87.914-3.923 1.957zm5.923-5.991c2.728.244 5.18 1.482 6.978 3.373l-3.054 2.618c-1.054-1.043-2.424-1.739-3.924-1.956zm5.305 7.956c-.058-.122-.106-.251-.171-.369l3.082-2.642c.594.914 1.059 1.924 1.365 3.011zm6.337 0c-1.374-5.841-6.555-10-12.642-10s-11.268 4.159-12.642 10h-2.048c1.404-6.914 7.523-12 14.69-12s13.286 5.086 14.69 12zm-21.857-3.012 3.082 2.642c-.065.118-.113.247-.171.37h-4.276c.305-1.088.77-2.098 1.365-3.012zm9.215 1.012c1.701 0 3.249.875 4.161 2.252-.711.307-1.291.88-1.593 1.634l-2.568 6.421-2.568-6.422c-.302-.753-.882-1.326-1.593-1.633.912-1.377 2.46-2.252 4.161-2.252zm-18.529-2.234-1.157-.668 3-5.195 2.026 1.17c.793.458 1.765.33 2.414-.318.649-.649.777-1.619.318-2.414l-1.17-2.026 5.195-3 1.17 2.026c.46.796 1.368 1.171 2.251.932.886-.239 1.482-1.015 1.482-1.933v-2.34h6v2.34c0 .918.596 1.694 1.481 1.932.89.239 1.792-.137 2.251-.932l1.17-2.026 5.195 3-1.17 2.026c-.459.795-.331 1.765.318 2.414.648.648 1.617.778 2.414.318l2.026-1.17 3 5.195-1.157.668c-1.063.614-1.629 1.752-1.477 2.971.058.466.216.893.454 1.264h-.79c-1.431-8.038-8.456-14-16.715-14s-15.284 5.962-16.717 14h-.79c.238-.37.397-.798.454-1.264.153-1.218-.414-2.356-1.476-2.97zm13.175 6.234c.411 0 .776.247.929.628l2.948 7.372h-21.846l-3.201-8zm-17.646 10h22v6.252c-.385-.162-.807-.252-1.25-.252-.699 0-1.392.231-1.949.65l-1.835 1.376c-.905.679-1.971 1.154-3.081 1.377-2.218.444-4.217 1.661-5.629 3.426l-1.189 1.486c-.309-.197-.674-.315-1.067-.315h-6zm-6 28v-12h12l.002 12zm19.603 0c-1.984 0-3.908-.541-5.603-1.558v-10.09l1.818-2.273c1.118-1.399 2.702-2.363 4.459-2.715 1.401-.28 2.745-.882 3.888-1.738l1.836-1.376c.215-.161.48-.25.749-.25.689 0 1.25.561 1.25 1.318 0 .247-.072.487-.21.693l-2.658 3.989h9.868c.552 0 1 .448 1 1s-.448 1-1 1h-2-5v2h5 2 2c.552 0 1 .448 1 1s-.448 1-1 1h-2-3-3v2h3 3c.552 0 1 .448 1 1s-.448 1-1 1h-2-4-1v2h1 4c.552 0 1 .448 1 1s-.448 1-1 1zm34.397-1c0 .552-.448 1-1 1h-17.184c.112-.314.184-.648.184-1 0-.395-.081-.77-.22-1.116 1.275-.346 2.22-1.501 2.22-2.884 0-.395-.081-.77-.22-1.116 1.275-.346 2.22-1.501 2.22-2.884s-.945-2.539-2.22-2.884c.139-.346.22-.721.22-1.116 0-1.654-1.346-3-3-3h-6.132l.586-.879c.358-.536.546-1.159.546-1.871 0-.086-.019-.166-.025-.25h.025v-9h24z"/><path d="m60 7c0 .552-.448 1-1 1h-2c-1.654 0-3 1.346-3 3s1.346 3 3 3c.552 0 1 .448 1 1s-.448 1-1 1h-3v2h3c1.654 0 3-1.346 3-3s-1.346-3-3-3c-.552 0-1-.448-1-1s.448-1 1-1h2c1.654 0 3-1.346 3-3s-1.346-3-3-3h-9v2h9c.552 0 1 .448 1 1z"/><path d="m3 10h2c.552 0 1 .448 1 1s-.448 1-1 1c-1.654 0-3 1.346-3 3s1.346 3 3 3h3v-2h-3c-.552 0-1-.448-1-1s.448-1 1-1c1.654 0 3-1.346 3-3s-1.346-3-3-3h-2c-.552 0-1-.448-1-1s.448-1 1-1h9v-2h-9c-1.654 0-3 1.346-3 3s1.346 3 3 3z"/></g></g></svg>