<svg id="Layer_5" enable-background="new 0 0 64 64" height="512" viewBox="0 0 64 64" width="512" xmlns="http://www.w3.org/2000/svg"><g><g><g><path d="m28 54c0 .99.73 1.82 1.68 1.97.21.76.32 1.55.32 2.35v3.68h-28c0-3.62 2.21-6.88 5.57-8.23l2.93-1.17c.5-.2 1-.39 1.51-.57 1.67-.58 3.38-1.04 5.12-1.37 2.26-.44 4.56-.66 6.87-.66 1.73.58 3.2 1.66 4.24 3.05-.15.28-.24.61-.24.95z" fill="#4fc1e9"/></g><g><path d="m29.15 30.61 2.54 2.54c-.77 3.83-2.91 7.27-6.09 9.65l-1.6 1.2h-6v-6.34c.63.22 1.3.34 2 .34 3.31 0 6-2.69 6-6 0-2.53-1.57-4.7-3.79-5.58 1.15-1.32 2.7-2.41 4.51-3.18l1.76.6c.39 1.58 1.01 3.06 1.84 4.42z" fill="#ccd1d9"/></g><g><path d="m19.95 14.49c-2.5 1.63-4.31 4.4-4.81 7.68-.36-.11-.75-.17-1.14-.17h-9.54l-.18-.07c.83-2.08 2.18-3.86 3.88-5.2 2.17-1.72 4.91-2.73 7.84-2.73 1.36 0 2.69.17 3.95.49z" fill="#ccd1d9"/></g><g><path d="m20 26c-.7 0-1.37.12-2 .34v-.34c0-.38-.05-.76-.16-1.11 1.39-3.27 4.38-5.87 8.16-7.1v5.21l.72.24c-1.81.77-3.36 1.86-4.51 3.18-.68-.27-1.43-.42-2.21-.42z" fill="#969faa"/></g><g><path d="m26 17.79c-3.78 1.23-6.77 3.83-8.16 7.1-.37-1.31-1.4-2.34-2.7-2.72.5-3.28 2.31-6.05 4.81-7.68h.01c2.24.57 4.29 1.62 6.04 3.02z" fill="#969faa"/></g><g><path d="m24 44v6c-2.31 0-4.61.22-6.87.66-1.74.33-3.45.79-5.12 1.37l-.01-.03v-8h6z" fill="#e6e9ed"/></g><g><path d="m18 37.66v6.34h-6-4c-2.21 0-4-1.79-4-4v-2-4l-.49-.25c-.93-.46-1.51-1.4-1.51-2.43 0-.21.02-.42.07-.63l1.64-6.96c.15-.62.34-1.22.57-1.8l.18.07h9.54c.39 0 .78.06 1.14.17 1.3.38 2.33 1.41 2.7 2.72.11.35.16.73.16 1.11v.34c-2.33.82-4 3.05-4 5.66s1.67 4.84 4 5.66z" fill="#e6e9ed"/></g><g><path d="m22.21 26.42c2.22.88 3.79 3.05 3.79 5.58 0 3.31-2.69 6-6 6-.7 0-1.37-.12-2-.34-2.33-.82-4-3.05-4-5.66s1.67-4.84 4-5.66c.63-.22 1.3-.34 2-.34.78 0 1.53.15 2.21.42z" fill="#b4dd7f"/></g><g><circle cx="20" cy="32" fill="#a0d468" r="2"/></g><g><circle cx="58" cy="54" fill="#ff826e" r="2"/></g><g><circle cx="52" cy="60" fill="#ff826e" r="2"/></g><g><circle cx="44" cy="54" fill="#ff826e" r="2"/></g><g><circle cx="36" cy="60" fill="#ff826e" r="2"/></g><g><path d="m30 52c1.1 0 2 .9 2 2s-.9 2-2 2c-.11 0-.22-.01-.32-.03-.95-.15-1.68-.98-1.68-1.97 0-.34.09-.67.24-.95.34-.62 1-1.05 1.76-1.05z" fill="#ff826e"/></g><g><path d="m31.69 33.15-2.54-2.54 1.17-2.35c-.83-1.36-1.45-2.84-1.84-4.42l-1.76-.6-.72-.24v-5.21-.28-.51l2.48-.84c.39-1.58 1.01-3.06 1.84-4.42l-1.17-2.35 4.24-4.24 2.35 1.17c1.36-.83 2.84-1.45 4.42-1.84l.84-2.48h6l.84 2.48c1.58.39 3.06 1.01 4.42 1.84l2.35-1.17 4.24 4.24-1.17 2.35c.83 1.36 1.45 2.84 1.84 4.42l2.48.84v6l-2.48.84c-.39 1.58-1.01 3.06-1.84 4.42l1.17 2.35-4.24 4.24-2.35-1.17c-1.36.83-2.84 1.45-4.42 1.84l-.84 2.48h-3-3l-.84-2.48c-1.58-.39-3.06-1.01-4.42-1.84l-2.35 1.17z" fill="#fcd770"/></g><g><path d="m38 12h4 4 4 2v2 4 4 4 2h-2-4-4-4-2v-2-4-4-4-2z" fill="#ccd1d9"/></g><g><path d="m40 16h8v8h-8z" fill="#e6e9ed"/></g></g><g><path d="m23 32c0-1.654-1.346-3-3-3s-3 1.346-3 3 1.346 3 3 3 3-1.346 3-3zm-4 0c0-.552.449-1 1-1s1 .448 1 1-.449 1-1 1-1-.448-1-1z"/><circle cx="8" cy="28" r="1"/><path d="m60.347 15.388c-.362-1.285-.874-2.521-1.527-3.685l1.244-2.509-5.258-5.259-2.509 1.245c-1.164-.652-2.398-1.165-3.685-1.526l-.894-2.654h-7.437l-.894 2.653c-1.286.361-2.521.874-3.685 1.526l-2.509-1.244-5.258 5.259 1.244 2.509c-.653 1.164-1.165 2.399-1.527 3.685l-1.958.659c-2.831-1.967-6.228-3.047-9.694-3.047-6.354 0-11.808 4.32-13.264 10.505l-1.637 6.959c-.066.279-.099.566-.099.852 0 1.398.765 2.657 2 3.301v5.383c0 2.757 2.243 5 5 5h3v6.346c-.29.108-.582.209-.871.325l-2.929 1.171c-3.766 1.507-6.2 5.101-6.2 9.158v1h30v-4.676c0-.494-.046-.985-.12-1.471 1.223-.379 2.12-1.507 2.12-2.853 0-1.302-.839-2.402-2-2.816v-3.716l6-5v-5.468h-2v4.531l-6 5v4.653c-.265.094-.514.219-.739.38-.922-.962-2.028-1.709-3.261-2.226v-4.838l1.2-.9c2.865-2.148 4.952-5.13 6.013-8.516l.981.981 2.509-1.245c1.165.654 2.4 1.166 3.685 1.527l.894 2.653h2.718v12.184c-1.161.414-2 1.514-2 2.816 0 1.654 1.346 3 3 3s3-1.346 3-3c0-1.302-.839-2.402-2-2.816v-12.184h2.718l.894-2.653c1.284-.361 2.52-.873 3.685-1.527l2.509 1.245 5.258-5.259-1.244-2.509c.653-1.164 1.165-2.399 1.527-3.685l2.653-.893v-7.438zm-16.347 39.612c-.551 0-1-.448-1-1s.449-1 1-1 1 .448 1 1-.449 1-1 1zm-29-23c0-2.757 2.243-5 5-5s5 2.243 5 5-2.243 5-5 5-5-2.243-5-5zm5.153-16.411c1.416.406 2.763 1.018 4.013 1.834-2.704 1.197-4.906 3.082-6.346 5.39-.426-.51-.947-.93-1.542-1.238.553-2.472 1.93-4.603 3.875-5.986zm1.781 9.689c-.615-.177-1.262-.278-1.934-.278-.372 0-.735.038-1.092.094-.005-.029-.003-.061-.009-.09 1.151-2.493 3.316-4.539 6.101-5.764v3.728c-1.167.638-2.194 1.425-3.066 2.31zm-5.934-10.278c.55 0 1.092.039 1.629.097-1.605 1.578-2.745 3.636-3.28 5.939-.117-.009-.229-.036-.349-.036h-8.173c2.002-3.641 5.839-6 10.173-6zm-11 25v-1h2c2.206 0 4-1.794 4-4h-2c0 1.103-.897 2-2 2h-2v-3.618l-1.047-.523c-.588-.295-.953-.885-.953-1.543 0-.133.016-.266.046-.395l1.637-6.958c.077-.327.168-.648.27-.963h9.047c1.551 0 2.817 1.188 2.97 2.7-2.345 1.132-3.97 3.527-3.97 6.3 0 2.785 1.639 5.188 4 6.315v4.685h-9c-1.654 0-3-1.346-3-3zm8 5h10v4.024c-3.409.09-6.758.639-10 1.64zm17 10c-.551 0-1-.448-1-1s.449-1 1-1 1 .448 1 1-.449 1-1 1zm-2.898-1.735c-.06.237-.102.48-.102.735 0 1.237.752 2.3 1.823 2.758.106.515.177 1.038.177 1.566v2.676h-25.937c.354-2.815 2.191-5.226 4.88-6.301l2.929-1.171c4.141-1.657 8.501-2.508 12.962-2.528 1.278.455 2.387 1.242 3.268 2.265zm-2.102-11.265-1.333 1h-4.667v-4.08c.328.047.66.08 1 .08 3.86 0 7-3.141 7-7 0-2.429-1.245-4.571-3.129-5.827.832-.731 1.822-1.354 2.913-1.853l.869.293c.362 1.285.874 2.521 1.527 3.685l-1.244 2.509 2.646 2.647c-.808 3.412-2.766 6.435-5.582 8.546zm36-19.719-2.322.782-.132.533c-.36 1.462-.938 2.856-1.717 4.145l-.285.47 1.09 2.196-3.227 3.228-2.196-1.09-.47.284c-1.29.779-2.684 1.357-4.144 1.718l-.533.131-.782 2.322h-4.563l-.782-2.322-.533-.131c-1.46-.36-2.854-.938-4.144-1.718l-.47-.284-2.196 1.09-3.227-3.228 1.09-2.196-.285-.47c-.779-1.288-1.357-2.683-1.717-4.145l-.132-.533-2.323-.782v-4.563l2.322-.782.132-.533c.36-1.462.938-2.856 1.717-4.145l.285-.47-1.09-2.196 3.227-3.228 2.196 1.09.47-.284c1.287-.779 2.681-1.356 4.144-1.718l.533-.131.782-2.321h4.563l.782 2.322.533.131c1.463.361 2.857.938 4.144 1.718l.47.284 2.196-1.09 3.227 3.228-1.09 2.196.285.47c.779 1.288 1.357 2.683 1.717 4.145l.132.533 2.323.782z"/><path d="m53 11h-2v-2h-2v2h-2v-2h-2v2h-2v-2h-2v2h-2v-2h-2v2h-2v2h-2v2h2v2h-2v2h2v2h-2v2h2v2h-2v2h2v2h2v2h2v-2h2v2h2v-2h2v2h2v-2h2v2h2v-2h2v-2h2v-2h-2v-2h2v-2h-2v-2h2v-2h-2v-2h2v-2h-2zm-2 16h-14v-14h14z"/><path d="m49 15h-10v10h10zm-2 8h-6v-6h6z"/><path d="m53 57.184v-8.684l-4-3v-4.5h-2v5.5l4 3v7.684c-1.161.414-2 1.514-2 2.816 0 1.654 1.346 3 3 3s3-1.346 3-3c0-1.302-.839-2.402-2-2.816zm-1 3.816c-.551 0-1-.448-1-1s.449-1 1-1 1 .448 1 1-.449 1-1 1z"/><path d="m59 51.184v-4.653l-6-5v-4.531h-2v5.469l6 5v3.716c-1.161.414-2 1.514-2 2.816 0 1.654 1.346 3 3 3s3-1.346 3-3c0-1.303-.839-2.403-2-2.817zm-1 3.816c-.551 0-1-.448-1-1s.449-1 1-1 1 .448 1 1-.449 1-1 1z"/><path d="m37 57.184v-7.684l4-3v-5.5h-2v4.5l-4 3v8.684c-1.161.414-2 1.514-2 2.816 0 1.654 1.346 3 3 3s3-1.346 3-3c0-1.302-.839-2.402-2-2.816zm-1 3.816c-.551 0-1-.448-1-1s.449-1 1-1 1 .448 1 1-.449 1-1 1z"/></g></g></svg>