<svg id="Capa_1" enable-background="new 0 0 512 512" height="512" viewBox="0 0 512 512" width="512" xmlns="http://www.w3.org/2000/svg"><g><g><path d="m504.5 386.206v25.96c0 11.53-9.35 20.89-20.89 20.89h-455.22c-11.54 0-20.89-9.36-20.89-20.89v-25.96z" fill="#678d98"/><g fill="#537983"><path d="m290.94 433.05h40.01v.01h-40.01z"/><path d="m504.5 386.21v25.96c0 11.53-9.35 20.89-20.89 20.89h-40.01c11.54 0 20.89-9.36 20.89-20.89v-25.96z"/><path d="m290.94 433.05h40.01v.01h-40.01z"/><path d="m181.048 433.055h149.903v70.811h-149.903z"/></g><path d="m290.94 433.05h40.01v70.82h-40.01z" fill="#4d6f77"/><path d="m504.5 152.37v233.84h-497v-233.84c0-11.54 9.35-20.89 20.89-20.89h455.22c11.54 0 20.89 9.35 20.89 20.89z" fill="#dcf4f7"/><g><g><path d="m328.57 131.48v17.72c0 4.56-3.69 8.25-8.24 8.25h-17.59c-4.56 0-8.25-3.69-8.25-8.25v-17.72z" fill="#b9f0f1"/></g></g><g><g><path d="m184.12 131.48-15.8 21.93c-3.88 5.39-11.91 5.39-15.8 0l-15.8-21.93z" fill="#b9f0f1"/></g></g><path d="m504.5 152.37v233.84h-40.01v-233.84c0-11.54-9.35-20.89-20.89-20.89h40.01c11.54 0 20.89 9.35 20.89 20.89z" fill="#b9f0f1"/><path d="m55.848 350.512c-8.078 0-14.626-6.548-14.626-14.626v-52.003c0-8.078 6.548-14.626 14.626-14.626 8.078 0 14.626 6.548 14.626 14.626v52.003c0 8.078-6.549 14.626-14.626 14.626z" fill="#68ca44"/><path d="m113.034 309.885c-8.078 0-14.626-6.548-14.626-14.626v-52.003c0-8.078 6.548-14.626 14.626-14.626 8.078 0 14.626 6.548 14.626 14.626v52.003c0 8.077-6.548 14.626-14.626 14.626z" fill="#68ca44"/><path d="m170.22 269.257c-8.078 0-14.626-6.548-14.626-14.626v-52.003c0-8.078 6.548-14.626 14.626-14.626 8.078 0 14.626 6.548 14.626 14.626v52.003c0 8.078-6.548 14.626-14.626 14.626z" fill="#cb97e7"/><path d="m227.407 321.422c-8.078 0-14.626-6.548-14.626-14.626v-52.003c0-8.078 6.548-14.626 14.626-14.626 8.078 0 14.626 6.548 14.626 14.626v52.003c0 8.078-6.549 14.626-14.626 14.626z" fill="#fe5694"/><path d="m284.593 350.512c-8.078 0-14.626-6.548-14.626-14.626v-52.003c0-8.078 6.548-14.626 14.626-14.626 8.078 0 14.626 6.548 14.626 14.626v52.003c0 8.078-6.548 14.626-14.626 14.626z" fill="#fe5694"/><path d="m341.78 309.885c-8.078 0-14.626-6.548-14.626-14.626v-52.003c0-8.078 6.548-14.626 14.626-14.626 8.078 0 14.626 6.548 14.626 14.626v52.003c0 8.077-6.549 14.626-14.626 14.626z" fill="#68ca44"/><path d="m398.966 277.383c-8.078 0-14.626-6.548-14.626-14.626v-52.003c0-8.078 6.548-14.626 14.626-14.626 8.078 0 14.626 6.548 14.626 14.626v52.003c0 8.077-6.548 14.626-14.626 14.626z" fill="#68ca44"/><path d="m456.152 277.383c-8.078 0-14.626-6.548-14.626-14.626v-52.003c0-8.078 6.548-14.626 14.626-14.626 8.078 0 14.626 6.548 14.626 14.626v52.003c0 8.077-6.548 14.626-14.626 14.626z" fill="#68ca44"/><path d="m464.488 198.743v76.023c3.799-2.642 6.291-7.032 6.291-12.01v-52.003c-.001-4.977-2.492-9.368-6.291-12.01z" fill="#4fc123"/><g><g><path d="m323.657 12.179-48.861 67.809c-4.64 6.44-.039 15.428 7.899 15.428h31.819v53.789c0 4.555 3.692 8.247 8.247 8.247h17.586c4.555 0 8.247-3.692 8.247-8.247v-53.79h31.823c7.937 0 12.539-8.988 7.899-15.428l-48.861-67.809c-3.885-5.391-11.912-5.391-15.798.001z" fill="#a2e62e"/></g><g fill="#97d729"><path d="m337.262 95.42h11.328v53.78c0 4.56-3.69 8.25-8.24 8.25h-17.59c-.41 0-.82-.03-1.22-.09 3.98-.59 7.03-4.01 7.03-8.16v-45.088c0-4.801 3.892-8.692 8.692-8.692z"/><path d="m380.42 95.42h-20.02c7.93 0 12.54-8.99 7.89-15.43l-39.77-55.27c-2.74-3.79-7.52-4.92-11.47-3.37l6.61-9.17c3.88-5.39 11.91-5.39 15.8 0l48.86 67.81c4.64 6.44.03 15.43-7.9 15.43z"/></g><g><path d="m188.343 153.407 48.861-67.809c4.64-6.44.039-15.428-7.899-15.428h-31.819v-53.789c0-4.555-3.692-8.247-8.247-8.247h-17.586c-4.555 0-8.247 3.692-8.247 8.247v53.789h-31.823c-7.937 0-12.539 8.988-7.899 15.428l48.861 67.809c3.885 5.392 11.912 5.392 15.798 0z" fill="#fe5694"/></g><g fill="#fd3581"><path d="m170.44 8.22c.39-.06.8-.09 1.21-.09h17.59c4.556 0 8.25 3.694 8.25 8.25v53.79h-11.338c-4.8 0-8.692-3.892-8.692-8.692v-45.098c0-4.14-3.05-7.57-7.02-8.16z"/><path d="m237.2 85.6-48.86 67.81c-3.88 5.39-11.91 5.39-15.8 0l-7.65-10.62c4.16 2.56 9.88 1.68 12.97-2.61l39.32-54.58c4.64-6.44.04-15.43-7.9-15.43h20.02c7.94 0 12.54 8.99 7.9 15.43z"/></g></g></g><g><path d="m483.61 123.98h-99.932c-4.142 0-7.5 3.358-7.5 7.5s3.358 7.5 7.5 7.5h99.932c7.383 0 13.39 6.007 13.39 13.39v226.336h-482v-57.027h18.722v14.207c0 12.2 9.926 22.126 22.126 22.126s22.126-9.926 22.126-22.126v-52.003c0-12.2-9.926-22.126-22.126-22.126s-22.126 9.926-22.126 22.126v22.796h-18.722v-154.309c0-7.383 6.007-13.39 13.39-13.39h124.515l13.555 18.812c3.23 4.483 8.458 7.16 13.983 7.16 5.525 0 10.753-2.676 13.983-7.159l13.555-18.812h99.031v10.225c0 8.683 7.064 15.747 15.747 15.747h17.586c8.683 0 15.747-7.064 15.747-15.747v-46.29h24.323c6.501 0 12.38-3.595 15.342-9.381s2.442-12.657-1.358-17.931l-48.859-67.81c-3.23-4.483-8.458-7.16-13.983-7.16-5.525 0-10.753 2.676-13.983 7.159l-48.861 67.809c-3.8 5.274-4.321 12.145-1.358 17.932 2.962 5.786 8.841 9.38 15.342 9.38h24.319v21.065h-88.223l24.497-33.997c3.8-5.274 4.321-12.145 1.358-17.931-2.962-5.786-8.841-9.381-15.342-9.381h-24.319v-46.29c0-8.683-7.064-15.747-15.747-15.747h-17.586c-8.683 0-15.747 7.064-15.747 15.747v46.29h-24.323c-6.501 0-12.38 3.595-15.342 9.381s-2.442 12.657 1.358 17.931l24.497 33.997h-113.707c-15.654.001-28.39 12.737-28.39 28.391v259.796c0 15.654 12.736 28.39 28.39 28.39h117.618c4.142 0 7.5-3.358 7.5-7.5s-3.358-7.5-7.5-7.5h-117.618c-7.383 0-13.39-6.007-13.39-13.39v-18.456h482v18.456c0 7.383-6.007 13.39-13.39 13.39l-302.562-.001c-4.142 0-7.5 3.358-7.5 7.5v63.311h-38.675c-4.142 0-7.5 3.358-7.5 7.5s3.358 7.5 7.5 7.5h242.254c4.142 0 7.5-3.358 7.5-7.5s-3.358-7.5-7.5-7.5h-38.675v-55.809h145.158c15.654 0 28.39-12.736 28.39-28.39v-259.797c0-15.654-12.736-28.39-28.39-28.39zm-434.888 159.903c0-3.929 3.197-7.126 7.126-7.126s7.126 3.197 7.126 7.126v52.003c0 3.929-3.197 7.126-7.126 7.126s-7.126-3.197-7.126-7.126zm233.973-195.968c-1.13 0-1.706-.662-1.99-1.217s-.484-1.41.176-2.326l48.861-67.809c.583-.808 1.387-.929 1.815-.929.427 0 1.231.121 1.813.929l48.861 67.809c.661.917.46 1.771.176 2.326s-.86 1.217-1.99 1.217h-31.823c-4.142 0-7.5 3.358-7.5 7.5v53.79c0 .412-.335.747-.747.747h-17.586c-.412 0-.747-.335-.747-.747v-53.79c0-4.142-3.358-7.5-7.5-7.5zm-153.103-9.027c.285-.556.86-1.217 1.991-1.217h31.823c4.142 0 7.5-3.358 7.5-7.5v-53.79c0-.412.335-.747.747-.747h17.586c.412 0 .747.335.747.747v53.79c0 4.142 3.358 7.5 7.5 7.5h31.819c1.13 0 1.706.662 1.99 1.217s.484 1.409-.176 2.326l-48.86 67.809c-.583.808-1.387.929-1.815.929-.427 0-1.231-.121-1.813-.929l-48.861-67.809c-.662-.917-.461-1.771-.178-2.326zm193.86 417.477h-134.904v-55.809h134.903v55.809z"/><path d="m90.908 243.255v52.003c0 12.2 9.926 22.126 22.126 22.126s22.126-9.926 22.126-22.126v-52.003c0-12.2-9.926-22.126-22.126-22.126s-22.126 9.926-22.126 22.126zm29.252 0v52.003c0 3.929-3.197 7.126-7.126 7.126s-7.126-3.197-7.126-7.126v-52.003c0-3.929 3.197-7.126 7.126-7.126s7.126 3.197 7.126 7.126z"/><path d="m192.346 202.628c0-12.2-9.926-22.126-22.126-22.126s-22.126 9.926-22.126 22.126v52.003c0 12.2 9.926 22.126 22.126 22.126s22.126-9.926 22.126-22.126zm-15 52.003c0 3.929-3.197 7.126-7.126 7.126s-7.126-3.197-7.126-7.126v-52.003c0-3.929 3.197-7.126 7.126-7.126s7.126 3.197 7.126 7.126z"/><path d="m205.281 254.793v52.003c0 12.2 9.926 22.126 22.126 22.126s22.126-9.926 22.126-22.126v-52.003c0-12.2-9.926-22.126-22.126-22.126s-22.126 9.926-22.126 22.126zm29.252 0v52.003c0 3.929-3.197 7.126-7.126 7.126s-7.126-3.197-7.126-7.126v-52.003c0-3.929 3.197-7.126 7.126-7.126s7.126 3.197 7.126 7.126z"/><path d="m262.467 283.883v52.003c0 12.2 9.926 22.126 22.126 22.126s22.126-9.926 22.126-22.126v-52.003c0-12.2-9.926-22.126-22.126-22.126s-22.126 9.926-22.126 22.126zm29.252 0v52.003c0 3.929-3.197 7.126-7.126 7.126s-7.126-3.197-7.126-7.126v-52.003c0-3.929 3.197-7.126 7.126-7.126s7.126 3.197 7.126 7.126z"/><path d="m319.654 243.255v52.003c0 12.2 9.926 22.126 22.126 22.126s22.126-9.926 22.126-22.126v-52.003c0-12.2-9.926-22.126-22.126-22.126s-22.126 9.926-22.126 22.126zm29.252 0v52.003c0 3.929-3.197 7.126-7.126 7.126s-7.126-3.197-7.126-7.126v-52.003c0-3.929 3.197-7.126 7.126-7.126s7.126 3.197 7.126 7.126z"/><path d="m398.966 284.882c12.2 0 22.126-9.925 22.126-22.125v-52.003c0-12.2-9.926-22.126-22.126-22.126s-22.126 9.926-22.126 22.126v52.003c0 12.2 9.926 22.125 22.126 22.125zm-7.126-74.129c0-3.929 3.197-7.126 7.126-7.126s7.126 3.197 7.126 7.126v52.003c0 3.929-3.197 7.125-7.126 7.125s-7.126-3.196-7.126-7.125z"/><path d="m478.278 262.757v-52.003c0-12.2-9.926-22.126-22.126-22.126s-22.126 9.926-22.126 22.126v52.003c0 12.2 9.926 22.125 22.126 22.125s22.126-9.925 22.126-22.125zm-29.252 0v-52.003c0-3.929 3.197-7.126 7.126-7.126s7.126 3.197 7.126 7.126v52.003c0 3.929-3.197 7.125-7.126 7.125s-7.126-3.196-7.126-7.125z"/><path d="m384.34 325.598h86.438c4.142 0 7.5-3.358 7.5-7.5s-3.358-7.5-7.5-7.5h-86.438c-4.142 0-7.5 3.358-7.5 7.5s3.358 7.5 7.5 7.5z"/><path d="m155.594 310.598c-4.142 0-7.5 3.358-7.5 7.5s3.358 7.5 7.5 7.5h25.454c4.142 0 7.5-3.358 7.5-7.5s-3.358-7.5-7.5-7.5z"/></g></g></svg>