<svg id="Layer_5" enable-background="new 0 0 64 64" height="512" viewBox="0 0 64 64" width="512" xmlns="http://www.w3.org/2000/svg"><g><g><g><path d="m13 10h36v40h-36z" fill="#69d6f4"/></g><g><path d="m17 2h10c-1.1 0-2.1.45-2.83 1.17-.72.73-1.17 1.73-1.17 2.83 0 2.21 1.79 4 4 4h-14v-4c0-2.21 1.79-4 4-4z" fill="#969faa"/></g><g><path d="m49 6v4h-14c1.1 0 2.1-.45 2.83-1.17.72-.73 1.17-1.73 1.17-2.83 0-2.21-1.79-4-4-4h10c2.21 0 4 1.79 4 4z" fill="#969faa"/></g><g><path d="m49 50v8c0 2.21-1.79 4-4 4h-28c-2.21 0-4-1.79-4-4v-8z" fill="#969faa"/></g><g><path d="m35 2c2.21 0 4 1.79 4 4 0 1.1-.45 2.1-1.17 2.83-.73.72-1.73 1.17-2.83 1.17h-8c-2.21 0-4-1.79-4-4 0-1.1.45-2.1 1.17-2.83.73-.72 1.73-1.17 2.83-1.17z" fill="#e6e9ed"/></g><g><path d="m21 55v2c0 .55-.45 1-1 1h-2c-.55 0-1-.45-1-1v-2c0-.55.45-1 1-1h2c.55 0 1 .45 1 1z" fill="#e6e9ed"/></g><g><path d="m35 55v2c0 .55-.45 1-1 1h-6c-.55 0-1-.45-1-1v-2c0-.55.45-1 1-1h6c.55 0 1 .45 1 1z" fill="#e6e9ed"/></g><g><path d="m45 55v2c0 .55-.45 1-1 1h-2c-.55 0-1-.45-1-1v-2c0-.55.45-1 1-1h2c.55 0 1 .45 1 1z" fill="#e6e9ed"/></g><g><path d="m62 40v6h-6v-6h3z" fill="#e6e9ed"/></g><g><path d="m52 40v6h-3-3v-6h3z" fill="#e6e9ed"/></g><g><path d="m42 40v6h-6v-4-2h3z" fill="#e6e9ed"/></g><g><path d="m55 16h4v16h-4z" fill="#ffeaa7"/></g><g><path d="m51 20v12h-2-2v-12h2z" fill="#ffeaa7"/></g><g><path d="m39 24h4v8h-4z" fill="#ffeaa7"/></g><g><path d="m13 14.05c5.05.5 9 4.77 9 9.95s-3.95 9.45-9 9.95c-.33.03-.66.05-1 .05-5.52 0-10-4.48-10-10s4.48-10 10-10c.34 0 .67.02 1 .05z" fill="#e6e9ed"/></g><g><path d="m15.32 25.46-4.93 3.28c-.26.17-.55.26-.85.26-.85 0-1.54-.69-1.54-1.54v-6.92c0-.85.69-1.54 1.54-1.54.3 0 .59.09.85.26l4.93 3.28c.42.29.68.77.68 1.28v.36c0 .51-.26.99-.68 1.28z" fill="#ff826e"/></g></g><g><path d="m17 24.178v-.356c0-.85-.422-1.639-1.129-2.109l-4.93-3.287c-.418-.279-.904-.426-1.406-.426-1.398 0-2.535 1.137-2.535 2.535v6.93c0 1.398 1.137 2.535 2.535 2.535.502 0 .988-.147 1.406-.426l4.93-3.287c.707-.47 1.129-1.259 1.129-2.109zm-2 0c0 .179-.089.346-.238.445l-4.93 3.287c-.335.22-.832-.044-.832-.445v-6.93c0-.295.24-.535.535-.535.106 0 .208.031.297.09l4.93 3.287c.149.1.238.266.238.445z"/><path d="m34 53h-6c-1.103 0-2 .897-2 2v2c0 1.103.897 2 2 2h6c1.103 0 2-.897 2-2v-2c0-1.103-.897-2-2-2zm-6 4v-2h6l.001 2z"/><path d="m44 53h-2c-1.103 0-2 .897-2 2v2c0 1.103.897 2 2 2h2c1.103 0 2-.897 2-2v-2c0-1.103-.897-2-2-2zm-2 4v-2h2l.001 2z"/><path d="m20 53h-2c-1.103 0-2 .897-2 2v2c0 1.103.897 2 2 2h2c1.103 0 2-.897 2-2v-2c0-1.103-.897-2-2-2zm-2 4v-2h2l.001 2z"/><circle cx="27" cy="6" r="1"/><circle cx="31" cy="6" r="1"/><circle cx="35" cy="6" r="1"/><path d="m60 39v-4h-10v-2h12v-2h-2v-16h-6v16h-2v-12h-2v-13c0-2.757-2.243-5-5-5h-10-8-10c-2.757 0-5 2.243-5 5v7c-6.065 0-11 4.935-11 11s4.935 11 11 11v23c0 2.757 2.243 5 5 5h28c2.757 0 5-2.243 5-5v-11h3v-8h-3v-2h8v2h-3v8h8v-8zm-4-22h2v14h-2zm-8 14v-10h2v10zm0-25v3h-9.026c.635-.838 1.026-1.87 1.026-3s-.391-2.162-1.026-3h6.026c1.654 0 3 1.346 3 3zm-13-3c1.654 0 3 1.346 3 3s-1.346 3-3 3h-8c-1.654 0-3-1.346-3-3s1.346-3 3-3zm-18 0h6.026c-.635.838-1.026 1.87-1.026 3s.391 2.162 1.026 3h-9.026v-3c0-1.654 1.346-3 3-3zm-14 21c0-4.962 4.038-9 9-9s9 4.038 9 9-4.038 9-9 9-9-4.038-9-9zm42 37h-28c-1.654 0-3-1.346-3-3v-7h34v7c0 1.654-1.346 3-3 3zm6-16h-4v-4h4zm-3-6h-3v8h3v2h-34v-14.191c5.112-.944 9-5.427 9-10.809s-3.888-9.865-9-10.809v-2.191h13 8 13v8h-2v12h-2v-8h-6v8h-2v2h12v2h-10v4h-3v8h8v-8h-3v-2h8zm-6-8h-2v-6h2zm-1 10v4h-4v-4zm20 4h-4v-4h4z"/><path d="m16 37h17v2h-17z"/><path d="m16 41h17v2h-17z"/><path d="m16 45h17v2h-17z"/><path d="m25 29h8v2h-8z"/><path d="m25 25h8v2h-8z"/><path d="m25 21h8v2h-8z"/><path d="m25 17h8v2h-8z"/><path d="m25 13h8v2h-8z"/><path d="m25 33h8v2h-8z"/></g></g></svg>