<svg id="Layer_5" enable-background="new 0 0 64 64" height="512" viewBox="0 0 64 64" width="512" xmlns="http://www.w3.org/2000/svg"><g><g><g><path d="m44 24c0 .04 0 .08.01.12h-.01c-3.27.41-6.23 1.8-8.58 3.88h-11.15-.01c-1.15-1.23-2.8-2-4.63-2h-3.63l-.01-.01c-1.27-1.27-3-1.99-4.81-1.99-1.42 0-2.8.44-3.95 1.27l-2.15 1.53c-1.86-1.26-3.08-3.39-3.08-5.8 0-3.87 3.13-7 7-7 .81 0 1.59.15 2.32.4 1.17-4.82 5.5-8.4 10.68-8.4 2.9 0 5.53 1.12 7.49 2.95 2.18-4.13 6.52-6.95 11.51-6.95 6.15 0 11.29 4.28 12.64 10.02.12-.01.24-.02.36-.02 4.42 0 8 3.58 8 8 0 3.65-2.44 6.73-5.78 7.69v.01c-2.29-1.91-5.12-3.19-8.22-3.58h-.01c.01-.04.01-.08.01-.12 0-1.1-.9-2-2-2s-2 .9-2 2z" fill="#e6e9ed"/></g><g><path d="m24 56v6h-8c-3.31 0-6-2.69-6-6v-5c0-1.66 1.34-3 3-3 .83 0 1.58.34 2.12.88s.88 1.29.88 2.12v5h6z" fill="#fcd770"/></g><g><path d="m17.32 49.25c2.81 1.05 4.68 3.74 4.68 6.75h-6v-5c0-.83-.34-1.58-.88-2.12s-1.29-.88-2.12-.88h1z" fill="#fcd770"/></g><g><path d="m30 56.83v2.34c0 1.56-1.27 2.83-2.83 2.83h-3.17v-6l1.17-1.17c.53-.53 1.25-.83 2-.83.78 0 1.49.32 2 .83s.83 1.22.83 2z" fill="#f0d0b4"/></g><g><path d="m6 36v6h-1c-.83 0-1.58-.34-2.12-.88s-.88-1.29-.88-2.12c0-.8.32-1.53.82-2.06.55-.58 1.32-.94 2.18-.94z" fill="#f0d0b4"/></g><g><path d="m25.21 36.97c.49.53.79 1.24.79 2.03 0 .83-.34 1.58-.88 2.12s-1.29.88-2.12.88h-1v-6h1c.87 0 1.66.37 2.21.97z" fill="#f0d0b4"/></g><g><path d="m22 42c0 3.31-2.69 6-6 6h-2-1-1c-3.31 0-6-2.69-6-6v-6c0-1.1.9-2 2-2h3c1.63 0 3.09-.79 4-2 1.28 1.28 3.02 2 4.83 2h.17c1.1 0 2 .9 2 2z" fill="#f0d0b4"/></g><g><path d="m25.88 33.62-.67 3.35c-.55-.6-1.34-.97-2.21-.97h-1c0-1.1-.9-2-2-2h-.17c-1.81 0-3.55-.72-4.83-2-.91 1.21-2.37 2-4 2h-3c-1.1 0-2 .9-2 2h-1c-.86 0-1.63.36-2.18.94l-.75-4.53c-.05-.27-.07-.55-.07-.83 0-1.62.78-3.14 2.1-4.08l.98-.7 2.15-1.53c1.15-.83 2.53-1.27 3.95-1.27 1.81 0 3.54.72 4.81 1.99l.01.01h3.63c1.83 0 3.48.77 4.63 2h.01c1.07 1.14 1.73 2.68 1.73 4.37 0 .42-.04.84-.12 1.25z" fill="#656d78"/></g><g><path d="m56.22 27.7c3.53 2.93 5.78 7.35 5.78 12.3 0 8.84-7.16 16-16 16s-16-7.16-16-16c0-4.78 2.09-9.07 5.42-12 2.35-2.08 5.31-3.47 8.58-3.88h.01c.06 1.05.93 1.88 1.99 1.88s1.93-.83 1.99-1.88h.01c3.1.39 5.93 1.67 8.22 3.58z" fill="#69d6f4"/></g><g><path d="m48 24c0 .04 0 .08-.01.12-.06 1.05-.93 1.88-1.99 1.88s-1.93-.83-1.99-1.88c-.01-.04-.01-.08-.01-.12 0-1.1.9-2 2-2s2 .9 2 2z" fill="#ff826e"/></g></g><g><circle cx="10" cy="38" r="1"/><circle cx="18" cy="38" r="1"/><path d="m16 41.764c-.381.762-1.147 1.236-2 1.236s-1.619-.474-2-1.236l-.105-.211-1.789.895.105.21c.722 1.445 2.174 2.342 3.789 2.342s3.067-.897 3.789-2.342l.105-.211-1.789-.895z"/><path d="m63 20c0-4.825-3.817-8.776-8.591-8.991-1.753-5.933-7.156-10.009-13.409-10.009-4.806 0-9.214 2.441-11.778 6.439-2.012-1.524-4.509-2.439-7.222-2.439-5.203 0-9.738 3.313-11.364 8.173-.541-.115-1.088-.173-1.636-.173-4.411 0-8 3.589-8 8 0 2.189.903 4.247 2.45 5.742-1.534 1.132-2.45 2.933-2.45 4.842 0 .333.027.667.082.99l.682 4.093c-.475.659-.764 1.46-.764 2.333 0 2.206 1.794 4 4 4h.08c.381 2.643 2.238 4.811 4.71 5.637-.49.664-.79 1.476-.79 2.363v5.001c0 3.859 3.14 7 7 7h8 .15.85l2.173-.001c2.11 0 3.827-1.717 3.827-3.827v-2.345c0-2.111-1.718-3.828-3.828-3.828-1.008 0-1.995.409-2.707 1.122l-.879.879h-.664c-.345-2.768-2.094-5.192-4.622-6.398 2.427-.848 4.244-2.993 4.62-5.604h.08c2.206 0 4-1.794 4-4 0-.849-.27-1.634-.724-2.283l.58-2.901c.095-.472.144-.959.144-1.446 0-1.214-.3-2.358-.823-3.369h6.881c-2.534 2.983-4.058 6.833-4.058 11 0 9.374 7.626 17 17 17s17-7.626 17-17c0-4.635-1.886-8.876-4.952-11.968 2.98-1.509 4.952-4.608 4.952-8.032zm-60 1c0-3.309 2.691-6 6-6 .668 0 1.337.116 1.989.346l1.043.367.261-1.074c1.091-4.498 5.083-7.639 9.707-7.639 5.514 0 10 4.486 10 10h2c0-3.175-1.248-6.058-3.269-8.206 2.171-3.59 6.04-5.794 10.269-5.794 5.591 0 10.389 3.802 11.669 9.247l.19.807.981-.046c.054-.004.106-.008.16-.008 3.859 0 7 3.14 7 7 0 2.941-1.878 5.558-4.608 6.556-2.139-1.658-4.692-2.809-7.494-3.291-.33-1.298-1.499-2.265-2.898-2.265s-2.568.967-2.898 2.265c-3.042.523-5.787 1.843-8.031 3.735h-10.409c-1.319-1.236-3.086-2-5.032-2h-3.231c-1.436-1.293-3.272-2-5.219-2-1.636 0-3.204.503-4.536 1.454l-1.544 1.102c-1.324-1.135-2.1-2.791-2.1-4.556zm43 34c-2.232 0-4.254-2.387-5.546-6h11.092c-1.292 3.613-3.314 6-5.546 6zm-6.159-8c-.462-1.821-.746-3.858-.816-6h13.951c-.07 2.142-.354 4.179-.816 6zm-8.79-6h5.975c.063 2.139.322 4.16.752 6h-5.034c-.961-1.812-1.55-3.845-1.693-6zm14.949-14c.931 0 1.754-.435 2.304-1.102 1.307 1.017 2.426 2.817 3.244 5.102h-11.096c.818-2.286 1.937-4.085 3.244-5.102.55.667 1.373 1.102 2.304 1.102zm-1-3c0-.551.448-1 1-1s1 .449 1 1-.448 1-1 1-1-.449-1-1zm7.156 9c.465 1.832.754 3.87.823 6h-13.958c.07-2.13.358-4.168.823-6zm-13.805-2h-4.341c1.735-2.31 4.126-4.102 6.914-5.105-1.041 1.338-1.914 3.086-2.573 5.105zm-.561 2c-.439 1.858-.704 3.885-.768 6h-5.975c.143-2.148.74-4.18 1.704-6zm17.184 8h5.975c-.143 2.155-.732 4.188-1.693 6h-5.034c.43-1.84.689-3.861.752-6zm.004-2c-.065-2.115-.329-4.142-.768-6h5.04c.964 1.82 1.561 3.852 1.704 6zm-1.329-8c-.659-2.019-1.532-3.768-2.574-5.106 2.788 1.003 5.18 2.795 6.915 5.106zm-48.965-2.688 3.123-2.23c.991-.708 2.157-1.082 3.374-1.082 1.551 0 3.009.604 4.112 1.707l.293.293h4.045c2.961 0 5.369 2.409 5.369 5.369 0 .355-.035.708-.104 1.054l-.376 1.881c-.469-.194-.982-.304-1.52-.304h-.184c-.414-1.161-1.514-2-2.816-2h-.172c-1.292 0-2.52-.417-3.528-1.188.446-.839.7-1.797.7-2.812h-2c0 2.206-1.794 4-4 4h-3c-1.302 0-2.402.839-2.816 2h-.184c-.509 0-.991.105-1.439.279l-.506-3.035c-.036-.215-.055-.437-.055-.66 0-1.296.63-2.519 1.684-3.272zm-1.684 10.688c0-1.103.897-2 2-2v4c-1.103 0-2-.897-2-2zm20 22.001h-7c-2.757 0-5-2.243-5-5v-5.001c0-1.098.89-1.99 1.986-1.998h.029c1.095.007 1.985.9 1.985 1.998l-.001 4.587-1.706 1.706 1.414 1.414 1.706-1.706h6.587zm4.172-6.001c1.008 0 1.828.82 1.828 1.828v2.345c0 1.008-.819 1.827-1.827 1.827l-2.173.001v-4.586l.879-.88c.341-.34.811-.535 1.293-.535zm-6.258.001h-3.915l.001-4.001c0-.289-.034-.569-.092-.841l.059.022c2.095.787 3.589 2.655 3.947 4.82zm.086-13.001c0 2.757-2.243 5-5 5h-4c-2.757 0-5-2.243-5-5v-6c0-.551.448-1 1-1h3c1.573 0 3.008-.609 4.079-1.604 1.357 1.04 3.01 1.604 4.749 1.604h.172c.552 0 1 .449 1 1zm2-1v-4c1.103 0 2 .897 2 2s-.897 2-2 2zm11.028 8h4.308c.658 2.023 1.528 3.762 2.566 5.089-2.759-1.002-5.137-2.785-6.874-5.089zm17.07 5.089c1.038-1.327 1.908-3.066 2.566-5.089h4.308c-1.737 2.304-4.115 4.087-6.874 5.089z"/><path d="m39.636 17.636c3.51-3.509 9.219-3.509 12.729 0l1.414-1.414c-4.289-4.289-11.268-4.289-15.557 0z"/><path d="m41.051 19.05 1.414 1.414c.944-.944 2.2-1.464 3.535-1.464s2.591.52 3.535 1.464l1.414-1.414c-1.322-1.322-3.079-2.05-4.949-2.05s-3.627.728-4.949 2.05z"/><path d="m22 11c.585 0 1.161.083 1.714.249l.572-1.917c-.738-.22-1.508-.332-2.286-.332-3.514 0-6.667 2.35-7.668 5.715l1.916.57c.751-2.523 3.116-4.285 5.752-4.285z"/><path d="m44.668 7.888.918-1.777c-1.407-.727-2.993-1.111-4.586-1.111-2.465 0-4.833.904-6.667 2.547l1.334 1.49c2.43-2.174 6.121-2.636 9.001-1.149z"/></g></g></svg>