<svg id="Capa_1" enable-background="new 0 0 512 512" height="512" viewBox="0 0 512 512" width="512" xmlns="http://www.w3.org/2000/svg"><g><path d="m41.86 386.125c-19.659-35.263-30.86-75.886-30.86-119.125 0-135.31 109.69-245 245-245s245 109.69 245 245c0 43.239-11.201 83.862-30.86 119.125-2.985 5.355-128.635-94.508-214.14-94.508s-211.155 99.863-214.14 94.508z" fill="#003278"/><path d="m406.503 10v450h-293.758c-1.111-.87-2.214-1.749-3.309-2.638-.548-.444-8.765-.891-9.308-1.34-23.501-19.404-43.313-43.11-58.252-69.906v-376.116c0-5.523 4.477-10 10-10h344.627c5.522 0 10 4.477 10 10z" fill="#64dcfc"/><path d="m147.614 478.702c-2.124-1.049-4.23-2.129-6.319-3.237-.432-.23-.864 7.619-1.295 7.387-14.19-7.642-27.539-16.641-39.875-26.825v-395.7c0-5.523 4.477-10 10-10h47.489c-5.523 0-10 4.477-10 10z" fill="#c9f0ff"/><path d="m150 50.327h310.125c5.523 0 10 4.477 10 10v325.79c-41.861 75.087-122.055 125.883-214.125 125.883-41.968 0-81.47-10.553-116-29.149v-422.524c0-5.523 4.477-10 10-10z" fill="#fff5f5"/><path d="m303.776 103.372v115.169h-163.969v-115.169z" fill="#fff5f5"/><path d="m166.791 103.372v115.169h-26.985v-115.169z" fill="#c9f0ff"/><path d="m303.776 183.372v25.169h-163.969v-25.169z" fill="#0396fd"/><path d="m166.791 183.372v25.169h-26.985v-25.169z" fill="#0066ed"/><path d="m311.276 103.372v100l-.787.266h-14.213v-92.766h-148.97v92.766h-14.509l-.491-.266v-100c0-4.142 3.357-7.5 7.5-7.5h163.97c4.143 0 7.5 3.358 7.5 7.5z" fill="#003278"/><path d="m251.171 219.621v37.205h-58.76v-37.205zm-83.12-1.249v-15h-35.745v15c0 8.284 6.716 15 15 15h35.745c-8.284 0-15-6.715-15-15z" fill="#64dcfc"/><path d="m311.276 203.372v15c0 8.284-5.918 15-13.218 15h-118.05c-7.3 0-13.217-6.716-13.217-15v-15zm-44.245 50h-90.48c-5.39 0-9.76 4.37-9.76 9.76v10.24h110v-10.24c0-5.39-4.369-9.76-9.76-9.76z" fill="#c9f0ff"/><path d="m276.791 458.559h-134.484c-5.523 0-10-4.477-10-10s4.477-10 10-10h134.485c5.523 0 10 4.477 10 10-.001 5.523-4.478 10-10.001 10zm-144.484-50c0 5.523 4.477 10 10 10h156.469c5.523 0 10-4.477 10-10s-4.477-10-10-10h-156.469c-5.523 0-10 4.477-10 10zm161.822-40c0-5.523-4.477-10-10-10h-141.822c-5.523 0-10 4.477-10 10s4.477 10 10 10h141.822c5.523 0 10-4.477 10-10z" fill="#83bfff"/><path d="m197.411 328.559c0-5.523-4.477-10-10-10h-45.105c-5.523 0-10 4.477-10 10s4.477 10 10 10h45.105c5.523 0 10-4.477 10-10z" fill="#ff5e95"/><path d="m414.39 111.541v87c0 5.523-4.477 10-10 10s-10-4.477-10-10v-87c0-5.523 4.477-10 10-10 5.523 0 10 4.477 10 10z" fill="#0396fd"/><path d="m431.638 430.745c0 11.046-8.954 20-20 20h-16.81c-11.046 0-20-8.954-20-20v-267.245c0-11.046 8.954-20 20-20h16.81c11.046 0 20 8.954 20 20z" fill="#00d1fc"/><path d="m433.952 163.5v267.245c0 11.046-8.954 20-20 20s-20-8.954-20-20v-267.245c0-11.046 8.954-20 20-20 11.045 0 20 8.954 20 20z" fill="#64dcfc"/><path d="m414.39 110v3.5c0 5.523-4.477 10-10 10s-10-4.477-10-10v-3.5c0-5.523 4.477-10 10-10 5.523 0 10 4.477 10 10zm12.794 382c0 11.046-8.954 20-20 20h-5.589c-11.046 0-20-8.954-20-20v-24.968c0-11.046 8.954-20 20-20h5.589c11.046 0 20 8.954 20 20z" fill="#0055ca"/><path d="m431.638 186.833v296.741c0 5.523-4.477 10-10 10h-40.748c-5.523 0-10-4.477-10-10v-296.741c0-5.523 4.477-10 10-10h40.748c5.523 0 10 4.477 10 10z" fill="#ffb509"/><path d="m437.89 186.833v296.741c0 5.523-4.477 10-10 10h-15.263c-5.523 0-10-4.477-10-10v-296.741c0-5.523 4.477-10 10-10h15.263c5.522 0 10 4.477 10 10z" fill="#ffc143"/><path d="m353.828 452.032v-134.787c0-8.284 6.716-15 15-15h4.124c8.284 0 15 6.716 15 15v134.787c0 8.284-6.716 15-15 15h-4.124c-8.284 0-15-6.716-15-15z" fill="#ff9500"/></g></svg>