<svg id="Layer_1" height="512" viewBox="0 0 64 64" width="512" xmlns="http://www.w3.org/2000/svg" data-name="Layer 1"><path d="m35 61v-56h8v56" fill="#c6b87d"/><path d="m39 61v-56h4v56" fill="#a59965"/><path d="m44 42.89h2v9.22h-2z" fill="#4b5156" transform="matrix(.759 -.651 .651 .759 -20.08 40.72)"/><path d="m49 61v-58h8v58" fill="#fc6868"/><path d="m53 61v-58h4v58" fill="#ea4e4e"/><path d="m47.11 47.67h6a0 0 0 0 1 0 0v9a3 3 0 0 1 -3 3 3 3 0 0 1 -3-3v-9a0 0 0 0 1 0 0z" fill="#356baa" transform="matrix(.778 -.629 .629 .778 -22.6 43.45)"/><path d="m44 50.89 5.66 7a3 3 0 0 0 4.22.44 2.08 2.08 0 0 0 .21-.21l-7.78-9.12z" fill="#4a8cdd"/><path d="m21 61v-50h8v50" fill="#c6b87d"/><path d="m25 61v-50h4v50" fill="#a59965"/><circle cx="32" cy="32" fill="#e5e5e5" r="18"/><path d="m20.29 18.33 23.42 27.34a18 18 0 0 0 -23.42-27.34z" fill="#b7b7b7"/><path d="m7 61v-44h8v44" fill="#c6b87d"/><path d="m11 61v-44h4v44" fill="#a59965"/><ellipse cx="40.18" cy="17.67" fill="#f7f7f7" rx="1.24" ry="2.54" transform="matrix(.505 -.863 .863 .505 4.63 43.42)"/><circle cx="43" cy="20.54" fill="#f7f7f7" r="1"/><g fill="#60676d"><path d="m19 32a13 13 0 0 1 13-13v-2a15 15 0 0 0 -15 15z"/><path d="m32 45v2a15 15 0 0 0 15-15h-2a13 13 0 0 1 -13 13z"/><path d="m24 42h-2v-5a1 1 0 0 1 1-1h7v-5a1 1 0 0 1 1-1h7v-5h2v6a1 1 0 0 1 -1 1h-7v5a1 1 0 0 1 -1 1h-7z"/></g><path d="m39 22-3 6h6z" fill="#4b5156"/></svg>