<svg enable-background="new 0 0 256 256" height="512" viewBox="0 0 256 256" width="512" xmlns="http://www.w3.org/2000/svg"><g id="Layer_68"><g><g><path d="m144.75 211.955v-169.1c0-2.13-1.743-3.874-3.874-3.874h-134.502c-2.13 0-3.874 1.743-3.874 3.874v169.1c0 2.796 2.267 5.063 5.063 5.063h132.125c2.795 0 5.062-2.267 5.062-5.063z" fill="#edf4fc"/></g><g><path d="m249.162 148.207h-70.152c-2.396 0-4.338-1.942-4.338-4.338v-44.738c0-2.396 1.942-4.338 4.338-4.338h70.153c2.396 0 4.338 1.942 4.338 4.338v44.738c-.001 2.396-1.943 4.338-4.339 4.338z" fill="#edf4fc"/></g><g><path d="m249.162 76.707h-70.152c-2.396 0-4.338-1.942-4.338-4.338v-44.738c0-2.396 1.942-4.338 4.338-4.338h70.153c2.396 0 4.338 1.942 4.338 4.338v44.738c-.001 2.396-1.943 4.338-4.339 4.338z" fill="#edf4fc"/></g><g><path d="m249.162 219.707h-70.152c-2.396 0-4.338-1.942-4.338-4.338v-44.738c0-2.396 1.942-4.338 4.338-4.338h70.153c2.396 0 4.338 1.942 4.338 4.338v44.738c-.001 2.396-1.943 4.338-4.339 4.338z" fill="#edf4fc"/></g><g><path d="m211.301 104.793h-25.43c-.662 0-1.199.537-1.199 1.199v31.016c0 .662.537 1.199 1.199 1.199h25.43c.662 0 1.199-.537 1.199-1.199v-31.016c0-.662-.537-1.199-1.199-1.199z" fill="#f5c84c"/></g><g><path d="m211.301 33.293h-25.43c-.662 0-1.199.537-1.199 1.199v31.016c0 .662.537 1.199 1.199 1.199h25.43c.662 0 1.199-.537 1.199-1.199v-31.016c0-.662-.537-1.199-1.199-1.199z" fill="#fcdd86"/></g><g><path d="m211.301 176.293h-25.43c-.662 0-1.199.537-1.199 1.199v31.016c0 .662.537 1.199 1.199 1.199h25.43c.662 0 1.199-.537 1.199-1.199v-31.016c0-.662-.537-1.199-1.199-1.199z" fill="#fca265"/></g><g><path d="m123.856 82.342h-100.462c-1.314 0-2.379-1.065-2.379-2.379v-9.59c0-1.314 1.065-2.379 2.379-2.379h100.463c1.314 0 2.379 1.065 2.379 2.379v9.59c0 1.314-1.065 2.379-2.38 2.379z" fill="#fc657e"/></g><g><path d="m123.097 148.191h-41.55c-1.733 0-3.139-1.405-3.139-3.139v-47.136c0-1.733 1.405-3.139 3.139-3.139h41.55c1.733 0 3.139 1.405 3.139 3.139v47.136c0 1.733-1.406 3.139-3.139 3.139z" fill="#f5c84c"/></g><g><path d="m47.644 161.793h-25.43c-.662 0-1.199.537-1.199 1.199v31.016c0 .662.537 1.199 1.199 1.199h25.43c.662 0 1.199-.537 1.199-1.199v-31.016c0-.662-.537-1.199-1.199-1.199z" fill="#fc657e"/></g><g><path d="m125.037 161.793h-25.43c-.662 0-1.199.537-1.199 1.199v31.016c0 .662.537 1.199 1.199 1.199h25.43c.662 0 1.199-.537 1.199-1.199v-31.016c0-.662-.537-1.199-1.199-1.199z" fill="#6cadef"/></g><g><path d="m86.34 161.793h-25.43c-.662 0-1.199.537-1.199 1.199v31.016c0 .662.537 1.199 1.199 1.199h25.43c.662 0 1.199-.537 1.199-1.199v-31.016c0-.662-.537-1.199-1.199-1.199z" fill="#70d6f9"/></g><g><path d="m140.877 38.982h-134.503c-2.13 0-3.874 1.743-3.874 3.874v10.784h142.25v-10.784c0-2.131-1.743-3.874-3.873-3.874z" fill="#6cadef"/></g><g><path d="m19.02 38.982h-12.646c-2.13 0-3.874 1.743-3.874 3.874v10.784h16.52z" fill="#3a70bf"/></g><g><g><g><path d="m64.435 233.21c-3.157-.561-5.613-3.017-6.245-6.104 0-.14-.281-.14-.281 0-.631 3.087-3.087 5.543-6.245 6.104-.14 0-.14.21 0 .281 3.157.561 5.613 3.017 6.245 6.104 0 .14.281.14.281 0 .631-3.087 3.087-5.543 6.245-6.104.14-.071.14-.281 0-.281z" fill="#fc657e"/></g></g></g><g><g><g><path d="m125.624 15.75c-4.5-.8-8-4.3-8.9-8.7 0-.2-.4-.2-.4 0-.9 4.4-4.4 7.9-8.9 8.7-.2 0-.2.3 0 .4 4.5.8 8 4.3 8.9 8.7 0 .2.4.2.4 0 .9-4.4 4.4-7.9 8.9-8.7.2-.1.2-.4 0-.4z" fill="#f5c84c"/></g></g></g><g><g><g><circle cx="150.624" cy="3.4" fill="#87d147" r="3.4"/></g></g></g><g><g><g><circle cx="112.624" cy="252.6" fill="#f5c84c" r="3.4"/></g></g></g><g><g><g><path d="m148.426 235.5h2.3v-2.3c0-1.7 1.4-3.2 3.2-3.2s3.2 1.4 3.2 3.2v2.3h2.3c1.7 0 3.2 1.4 3.2 3.2s-1.4 3.2-3.2 3.2h-2.3v2.3c0 1.7-1.4 3.2-3.2 3.2s-3.2-1.4-3.2-3.2v-2.3h-2.3c-1.7 0-3.2-1.4-3.2-3.2s1.4-3.2 3.2-3.2z" fill="#70d6f9"/></g></g></g><g><path d="m139.687 219.518h-132.124c-4.17 0-7.563-3.393-7.563-7.563v-169.1c0-3.514 2.859-6.373 6.374-6.373h134.503c3.514 0 6.373 2.859 6.373 6.373v169.1c0 4.17-3.393 7.563-7.563 7.563zm-133.313-178.036c-.745 0-1.374.629-1.374 1.373v169.1c0 1.413 1.15 2.563 2.563 2.563h132.124c1.413 0 2.563-1.149 2.563-2.563v-169.1c0-.744-.629-1.373-1.373-1.373z"/></g><g><path d="m66.729 98.178h-45.714c-1.381 0-2.5-1.119-2.5-2.5s1.119-2.5 2.5-2.5h45.714c1.381 0 2.5 1.119 2.5 2.5s-1.119 2.5-2.5 2.5z"/></g><g><path d="m66.729 108.711h-45.714c-1.381 0-2.5-1.119-2.5-2.5s1.119-2.5 2.5-2.5h45.714c1.381 0 2.5 1.119 2.5 2.5s-1.119 2.5-2.5 2.5z"/></g><g><path d="m66.729 119.244h-45.714c-1.381 0-2.5-1.119-2.5-2.5s1.119-2.5 2.5-2.5h45.714c1.381 0 2.5 1.119 2.5 2.5s-1.119 2.5-2.5 2.5z"/></g><g><path d="m66.729 129.777h-45.714c-1.381 0-2.5-1.119-2.5-2.5s1.119-2.5 2.5-2.5h45.714c1.381 0 2.5 1.119 2.5 2.5s-1.119 2.5-2.5 2.5z"/></g><g><path d="m66.729 140.312h-45.714c-1.381 0-2.5-1.119-2.5-2.5s1.119-2.5 2.5-2.5h45.714c1.381 0 2.5 1.119 2.5 2.5s-1.119 2.5-2.5 2.5z"/></g><g><path d="m66.729 150.845h-45.714c-1.381 0-2.5-1.119-2.5-2.5s1.119-2.5 2.5-2.5h45.714c1.381 0 2.5 1.119 2.5 2.5s-1.119 2.5-2.5 2.5z"/></g><g><path d="m249.162 150.707h-70.152c-3.771 0-6.838-3.067-6.838-6.838v-44.738c0-3.771 3.067-6.838 6.838-6.838h70.152c3.771 0 6.838 3.067 6.838 6.838v44.738c0 3.771-3.067 6.838-6.838 6.838zm-70.152-53.414c-1.014 0-1.838.824-1.838 1.838v44.738c0 1.014.824 1.838 1.838 1.838h70.152c1.014 0 1.838-.824 1.838-1.838v-44.738c0-1.014-.824-1.838-1.838-1.838z"/></g><g><path d="m173.639 124h-46.139c-1.381 0-2.5-1.119-2.5-2.5s1.119-2.5 2.5-2.5h46.139c1.381 0 2.5 1.119 2.5 2.5s-1.119 2.5-2.5 2.5z"/></g><g><path d="m232.394 109.779h-9.624c-1.381 0-2.5-1.119-2.5-2.5s1.119-2.5 2.5-2.5h9.624c1.381 0 2.5 1.119 2.5 2.5s-1.12 2.5-2.5 2.5z"/></g><g><path d="m242.017 119.26h-19.247c-1.381 0-2.5-1.119-2.5-2.5s1.119-2.5 2.5-2.5h19.247c1.381 0 2.5 1.119 2.5 2.5s-1.12 2.5-2.5 2.5z"/></g><g><path d="m242.017 128.74h-19.247c-1.381 0-2.5-1.119-2.5-2.5s1.119-2.5 2.5-2.5h19.247c1.381 0 2.5 1.119 2.5 2.5s-1.12 2.5-2.5 2.5z"/></g><g><path d="m242.017 138.221h-19.247c-1.381 0-2.5-1.119-2.5-2.5s1.119-2.5 2.5-2.5h19.247c1.381 0 2.5 1.119 2.5 2.5s-1.12 2.5-2.5 2.5z"/></g><g><path d="m249.162 79.207h-70.152c-3.771 0-6.838-3.067-6.838-6.838v-44.738c0-3.771 3.067-6.838 6.838-6.838h70.152c3.771 0 6.838 3.067 6.838 6.838v44.738c0 3.771-3.067 6.838-6.838 6.838zm-70.152-53.414c-1.014 0-1.838.824-1.838 1.838v44.738c0 1.014.824 1.838 1.838 1.838h70.152c1.014 0 1.838-.824 1.838-1.838v-44.738c0-1.014-.824-1.838-1.838-1.838z"/></g><g><path d="m159.361 195.5c-1.381 0-2.5-1.119-2.5-2.5v-143c0-1.381 1.119-2.5 2.5-2.5s2.5 1.119 2.5 2.5v143c0 1.381-1.119 2.5-2.5 2.5z"/></g><g><path d="m173.639 52.5h-14.277c-1.381 0-2.5-1.119-2.5-2.5s1.119-2.5 2.5-2.5h14.277c1.381 0 2.5 1.119 2.5 2.5s-1.119 2.5-2.5 2.5z"/></g><g><path d="m232.394 38.279h-9.624c-1.381 0-2.5-1.119-2.5-2.5s1.119-2.5 2.5-2.5h9.624c1.381 0 2.5 1.119 2.5 2.5s-1.12 2.5-2.5 2.5z"/></g><g><path d="m242.017 47.76h-19.247c-1.381 0-2.5-1.119-2.5-2.5s1.119-2.5 2.5-2.5h19.247c1.381 0 2.5 1.119 2.5 2.5s-1.12 2.5-2.5 2.5z"/></g><g><path d="m242.017 57.24h-19.247c-1.381 0-2.5-1.119-2.5-2.5s1.119-2.5 2.5-2.5h19.247c1.381 0 2.5 1.119 2.5 2.5s-1.12 2.5-2.5 2.5z"/></g><g><path d="m242.017 66.721h-19.247c-1.381 0-2.5-1.119-2.5-2.5s1.119-2.5 2.5-2.5h19.247c1.381 0 2.5 1.119 2.5 2.5s-1.12 2.5-2.5 2.5z"/></g><g><path d="m249.162 222.207h-70.152c-3.771 0-6.838-3.067-6.838-6.838v-44.738c0-3.771 3.067-6.838 6.838-6.838h70.152c3.771 0 6.838 3.067 6.838 6.838v44.738c0 3.771-3.067 6.838-6.838 6.838zm-70.152-53.414c-1.014 0-1.838.824-1.838 1.838v44.738c0 1.014.824 1.838 1.838 1.838h70.152c1.014 0 1.838-.824 1.838-1.838v-44.738c0-1.014-.824-1.838-1.838-1.838z"/></g><g><path d="m173.639 195.5h-14.277c-1.381 0-2.5-1.119-2.5-2.5s1.119-2.5 2.5-2.5h14.277c1.381 0 2.5 1.119 2.5 2.5s-1.119 2.5-2.5 2.5z"/></g><g><path d="m232.394 181.279h-9.624c-1.381 0-2.5-1.119-2.5-2.5s1.119-2.5 2.5-2.5h9.624c1.381 0 2.5 1.119 2.5 2.5s-1.12 2.5-2.5 2.5z"/></g><g><path d="m242.017 190.76h-19.247c-1.381 0-2.5-1.119-2.5-2.5s1.119-2.5 2.5-2.5h19.247c1.381 0 2.5 1.119 2.5 2.5s-1.12 2.5-2.5 2.5z"/></g><g><path d="m242.017 200.24h-19.247c-1.381 0-2.5-1.119-2.5-2.5s1.119-2.5 2.5-2.5h19.247c1.381 0 2.5 1.119 2.5 2.5s-1.12 2.5-2.5 2.5z"/></g><g><path d="m242.017 209.721h-19.247c-1.381 0-2.5-1.119-2.5-2.5s1.119-2.5 2.5-2.5h19.247c1.381 0 2.5 1.119 2.5 2.5s-1.12 2.5-2.5 2.5z"/></g><g><path d="m211.301 140.707h-25.43c-2.04 0-3.699-1.659-3.699-3.699v-31.016c0-2.04 1.659-3.699 3.699-3.699h25.43c2.04 0 3.699 1.659 3.699 3.699v31.016c0 2.04-1.659 3.699-3.699 3.699zm-24.129-5h22.828v-28.414h-22.828zm24.129-28.414h.01z"/></g><g><path d="m211.301 69.207h-25.43c-2.04 0-3.699-1.659-3.699-3.699v-31.016c0-2.04 1.659-3.699 3.699-3.699h25.43c2.04 0 3.699 1.659 3.699 3.699v31.016c0 2.04-1.659 3.699-3.699 3.699zm-24.129-5h22.828v-28.414h-22.828zm24.129-28.414h.01z"/></g><g><path d="m211.301 212.207h-25.43c-2.04 0-3.699-1.659-3.699-3.699v-31.016c0-2.04 1.659-3.699 3.699-3.699h25.43c2.04 0 3.699 1.659 3.699 3.699v31.016c0 2.04-1.659 3.699-3.699 3.699zm-24.129-5h22.828v-28.414h-22.828zm24.129-28.414h.01z"/></g><g><path d="m123.856 84.842h-100.462c-2.69 0-4.879-2.188-4.879-4.879v-9.59c0-2.69 2.188-4.879 4.879-4.879h100.463c2.69 0 4.879 2.188 4.879 4.879v9.59c0 2.69-2.189 4.879-4.88 4.879zm-100.341-5h100.221v-9.348h-100.221z"/></g><g><path d="m123.097 150.69h-41.551c-3.109 0-5.639-2.529-5.639-5.639v-47.135c0-3.109 2.529-5.639 5.639-5.639h41.551c3.109 0 5.639 2.529 5.639 5.639v47.136c0 3.109-2.529 5.638-5.639 5.638zm-41.551-53.413c-.352 0-.639.286-.639.639v47.136c0 .353.287.639.639.639h41.551c.352 0 .639-.286.639-.639v-47.136c0-.353-.287-.639-.639-.639z"/></g><g><path d="m47.644 197.707h-25.43c-2.04 0-3.699-1.659-3.699-3.699v-31.016c0-2.04 1.659-3.699 3.699-3.699h25.43c2.04 0 3.699 1.659 3.699 3.699v31.016c0 2.04-1.66 3.699-3.699 3.699zm-24.129-5h22.828v-28.414h-22.828zm24.129-28.414h.01z"/></g><g><path d="m125.037 197.707h-25.431c-2.04 0-3.699-1.659-3.699-3.699v-31.016c0-2.04 1.659-3.699 3.699-3.699h25.431c2.04 0 3.699 1.659 3.699 3.699v31.016c0 2.04-1.659 3.699-3.699 3.699zm-24.129-5h22.828v-28.414h-22.828zm24.129-28.414h.01z"/></g><g><path d="m86.34 197.707h-25.43c-2.04 0-3.699-1.659-3.699-3.699v-31.016c0-2.04 1.659-3.699 3.699-3.699h25.43c2.04 0 3.699 1.659 3.699 3.699v31.016c0 2.04-1.659 3.699-3.699 3.699zm-24.129-5h22.828v-28.414h-22.828zm24.129-28.414h.01z"/></g><g><path d="m143.833 56.14h-140c-1.381 0-2.5-1.119-2.5-2.5s1.119-2.5 2.5-2.5h140c1.381 0 2.5 1.119 2.5 2.5s-1.119 2.5-2.5 2.5z"/></g><g><path d="m19.02 54.917c-1.381 0-2.5-1.119-2.5-2.5v-12.334c0-1.381 1.119-2.5 2.5-2.5s2.5 1.119 2.5 2.5v12.334c0 1.381-1.119 2.5-2.5 2.5z"/></g></g></g></svg>