<svg height="480pt" viewBox="0 0 480 480" width="480pt" xmlns="http://www.w3.org/2000/svg"><path d="m392 272v-184h-32v224h-8c-71.859375-.003906-137.703125-40.132812-170.640625-104h-21.359375v-32h8c-5.40625-18.171875-8.101562-37.042969-8-56v-112h-24c-8.835938 0-16 7.164062-16 16v144h-96c-8.835938 0-16 7.164062-16 16v288h464v-120c-44.183594 0-80-35.816406-80-80zm0 0" fill="#cff09e"/><path d="m8 312h64v32h-64zm0 0" fill="#79bd9a"/><path d="m408 368h64v32h-64zm0 0" fill="#a8dba8"/><path d="m192 80h-32v-32zm0 0" fill="#a8dba8"/><path d="m256 80h-32v-32zm0 0" fill="#a8dba8"/><path d="m320 80h-32v-32zm0 0" fill="#a8dba8"/><path d="m192 144h-32v-32zm0 0" fill="#a8dba8"/><path d="m320 144h-96v-32zm0 0" fill="#a8dba8"/><path d="m192 208h-32v-32zm0 0" fill="#a8dba8"/><path d="m256 208h-32v-32zm0 0" fill="#a8dba8"/><path d="m440 336h-32v-32zm0 0" fill="#a8dba8"/><path d="m296 472v-144h80v144" fill="#a8dba8"/><path d="m184 472v-96h-64v96" fill="#79bd9a"/><path d="m296 472v-200h-112v200" fill="#a8dba8"/><path d="m256 472v-24c0-4.417969-3.582031-8-8-8h-16c-4.417969 0-8 3.582031-8 8v24" fill="#cff09e"/><g fill="#3b8686"><path d="m456 80h-88v-56c0-13.253906-10.746094-24-24-24h-208c-13.253906 0-24 10.746094-24 24v136h-88c-13.253906 0-24 10.746094-24 24v288c0 4.417969 3.582031 8 8 8h464c4.417969 0 8-3.582031 8-8v-368c0-13.253906-10.746094-24-24-24zm-440 240h48v16h-48zm176-40h96v184h-24v-16c0-8.835938-7.164062-16-16-16h-16c-8.835938 0-16 7.164062-16 16v16h-24zm176 184h-64v-128h64zm-120 0h-16v-16h16zm-72 0h-48v-80h48zm208 0v-136c0-4.417969-3.582031-8-8-8h-72v-48c0-4.417969-3.582031-8-8-8h-112c-4.417969 0-8 3.582031-8 8v96h-56c-4.417969 0-8 3.582031-8 8v88h-96v-80h32c4.417969 0 8-3.582031 8-8s-3.582031-8-8-8h-32v-16h56c4.417969 0 8-3.582031 8-8v-32c0-4.417969-3.582031-8-8-8h-56v-120c0-4.417969 3.582031-8 8-8h88v48c0 4.417969 3.582031 8 8 8s8-3.582031 8-8v-200c0-4.417969 3.582031-8 8-8h208c4.417969 0 8 3.582031 8 8v144c0 4.417969 3.582031 8 8 8s8-3.582031 8-8v-72h88c4.417969 0 8 3.582031 8 8v256h-56c-4.417969 0-8 3.582031-8 8v32c0 4.417969 3.582031 8 8 8h56v56zm80-72h-48v-16h48zm0 0"/><path d="m432 202.640625c0 4.417969 3.582031 8 8 8s8-3.582031 8-8v-34.640625c0-4.417969-3.582031-8-8-8h-33.359375c-4.417969 0-8 3.582031-8 8s3.582031 8 8 8h14.078125l-84.71875 84.71875v-12.71875c0-4.417969-3.582031-8-8-8s-8 3.582031-8 8v32c0 4.417969 3.582031 8 8 8h33.359375c4.417969 0 8-3.582031 8-8s-3.582031-8-8-8h-14.078125l84.71875-84.71875zm0 0"/><path d="m152 272c-4.417969 0-8 3.582031-8 8v12.71875l-84.71875-84.71875h14.078125c4.417969 0 8-3.582031 8-8s-3.582031-8-8-8h-33.359375c-4.417969 0-8 3.582031-8 8v34.640625c0 4.417969 3.582031 8 8 8s8-3.582031 8-8v-15.359375l84.71875 84.71875h-14.078125c-4.417969 0-8 3.582031-8 8s3.582031 8 8 8h33.359375c4.417969 0 8-3.582031 8-8v-32c0-4.417969-3.582031-8-8-8zm0 0"/><path d="m192 40h-32c-4.417969 0-8 3.582031-8 8v32c0 4.417969 3.582031 8 8 8h32c4.417969 0 8-3.582031 8-8v-32c0-4.417969-3.582031-8-8-8zm-8 32h-16v-16h16zm0 0"/><path d="m224 88h32c4.417969 0 8-3.582031 8-8v-32c0-4.417969-3.582031-8-8-8h-32c-4.417969 0-8 3.582031-8 8v32c0 4.417969 3.582031 8 8 8zm8-32h16v16h-16zm0 0"/><path d="m288 88h32c4.417969 0 8-3.582031 8-8v-32c0-4.417969-3.582031-8-8-8h-32c-4.417969 0-8 3.582031-8 8v32c0 4.417969 3.582031 8 8 8zm8-32h16v16h-16zm0 0"/><path d="m192 104h-32c-4.417969 0-8 3.582031-8 8v32c0 4.417969 3.582031 8 8 8h32c4.417969 0 8-3.582031 8-8v-32c0-4.417969-3.582031-8-8-8zm-8 32h-16v-16h16zm0 0"/><path d="m328 144v-32c0-4.417969-3.582031-8-8-8h-96c-4.417969 0-8 3.582031-8 8v32c0 4.417969 3.582031 8 8 8h96c4.417969 0 8-3.582031 8-8zm-16-8h-80v-16h80zm0 0"/><path d="m192 168h-32c-4.417969 0-8 3.582031-8 8v32c0 4.417969 3.582031 8 8 8h32c4.417969 0 8-3.582031 8-8v-32c0-4.417969-3.582031-8-8-8zm-8 32h-16v-16h16zm0 0"/><path d="m256 168h-32c-4.417969 0-8 3.582031-8 8v32c0 4.417969 3.582031 8 8 8h32c4.417969 0 8-3.582031 8-8v-32c0-4.417969-3.582031-8-8-8zm-8 32h-16v-16h16zm0 0"/><path d="m80 400h-32c-4.417969 0-8 3.582031-8 8s3.582031 8 8 8h32c4.417969 0 8-3.582031 8-8s-3.582031-8-8-8zm0 0"/><path d="m440 296h-32c-4.417969 0-8 3.582031-8 8v32c0 4.417969 3.582031 8 8 8h32c4.417969 0 8-3.582031 8-8v-32c0-4.417969-3.582031-8-8-8zm-8 32h-16v-16h16zm0 0"/><path d="m328 368h16c4.417969 0 8-3.582031 8-8s-3.582031-8-8-8h-16c-4.417969 0-8 3.582031-8 8s3.582031 8 8 8zm0 0"/><path d="m352 392c0 4.417969-3.582031 8-8 8s-8-3.582031-8-8 3.582031-8 8-8 8 3.582031 8 8zm0 0"/><path d="m328 432h16c4.417969 0 8-3.582031 8-8s-3.582031-8-8-8h-16c-4.417969 0-8 3.582031-8 8s3.582031 8 8 8zm0 0"/><path d="m160 408c0 4.417969-3.582031 8-8 8s-8-3.582031-8-8 3.582031-8 8-8 8 3.582031 8 8zm0 0"/><path d="m160 440c0 4.417969-3.582031 8-8 8s-8-3.582031-8-8 3.582031-8 8-8 8 3.582031 8 8zm0 0"/><path d="m216 320h16c4.417969 0 8-3.582031 8-8s-3.582031-8-8-8h-16c-4.417969 0-8 3.582031-8 8s3.582031 8 8 8zm0 0"/><path d="m272 312c0 4.417969-3.582031 8-8 8s-8-3.582031-8-8 3.582031-8 8-8 8 3.582031 8 8zm0 0"/><path d="m216 352h16c4.417969 0 8-3.582031 8-8s-3.582031-8-8-8h-16c-4.417969 0-8 3.582031-8 8s3.582031 8 8 8zm0 0"/><path d="m272 344c0 4.417969-3.582031 8-8 8s-8-3.582031-8-8 3.582031-8 8-8 8 3.582031 8 8zm0 0"/><path d="m240 376c0 4.417969-3.582031 8-8 8s-8-3.582031-8-8 3.582031-8 8-8 8 3.582031 8 8zm0 0"/><path d="m272 376c0 4.417969-3.582031 8-8 8s-8-3.582031-8-8 3.582031-8 8-8 8 3.582031 8 8zm0 0"/><path d="m248 416h16c4.417969 0 8-3.582031 8-8s-3.582031-8-8-8h-16c-4.417969 0-8 3.582031-8 8s3.582031 8 8 8zm0 0"/><path d="m224 408c0 4.417969-3.582031 8-8 8s-8-3.582031-8-8 3.582031-8 8-8 8 3.582031 8 8zm0 0"/></g></svg>