<?xml version="1.0" encoding="utf-8"?>
<!-- Generator: Adobe Illustrator 16.0.0, SVG Export Plug-In . SVG Version: 6.00 Build 0)  -->
<!DOCTYPE svg PUBLIC "-//W3C//DTD SVG 1.1//EN" "http://www.w3.org/Graphics/SVG/1.1/DTD/svg11.dtd">
<svg version="1.1" id="Layer_1" xmlns="http://www.w3.org/2000/svg" xmlns:xlink="http://www.w3.org/1999/xlink" x="0px" y="0px"
	 width="609.449px" height="184.252px" viewBox="0 0 609.449 184.252" enable-background="new 0 0 609.449 184.252"
	 xml:space="preserve">
<g id="Layer_x0020_1">
	<rect x="0" fill="none" width="609.449" height="184.252"/>
	
		<linearGradient id="SVGID_1_" gradientUnits="userSpaceOnUse" x1="4748.9741" y1="-7925.4365" x2="25113.0059" y2="-7925.4365" gradientTransform="matrix(0.0283 0 0 -0.0283 -115.6251 -197.2179)">
		<stop  offset="0" style="stop-color:#F8F8F8"/>
		<stop  offset="0.0314" style="stop-color:#F8F8F8"/>
		<stop  offset="0.0784" style="stop-color:#E5E5E5"/>
		<stop  offset="0.9294" style="stop-color:#E8E8E8"/>
		<stop  offset="1" style="stop-color:#FFFFFF"/>
	</linearGradient>
	<polygon fill="url(#SVGID_1_)" points="18.992,27.921 596.24,27.921 596.24,26.958 18.992,26.958 	"/>
	
		<linearGradient id="SVGID_2_" gradientUnits="userSpaceOnUse" x1="4748.9741" y1="-10167.4365" x2="25113.0059" y2="-10167.4365" gradientTransform="matrix(0.0283 0 0 -0.0283 -115.6251 -197.2179)">
		<stop  offset="0" style="stop-color:#F8F8F8"/>
		<stop  offset="0.0314" style="stop-color:#F8F8F8"/>
		<stop  offset="0.0784" style="stop-color:#E5E5E5"/>
		<stop  offset="0.9294" style="stop-color:#E8E8E8"/>
		<stop  offset="1" style="stop-color:#FFFFFF"/>
	</linearGradient>
	<polygon fill="url(#SVGID_2_)" points="596.24,90.51 18.992,90.51 18.992,91.474 596.24,91.474 	"/>
	
		<linearGradient id="SVGID_3_" gradientUnits="userSpaceOnUse" x1="4748.9741" y1="-9046.4365" x2="25113.0059" y2="-9046.4365" gradientTransform="matrix(0.0283 0 0 -0.0283 -115.6251 -197.2179)">
		<stop  offset="0" style="stop-color:#F8F8F8"/>
		<stop  offset="0.0314" style="stop-color:#F8F8F8"/>
		<stop  offset="0.0784" style="stop-color:#E5E5E5"/>
		<stop  offset="0.9294" style="stop-color:#E8E8E8"/>
		<stop  offset="1" style="stop-color:#FFFFFF"/>
	</linearGradient>
	<polygon fill="url(#SVGID_3_)" points="18.992,59.698 596.24,59.698 596.24,58.734 18.992,58.734 	"/>
	
		<linearGradient id="SVGID_4_" gradientUnits="userSpaceOnUse" x1="4748.9741" y1="-11288.4209" x2="25113.0059" y2="-11288.4209" gradientTransform="matrix(0.0283 0 0 -0.0283 -115.6251 -197.2179)">
		<stop  offset="0" style="stop-color:#F8F8F8"/>
		<stop  offset="0.0314" style="stop-color:#F8F8F8"/>
		<stop  offset="0.0784" style="stop-color:#E5E5E5"/>
		<stop  offset="0.9294" style="stop-color:#E8E8E8"/>
		<stop  offset="1" style="stop-color:#FFFFFF"/>
	</linearGradient>
	<polygon fill="url(#SVGID_4_)" points="596.24,122.286 18.992,122.286 18.992,123.251 596.24,123.251 	"/>
	<path fill="#999999" d="M11.934,126.341H7.568v-0.454l2.382-2.722c0.396-0.453,0.68-0.822,0.821-1.133
		c0.143-0.284,0.228-0.596,0.228-0.879c0-0.454-0.142-0.795-0.397-1.049c-0.255-0.256-0.623-0.397-1.077-0.397
		c-0.481,0-0.851,0.142-1.134,0.454c-0.283,0.312-0.425,0.68-0.425,1.162H7.398c0-0.397,0.085-0.737,0.255-1.078
		c0.171-0.311,0.426-0.566,0.766-0.765c0.341-0.171,0.709-0.284,1.105-0.284c0.652,0,1.134,0.17,1.503,0.511
		c0.368,0.341,0.538,0.794,0.538,1.36c0,0.313-0.113,0.681-0.312,1.078c-0.198,0.396-0.567,0.878-1.077,1.445l-1.956,2.183h3.656
		v0.481L11.934,126.341z"/>
	<path fill="#999999" d="M13.38,122.769l0.34-3.402h3.487v0.539h-3.005l-0.256,2.354c0.369-0.256,0.822-0.397,1.305-0.397
		c0.623,0,1.134,0.198,1.502,0.624c0.368,0.396,0.567,0.963,0.567,1.644c0,0.737-0.171,1.304-0.539,1.701
		c-0.368,0.396-0.879,0.595-1.53,0.595c-0.596,0-1.105-0.17-1.475-0.51c-0.368-0.34-0.595-0.822-0.651-1.418h0.538
		c0.057,0.482,0.227,0.822,0.482,1.078c0.255,0.255,0.623,0.368,1.077,0.368c0.51,0,0.878-0.17,1.134-0.481
		c0.255-0.313,0.368-0.766,0.368-1.361c0-0.51-0.142-0.936-0.425-1.247c-0.284-0.312-0.681-0.481-1.162-0.481
		c-0.284,0-0.511,0.027-0.709,0.113c-0.198,0.057-0.426,0.198-0.624,0.396l-0.453-0.142L13.38,122.769z"/>
	<path fill="#999999" d="M7.881,91.559l0.34-3.401h3.486v0.538H8.73l-0.255,2.353c0.369-0.255,0.822-0.397,1.304-0.397
		c0.624,0,1.135,0.199,1.503,0.624c0.368,0.397,0.566,0.964,0.566,1.644c0,0.738-0.17,1.305-0.538,1.701s-0.879,0.596-1.531,0.596
		c-0.595,0-1.105-0.17-1.474-0.51c-0.368-0.341-0.595-0.822-0.652-1.418h0.539c0.057,0.482,0.227,0.822,0.481,1.077
		c0.256,0.255,0.624,0.368,1.077,0.368c0.511,0,0.879-0.17,1.135-0.481c0.255-0.312,0.368-0.765,0.368-1.36
		c0-0.51-0.142-0.936-0.426-1.248c-0.283-0.312-0.68-0.482-1.162-0.482c-0.283,0-0.51,0.028-0.708,0.113
		c-0.198,0.057-0.426,0.199-0.624,0.397l-0.453-0.142V91.559z"/>
	<path fill="#999999" d="M16.554,90.964c0-0.794-0.142-1.389-0.396-1.814c-0.256-0.396-0.652-0.624-1.191-0.624
		c-0.51,0-0.906,0.199-1.162,0.595c-0.255,0.397-0.396,0.992-0.396,1.758v1.36c0,0.794,0.142,1.389,0.396,1.814
		c0.284,0.425,0.652,0.623,1.162,0.623c0.511,0,0.907-0.198,1.162-0.623c0.256-0.426,0.397-1.021,0.397-1.814v-1.332L16.554,90.964z
		 M17.121,92.211c0,0.992-0.17,1.729-0.538,2.239s-0.879,0.766-1.588,0.766c-0.68,0-1.219-0.256-1.587-0.737
		c-0.368-0.511-0.567-1.219-0.567-2.183v-1.247c0-0.992,0.171-1.729,0.539-2.211c0.368-0.51,0.907-0.766,1.587-0.766
		c0.681,0,1.22,0.255,1.588,0.737s0.538,1.19,0.566,2.154v1.275V92.211z"/>
	<polygon fill="#999999" points="11.934,56.069 8.958,62.702 8.362,62.702 11.31,56.211 7.342,56.211 7.342,55.729 11.934,55.729 	
		"/>
	<path fill="#999999" d="M13.465,59.131l0.34-3.402h3.487v0.539h-3.005l-0.255,2.353c0.368-0.255,0.821-0.397,1.304-0.397
		c0.623,0,1.134,0.198,1.502,0.624c0.369,0.397,0.567,0.964,0.567,1.644c0,0.737-0.17,1.304-0.539,1.701
		c-0.368,0.397-0.879,0.596-1.53,0.596c-0.596,0-1.105-0.17-1.475-0.51c-0.368-0.34-0.595-0.822-0.651-1.417h0.538
		c0.057,0.482,0.227,0.822,0.482,1.077c0.255,0.255,0.623,0.369,1.077,0.369c0.51,0,0.879-0.17,1.134-0.482
		c0.255-0.312,0.368-0.766,0.368-1.361c0-0.51-0.142-0.936-0.425-1.247c-0.284-0.312-0.681-0.482-1.162-0.482
		c-0.284,0-0.511,0.028-0.709,0.113c-0.198,0.057-0.425,0.198-0.624,0.397l-0.453-0.142L13.465,59.131z"/>
	<polygon fill="#999999" points="7.427,31.464 6.832,31.464 6.832,25.2 4.961,25.909 4.961,25.37 7.313,24.491 7.427,24.491 	"/>
	<path fill="#999999" d="M13.804,27.326c0-0.794-0.142-1.389-0.396-1.814c-0.255-0.397-0.652-0.624-1.19-0.624
		c-0.511,0-0.907,0.198-1.162,0.595c-0.256,0.397-0.397,0.992-0.397,1.757v1.361c0,0.793,0.142,1.389,0.397,1.814
		c0.283,0.425,0.651,0.624,1.162,0.624c0.51,0,0.907-0.199,1.162-0.624c0.255-0.425,0.396-1.021,0.396-1.814v-1.333L13.804,27.326z
		 M14.372,28.573c0,0.992-0.17,1.729-0.539,2.239c-0.368,0.51-0.879,0.766-1.587,0.766c-0.681,0-1.219-0.255-1.588-0.737
		c-0.368-0.51-0.566-1.219-0.566-2.183v-1.247c0-0.992,0.17-1.729,0.538-2.211c0.369-0.51,0.907-0.766,1.588-0.766
		c0.68,0,1.219,0.255,1.587,0.737c0.369,0.481,0.539,1.19,0.567,2.154v1.275V28.573z"/>
	<path fill="#999999" d="M19.247,27.326c0-0.794-0.142-1.389-0.396-1.814c-0.255-0.397-0.652-0.624-1.19-0.624
		c-0.511,0-0.907,0.198-1.162,0.595S16.1,26.476,16.1,27.241v1.361c0,0.793,0.143,1.389,0.397,1.814
		c0.283,0.425,0.651,0.624,1.162,0.624c0.51,0,0.907-0.199,1.162-0.624c0.255-0.425,0.396-1.021,0.396-1.814v-1.333L19.247,27.326z
		 M19.814,28.573c0,0.992-0.17,1.729-0.539,2.239c-0.368,0.51-0.878,0.766-1.587,0.766c-0.681,0-1.219-0.255-1.588-0.737
		c-0.368-0.51-0.566-1.219-0.566-2.183v-1.247c0-0.992,0.17-1.729,0.538-2.211c0.369-0.51,0.907-0.766,1.588-0.766
		s1.219,0.255,1.587,0.737c0.369,0.481,0.539,1.19,0.567,2.154v1.275V28.573z"/>
	<g id="_916562064">
		<path fill="#999999" d="M593.292,126.341h-4.365v-0.454l2.381-2.722c0.396-0.453,0.681-0.822,0.822-1.133
			c0.142-0.284,0.227-0.596,0.227-0.879c0-0.454-0.142-0.795-0.397-1.049c-0.255-0.256-0.623-0.397-1.076-0.397
			c-0.482,0-0.851,0.142-1.135,0.454c-0.283,0.312-0.425,0.68-0.425,1.162h-0.567c0-0.397,0.086-0.737,0.256-1.078
			c0.17-0.311,0.425-0.566,0.766-0.765c0.34-0.171,0.708-0.284,1.105-0.284c0.651,0,1.134,0.17,1.502,0.511s0.538,0.794,0.538,1.36
			c0,0.313-0.113,0.681-0.312,1.078c-0.198,0.396-0.566,0.878-1.077,1.445l-1.956,2.183h3.657v0.481L593.292,126.341z"/>
		<path fill="#999999" d="M594.765,122.769l0.34-3.402h3.487v0.539h-2.977l-0.255,2.354c0.368-0.256,0.822-0.397,1.304-0.397
			c0.624,0,1.134,0.198,1.502,0.624c0.369,0.396,0.567,0.963,0.567,1.644c0,0.737-0.17,1.304-0.539,1.701
			c-0.368,0.396-0.878,0.595-1.53,0.595c-0.596,0-1.105-0.17-1.474-0.51c-0.369-0.34-0.596-0.822-0.652-1.418h0.539
			c0.057,0.482,0.227,0.822,0.481,1.078c0.255,0.255,0.624,0.368,1.077,0.368c0.51,0,0.879-0.17,1.134-0.481
			c0.255-0.313,0.368-0.766,0.368-1.361c0-0.51-0.142-0.936-0.425-1.247s-0.681-0.481-1.162-0.481c-0.283,0-0.511,0.027-0.709,0.113
			c-0.198,0.057-0.425,0.198-0.623,0.396l-0.454-0.142V122.769z"/>
		<path fill="#999999" d="M589.238,91.559l0.34-3.401h3.487v0.538h-3.005l-0.256,2.353c0.369-0.255,0.822-0.397,1.305-0.397
			c0.623,0,1.134,0.199,1.502,0.624c0.369,0.397,0.567,0.964,0.567,1.644c0,0.738-0.171,1.305-0.539,1.701s-0.879,0.596-1.53,0.596
			c-0.596,0-1.105-0.17-1.475-0.51c-0.368-0.341-0.595-0.822-0.651-1.418h0.538c0.057,0.482,0.227,0.822,0.482,1.077
			c0.255,0.255,0.623,0.368,1.077,0.368c0.51,0,0.878-0.17,1.134-0.481c0.255-0.312,0.368-0.765,0.368-1.36
			c0-0.51-0.142-0.936-0.425-1.248c-0.284-0.312-0.681-0.482-1.162-0.482c-0.284,0-0.511,0.028-0.709,0.113
			c-0.198,0.057-0.425,0.199-0.624,0.397l-0.453-0.142L589.238,91.559z"/>
		<path fill="#999999" d="M597.912,90.964c0-0.794-0.142-1.389-0.396-1.814c-0.255-0.396-0.652-0.624-1.19-0.624
			c-0.511,0-0.907,0.199-1.162,0.595c-0.256,0.397-0.397,0.992-0.397,1.758v1.36c0,0.794,0.142,1.389,0.397,1.814
			c0.283,0.425,0.651,0.623,1.162,0.623c0.51,0,0.907-0.198,1.162-0.623c0.255-0.426,0.396-1.021,0.396-1.814v-1.332L597.912,90.964
			z M598.479,92.211c0,0.992-0.171,1.729-0.539,2.239s-0.879,0.766-1.587,0.766c-0.681,0-1.219-0.256-1.588-0.737
			c-0.368-0.511-0.566-1.219-0.566-2.183v-1.247c0-0.992,0.17-1.729,0.538-2.211c0.368-0.51,0.907-0.766,1.588-0.766
			c0.68,0,1.219,0.255,1.587,0.737c0.369,0.482,0.539,1.19,0.567,2.154v1.275V92.211z"/>
		<polygon fill="#999999" points="593.292,56.069 590.315,62.702 589.719,62.702 592.668,56.211 588.728,56.211 588.728,55.729 
			593.292,55.729 		"/>
		<path fill="#999999" d="M594.822,59.131l0.341-3.402h3.486v0.539h-3.005l-0.255,2.353c0.368-0.255,0.822-0.397,1.304-0.397
			c0.624,0,1.134,0.198,1.502,0.624c0.369,0.397,0.567,0.964,0.567,1.644c0,0.737-0.17,1.304-0.539,1.701
			c-0.368,0.397-0.878,0.596-1.53,0.596c-0.596,0-1.105-0.17-1.474-0.51c-0.369-0.34-0.596-0.822-0.652-1.417h0.538
			c0.058,0.482,0.228,0.822,0.482,1.077s0.624,0.369,1.077,0.369c0.51,0,0.879-0.17,1.134-0.482
			c0.255-0.312,0.368-0.766,0.368-1.361c0-0.51-0.142-0.936-0.425-1.247c-0.283-0.312-0.681-0.482-1.162-0.482
			c-0.283,0-0.511,0.028-0.709,0.113c-0.198,0.057-0.425,0.198-0.623,0.397l-0.454-0.142L594.822,59.131z"/>
		<polygon fill="#999999" points="588.785,31.464 588.218,31.464 588.218,25.2 586.318,25.909 586.318,25.37 588.699,24.491 
			588.785,24.491 		"/>
		<path fill="#999999" d="M595.191,27.326c0-0.794-0.143-1.389-0.397-1.814c-0.255-0.397-0.651-0.624-1.19-0.624
			c-0.51,0-0.907,0.198-1.162,0.595s-0.396,0.992-0.396,1.757v1.361c0,0.793,0.142,1.389,0.396,1.814
			c0.283,0.425,0.652,0.624,1.162,0.624c0.511,0,0.907-0.199,1.162-0.624c0.255-0.425,0.397-1.021,0.397-1.814v-1.333
			L595.191,27.326z M595.758,28.573c0,0.992-0.17,1.729-0.538,2.239c-0.369,0.51-0.879,0.766-1.588,0.766
			c-0.681,0-1.219-0.255-1.587-0.737c-0.369-0.51-0.567-1.219-0.567-2.183v-1.247c0-0.992,0.17-1.729,0.539-2.211
			c0.368-0.51,0.906-0.766,1.587-0.766s1.219,0.255,1.588,0.737c0.368,0.481,0.538,1.19,0.566,2.154v1.275V28.573z"/>
		<path fill="#999999" d="M600.605,27.326c0-0.794-0.142-1.389-0.397-1.814c-0.255-0.397-0.651-0.624-1.19-0.624
			c-0.51,0-0.907,0.198-1.162,0.595s-0.396,0.992-0.396,1.757v1.361c0,0.793,0.142,1.389,0.396,1.814
			c0.283,0.425,0.652,0.624,1.162,0.624c0.511,0,0.907-0.199,1.162-0.624c0.256-0.425,0.397-1.021,0.397-1.814v-1.333
			L600.605,27.326z M601.172,28.573c0,0.992-0.17,1.729-0.538,2.239c-0.369,0.51-0.879,0.766-1.588,0.766
			c-0.68,0-1.219-0.255-1.587-0.737c-0.369-0.51-0.567-1.219-0.567-2.183v-1.247c0-0.992,0.17-1.729,0.539-2.211
			c0.368-0.51,0.907-0.766,1.587-0.766c0.681,0,1.219,0.255,1.588,0.737c0.368,0.481,0.538,1.19,0.566,2.154v1.275V28.573z"/>
	</g>
	<polygon fill="#E6E7E8" points="609.449,183.571 0,183.571 0,149.642 609.449,149.642 	"/>
	
		<linearGradient id="SVGID_5_" gradientUnits="userSpaceOnUse" x1="5161.9741" y1="-11967.9053" x2="6297.0054" y2="-11967.9053" gradientTransform="matrix(0.0283 0 0 -0.0283 -115.6251 -197.2179)">
		<stop  offset="0" style="stop-color:#3693C3"/>
		<stop  offset="1" style="stop-color:#62C1DB"/>
	</linearGradient>
	<polygon fill="url(#SVGID_5_)" points="62.873,148.45 62.873,135.609 30.699,135.609 30.699,148.45 	"/>
	
		<linearGradient id="SVGID_6_" gradientUnits="userSpaceOnUse" x1="6639.0054" y1="-11880.9053" x2="7774.9741" y2="-11880.9053" gradientTransform="matrix(0.0283 0 0 -0.0283 -115.6251 -197.2179)">
		<stop  offset="0" style="stop-color:#3693C3"/>
		<stop  offset="1" style="stop-color:#62C1DB"/>
	</linearGradient>
	<polygon fill="url(#SVGID_6_)" points="104.768,148.45 104.768,130.677 72.567,130.677 72.567,148.45 	"/>
	
		<linearGradient id="SVGID_7_" gradientUnits="userSpaceOnUse" x1="8138.0054" y1="-11732.9053" x2="9263.0059" y2="-11732.9053" gradientTransform="matrix(0.0283 0 0 -0.0283 -115.6251 -197.2179)">
		<stop  offset="0" style="stop-color:#3693C3"/>
		<stop  offset="1" style="stop-color:#62C1DB"/>
	</linearGradient>
	<polygon fill="url(#SVGID_7_)" points="146.948,122.286 115.058,122.286 115.058,148.45 146.948,148.45 	"/>
	
		<linearGradient id="SVGID_8_" gradientUnits="userSpaceOnUse" x1="9607.9746" y1="-11576.9053" x2="10743.0059" y2="-11576.9053" gradientTransform="matrix(0.0283 0 0 -0.0283 -115.6251 -197.2179)">
		<stop  offset="0" style="stop-color:#3693C3"/>
		<stop  offset="1" style="stop-color:#62C1DB"/>
	</linearGradient>
	<polygon fill="url(#SVGID_8_)" points="156.727,148.45 188.901,148.45 188.901,113.442 156.727,113.442 	"/>
	
		<linearGradient id="SVGID_9_" gradientUnits="userSpaceOnUse" x1="11168.0059" y1="-11398.9053" x2="12303.9746" y2="-11398.9053" gradientTransform="matrix(0.0283 0 0 -0.0283 -115.6251 -197.2179)">
		<stop  offset="0" style="stop-color:#3693C3"/>
		<stop  offset="1" style="stop-color:#62C1DB"/>
	</linearGradient>
	<polygon fill="url(#SVGID_9_)" points="233.149,148.45 233.149,103.351 200.948,103.351 200.948,148.45 	"/>
	
		<linearGradient id="SVGID_10_" gradientUnits="userSpaceOnUse" x1="12688.0059" y1="-11180.9209" x2="13802.0059" y2="-11180.9209" gradientTransform="matrix(0.0283 0 0 -0.0283 -115.6251 -197.2179)">
		<stop  offset="0" style="stop-color:#3693C3"/>
		<stop  offset="1" style="stop-color:#62C1DB"/>
	</linearGradient>
	<polygon fill="url(#SVGID_10_)" points="275.613,90.992 244.035,90.992 244.035,148.45 275.613,148.45 	"/>
	
		<linearGradient id="SVGID_11_" gradientUnits="userSpaceOnUse" x1="14183.0059" y1="-11029.4209" x2="15337.0059" y2="-11029.4209" gradientTransform="matrix(0.0283 0 0 -0.0283 -115.6251 -197.2179)">
		<stop  offset="0" style="stop-color:#3693C3"/>
		<stop  offset="1" style="stop-color:#62C1DB"/>
	</linearGradient>
	<polygon fill="url(#SVGID_11_)" points="286.413,148.45 319.125,148.45 319.125,82.403 286.413,82.403 	"/>
	
		<linearGradient id="SVGID_12_" gradientUnits="userSpaceOnUse" x1="15681.0059" y1="-10870.4209" x2="16815.9746" y2="-10870.4209" gradientTransform="matrix(0.0283 0 0 -0.0283 -115.6251 -197.2179)">
		<stop  offset="0" style="stop-color:#3693C3"/>
		<stop  offset="1" style="stop-color:#62C1DB"/>
	</linearGradient>
	<polygon fill="url(#SVGID_12_)" points="361.049,73.389 328.876,73.389 328.876,148.45 361.049,148.45 	"/>
	
		<linearGradient id="SVGID_13_" gradientUnits="userSpaceOnUse" x1="17198.9746" y1="-10764.9053" x2="18315.9746" y2="-10764.9053" gradientTransform="matrix(0.0283 0 0 -0.0283 -115.6251 -197.2179)">
		<stop  offset="0" style="stop-color:#3693C3"/>
		<stop  offset="1" style="stop-color:#62C1DB"/>
	</linearGradient>
	<polygon fill="url(#SVGID_13_)" points="403.568,67.408 371.905,67.408 371.905,148.45 403.568,148.45 	"/>
	
		<linearGradient id="SVGID_14_" gradientUnits="userSpaceOnUse" x1="18651.9746" y1="-10611.9209" x2="19772.0059" y2="-10611.9209" gradientTransform="matrix(0.0283 0 0 -0.0283 -115.6251 -197.2179)">
		<stop  offset="0" style="stop-color:#3693C3"/>
		<stop  offset="1" style="stop-color:#62C1DB"/>
	</linearGradient>
	<polygon fill="url(#SVGID_14_)" points="413.093,148.45 444.842,148.45 444.842,58.734 413.093,58.734 	"/>
	<polygon fill="#FFFFFF" points="609.449,151.03 0,151.03 0,148.252 609.449,148.252 	"/>
	<path fill="#FFFFFF" d="M53.915,150.944l-5.839,5.84c-0.709,0.709-1.871,0.709-2.58,0l-5.839-5.84c-0.709-0.708-0.709-1.87,0-2.579
		l5.839-5.839c0.709-0.709,1.871-0.709,2.58,0l5.839,5.839C54.624,149.074,54.624,150.236,53.915,150.944z"/>
	
		<linearGradient id="SVGID_15_" gradientUnits="userSpaceOnUse" x1="5546.0581" y1="-12236.917" x2="5912.9316" y2="-12236.917" gradientTransform="matrix(0.0283 0 0 -0.0283 -115.6251 -197.2179)">
		<stop  offset="0" style="stop-color:#3693C3"/>
		<stop  offset="1" style="stop-color:#62C1DB"/>
	</linearGradient>
	<path fill="url(#SVGID_15_)" d="M51.279,150.944l-3.203,3.203c-0.709,0.709-1.871,0.709-2.58,0l-3.203-3.203
		c-0.708-0.708-0.708-1.87,0-2.579l3.203-3.203c0.709-0.708,1.871-0.708,2.58,0l3.203,3.203
		C51.987,149.074,51.987,150.236,51.279,150.944z"/>
	<path fill="#FFFFFF" d="M95.783,150.944l-5.84,5.84c-0.708,0.709-1.871,0.709-2.579,0l-5.84-5.84c-0.708-0.708-0.708-1.87,0-2.579
		l5.84-5.839c0.708-0.709,1.871-0.709,2.579,0l5.84,5.839C96.491,149.074,96.491,150.236,95.783,150.944z"/>
	
		<linearGradient id="SVGID_16_" gradientUnits="userSpaceOnUse" x1="7023.4019" y1="-12236.917" x2="7390.3184" y2="-12236.917" gradientTransform="matrix(0.0283 0 0 -0.0283 -115.6251 -197.2179)">
		<stop  offset="0" style="stop-color:#3693C3"/>
		<stop  offset="1" style="stop-color:#62C1DB"/>
	</linearGradient>
	<path fill="url(#SVGID_16_)" d="M93.146,150.944l-3.203,3.203c-0.708,0.709-1.871,0.709-2.579,0l-3.203-3.203
		c-0.709-0.708-0.709-1.87,0-2.579l3.203-3.203c0.708-0.708,1.871-0.708,2.579,0l3.203,3.203
		C93.855,149.074,93.855,150.236,93.146,150.944z"/>
	<path fill="#FFFFFF" d="M139.635,150.944l-5.839,5.84c-0.709,0.709-1.871,0.709-2.58,0l-5.839-5.84
		c-0.709-0.708-0.709-1.87,0-2.579l5.839-5.839c0.709-0.709,1.871-0.709,2.58,0l5.839,5.839
		C140.344,149.074,140.344,150.236,139.635,150.944z"/>
	
		<linearGradient id="SVGID_17_" gradientUnits="userSpaceOnUse" x1="8570.8184" y1="-12236.917" x2="8937.7021" y2="-12236.917" gradientTransform="matrix(0.0283 0 0 -0.0283 -115.6251 -197.2179)">
		<stop  offset="0" style="stop-color:#3693C3"/>
		<stop  offset="1" style="stop-color:#62C1DB"/>
	</linearGradient>
	<path fill="url(#SVGID_17_)" d="M137.027,150.944l-3.203,3.203c-0.709,0.709-1.871,0.709-2.58,0l-3.203-3.203
		c-0.708-0.708-0.708-1.87,0-2.579l3.203-3.203c0.709-0.708,1.871-0.708,2.58,0l3.203,3.203
		C137.735,149.074,137.735,150.236,137.027,150.944z"/>
	<path fill="#FFFFFF" d="M179.943,150.944l-5.839,5.84c-0.709,0.709-1.871,0.709-2.58,0l-5.839-5.84
		c-0.709-0.708-0.709-1.87,0-2.579l5.839-5.839c0.709-0.709,1.871-0.709,2.58,0l5.839,5.839
		C180.652,149.074,180.652,150.236,179.943,150.944z"/>
	
		<linearGradient id="SVGID_18_" gradientUnits="userSpaceOnUse" x1="9992.209" y1="-12236.917" x2="10359.0928" y2="-12236.917" gradientTransform="matrix(0.0283 0 0 -0.0283 -115.6251 -197.2179)">
		<stop  offset="0" style="stop-color:#3693C3"/>
		<stop  offset="1" style="stop-color:#62C1DB"/>
	</linearGradient>
	<path fill="url(#SVGID_18_)" d="M177.307,150.944l-3.203,3.203c-0.709,0.709-1.871,0.709-2.58,0l-3.203-3.203
		c-0.708-0.708-0.708-1.87,0-2.579l3.203-3.203c0.709-0.708,1.871-0.708,2.58,0l3.203,3.203
		C178.015,149.074,178.015,150.236,177.307,150.944z"/>
	<path fill="#FFFFFF" d="M224.164,150.944l-5.84,5.84c-0.708,0.709-1.87,0.709-2.579,0l-5.84-5.84c-0.708-0.708-0.708-1.87,0-2.579
		l5.84-5.839c0.709-0.709,1.871-0.709,2.579,0l5.84,5.839C224.873,149.074,224.873,150.236,224.164,150.944z"/>
	
		<linearGradient id="SVGID_19_" gradientUnits="userSpaceOnUse" x1="11552.7207" y1="-12236.917" x2="11919.6025" y2="-12236.917" gradientTransform="matrix(0.0283 0 0 -0.0283 -115.6251 -197.2179)">
		<stop  offset="0" style="stop-color:#3693C3"/>
		<stop  offset="1" style="stop-color:#62C1DB"/>
	</linearGradient>
	<path fill="url(#SVGID_19_)" d="M221.555,150.944l-3.203,3.203c-0.708,0.709-1.87,0.709-2.579,0l-3.203-3.203
		c-0.709-0.708-0.709-1.87,0-2.579l3.203-3.203c0.709-0.708,1.871-0.708,2.579,0l3.203,3.203
		C222.264,149.074,222.264,150.236,221.555,150.944z"/>
	<path fill="#FFFFFF" d="M266.91,150.944l-5.839,5.84c-0.709,0.709-1.871,0.709-2.58,0l-5.839-5.84c-0.709-0.708-0.709-1.87,0-2.579
		l5.839-5.839c0.709-0.709,1.871-0.709,2.58,0l5.839,5.839C267.619,149.074,267.619,150.236,266.91,150.944z"/>
	
		<linearGradient id="SVGID_20_" gradientUnits="userSpaceOnUse" x1="13060.0977" y1="-12236.917" x2="13427.0059" y2="-12236.917" gradientTransform="matrix(0.0283 0 0 -0.0283 -115.6251 -197.2179)">
		<stop  offset="0" style="stop-color:#3693C3"/>
		<stop  offset="1" style="stop-color:#62C1DB"/>
	</linearGradient>
	<path fill="url(#SVGID_20_)" d="M264.274,150.944l-3.203,3.203c-0.709,0.709-1.871,0.709-2.58,0l-3.203-3.203
		c-0.708-0.708-0.708-1.87,0-2.579l3.203-3.203c0.709-0.708,1.871-0.708,2.58,0l3.203,3.203
		C264.983,149.074,264.983,150.236,264.274,150.944z"/>
	<path fill="#FFFFFF" d="M309.884,150.944l-5.84,5.84c-0.708,0.709-1.87,0.709-2.579,0l-5.84-5.84c-0.708-0.708-0.708-1.87,0-2.579
		l5.84-5.839c0.709-0.709,1.871-0.709,2.579,0l5.84,5.839C310.593,149.074,310.593,150.236,309.884,150.944z"/>
	
		<linearGradient id="SVGID_21_" gradientUnits="userSpaceOnUse" x1="14576.7832" y1="-12236.917" x2="14943.5752" y2="-12236.917" gradientTransform="matrix(0.0283 0 0 -0.0283 -115.6251 -197.2179)">
		<stop  offset="0" style="stop-color:#3693C3"/>
		<stop  offset="1" style="stop-color:#62C1DB"/>
	</linearGradient>
	<path fill="url(#SVGID_21_)" d="M307.275,150.944l-3.203,3.203c-0.708,0.709-1.87,0.709-2.579,0l-3.203-3.203
		c-0.709-0.708-0.709-1.87,0-2.579l3.203-3.203c0.709-0.708,1.871-0.708,2.579,0l3.203,3.203
		C307.984,149.074,307.984,150.236,307.275,150.944z"/>
	<path fill="#FFFFFF" d="M351.241,150.944l-5.84,5.84c-0.708,0.709-1.87,0.709-2.579,0l-5.839-5.84c-0.709-0.708-0.709-1.87,0-2.579
		l5.839-5.839c0.709-0.709,1.871-0.709,2.579,0l5.84,5.839C351.95,149.074,351.95,150.236,351.241,150.944z"/>
	
		<linearGradient id="SVGID_22_" gradientUnits="userSpaceOnUse" x1="16035.4902" y1="-12236.917" x2="16402.375" y2="-12236.917" gradientTransform="matrix(0.0283 0 0 -0.0283 -115.6251 -197.2179)">
		<stop  offset="0" style="stop-color:#3693C3"/>
		<stop  offset="1" style="stop-color:#62C1DB"/>
	</linearGradient>
	<path fill="url(#SVGID_22_)" d="M348.604,150.944l-3.203,3.203c-0.708,0.709-1.87,0.709-2.579,0l-3.203-3.203
		c-0.709-0.708-0.709-1.87,0-2.579l3.203-3.203c0.709-0.708,1.871-0.708,2.579,0l3.203,3.203
		C349.313,149.074,349.313,150.236,348.604,150.944z"/>
	<path fill="#FFFFFF" d="M394.753,150.944l-5.839,5.84c-0.709,0.709-1.871,0.709-2.58,0l-5.839-5.84
		c-0.709-0.708-0.709-1.87,0-2.579l5.839-5.839c0.709-0.709,1.871-0.709,2.58,0l5.839,5.839
		C395.462,149.074,395.462,150.236,394.753,150.944z"/>
	
		<linearGradient id="SVGID_23_" gradientUnits="userSpaceOnUse" x1="17570.4824" y1="-12236.917" x2="17937.3828" y2="-12236.917" gradientTransform="matrix(0.0283 0 0 -0.0283 -115.6251 -197.2179)">
		<stop  offset="0" style="stop-color:#3693C3"/>
		<stop  offset="1" style="stop-color:#62C1DB"/>
	</linearGradient>
	<path fill="url(#SVGID_23_)" d="M392.117,150.944l-3.203,3.203c-0.709,0.709-1.871,0.709-2.58,0l-3.203-3.203
		c-0.709-0.708-0.709-1.87,0-2.579l3.203-3.203c0.709-0.708,1.871-0.708,2.58,0l3.203,3.203
		C392.825,149.074,392.825,150.236,392.117,150.944z"/>
	<path fill="#FFFFFF" d="M436.082,150.944l-5.839,5.84c-0.709,0.709-1.871,0.709-2.58,0l-5.839-5.84
		c-0.709-0.708-0.709-1.87,0-2.579l5.839-5.839c0.709-0.709,1.871-0.709,2.58,0l5.839,5.839
		C436.791,149.074,436.791,150.236,436.082,150.944z"/>
	
		<linearGradient id="SVGID_24_" gradientUnits="userSpaceOnUse" x1="19028.3066" y1="-12236.917" x2="19395.207" y2="-12236.917" gradientTransform="matrix(0.0283 0 0 -0.0283 -115.6251 -197.2179)">
		<stop  offset="0" style="stop-color:#3693C3"/>
		<stop  offset="1" style="stop-color:#62C1DB"/>
	</linearGradient>
	<path fill="url(#SVGID_24_)" d="M433.446,150.944l-3.203,3.203c-0.709,0.709-1.871,0.709-2.58,0l-3.203-3.203
		c-0.708-0.708-0.708-1.87,0-2.579l3.203-3.203c0.709-0.708,1.871-0.708,2.58,0l3.203,3.203
		C434.154,149.074,434.154,150.236,433.446,150.944z"/>
	<path fill="#3693C3" d="M35.943,169.796c0.907-0.709,1.616-1.305,2.098-1.787c0.511-0.453,0.936-0.935,1.275-1.445
		c0.341-0.51,0.539-0.992,0.539-1.502c0-0.453-0.113-0.822-0.34-1.077c-0.228-0.255-0.596-0.397-1.077-0.397
		c-0.482,0-0.851,0.143-1.105,0.454c-0.256,0.312-0.397,0.708-0.426,1.19h-0.936c0.028-0.793,0.255-1.418,0.709-1.842
		c0.453-0.426,1.049-0.652,1.758-0.652c0.736,0,1.304,0.198,1.729,0.596c0.426,0.396,0.652,0.963,0.652,1.672
		c0,0.596-0.17,1.162-0.539,1.701c-0.34,0.566-0.736,1.049-1.19,1.474c-0.453,0.425-1.021,0.907-1.7,1.474h3.656v0.794h-5.103
		v-0.681V169.796z"/>
	<path id="_x31_" fill="#3693C3" d="M42.151,166.677c0-1.219,0.198-2.154,0.596-2.834c0.396-0.681,1.077-1.021,2.069-1.021
		s1.672,0.341,2.069,1.021c0.396,0.68,0.595,1.645,0.595,2.834c0,1.248-0.198,2.211-0.595,2.892
		c-0.397,0.681-1.077,1.021-2.069,1.021s-1.673-0.34-2.069-1.021C42.349,168.888,42.151,167.925,42.151,166.677z M46.545,166.677
		c0-0.623-0.028-1.133-0.113-1.559s-0.255-0.766-0.51-1.021c-0.256-0.255-0.624-0.397-1.077-0.397c-0.482,0-0.851,0.143-1.105,0.397
		c-0.256,0.255-0.426,0.595-0.511,1.021s-0.113,0.936-0.113,1.559c0,0.624,0.028,1.162,0.113,1.616
		c0.085,0.425,0.255,0.765,0.511,1.049c0.255,0.255,0.623,0.397,1.105,0.397c0.481,0,0.85-0.143,1.077-0.397
		c0.255-0.255,0.425-0.595,0.51-1.049C46.516,167.868,46.545,167.329,46.545,166.677z"/>
	<polygon id="_x32_" fill="#3693C3" points="48.557,163.786 48.557,162.907 50.542,162.907 50.542,170.589 49.578,170.589 
		49.578,163.786 	"/>
	<path id="_x33_" fill="#3693C3" d="M56.495,164.749c-0.143-0.793-0.652-1.189-1.446-1.189c-0.623,0-1.105,0.254-1.417,0.736
		s-0.454,1.275-0.454,2.381c0.171-0.368,0.426-0.651,0.822-0.879c0.369-0.197,0.794-0.311,1.275-0.311
		c0.737,0,1.305,0.227,1.758,0.68c0.426,0.453,0.652,1.077,0.652,1.871c0,0.481-0.085,0.906-0.284,1.304
		c-0.198,0.368-0.481,0.681-0.85,0.907c-0.369,0.227-0.851,0.34-1.361,0.34c-0.736,0-1.304-0.17-1.7-0.482
		c-0.397-0.311-0.709-0.765-0.851-1.359c-0.17-0.567-0.255-1.276-0.255-2.127c0-2.607,0.907-3.883,2.721-3.883
		c0.681,0,1.247,0.198,1.645,0.566c0.396,0.369,0.623,0.851,0.709,1.418H56.58L56.495,164.749z M55.049,166.337
		c-0.312,0-0.595,0.057-0.851,0.199c-0.255,0.113-0.481,0.311-0.651,0.566c-0.17,0.255-0.255,0.566-0.255,0.906
		c0,0.539,0.142,0.965,0.453,1.305s0.766,0.51,1.332,0.51c0.482,0,0.879-0.141,1.19-0.453c0.284-0.313,0.454-0.736,0.454-1.248
		c0-0.537-0.142-0.991-0.426-1.303C56.012,166.507,55.588,166.337,55.049,166.337z"/>
	<path fill="#3693C3" d="M77.811,169.796c0.907-0.709,1.615-1.305,2.098-1.787c0.51-0.453,0.936-0.935,1.275-1.445
		c0.34-0.51,0.538-0.992,0.538-1.502c0-0.453-0.113-0.822-0.34-1.077s-0.595-0.397-1.077-0.397c-0.481,0-0.851,0.143-1.105,0.454
		s-0.396,0.708-0.425,1.19H77.84c0.028-0.793,0.255-1.418,0.708-1.842c0.454-0.426,1.049-0.652,1.758-0.652
		c0.737,0,1.304,0.198,1.729,0.596c0.425,0.396,0.651,0.963,0.651,1.672c0,0.596-0.17,1.162-0.538,1.701
		c-0.34,0.566-0.737,1.049-1.19,1.474c-0.454,0.425-1.021,0.907-1.701,1.474h3.657v0.794h-5.103v-0.681V169.796z"/>
	<path id="_x31__1_" fill="#3693C3" d="M84.019,166.677c0-1.219,0.198-2.154,0.595-2.834c0.397-0.681,1.077-1.021,2.069-1.021
		s1.673,0.341,2.069,1.021c0.396,0.68,0.596,1.645,0.596,2.834c0,1.248-0.199,2.211-0.596,2.892s-1.077,1.021-2.069,1.021
		s-1.672-0.34-2.069-1.021C84.218,168.888,84.019,167.925,84.019,166.677z M88.413,166.677c0-0.623-0.028-1.133-0.113-1.559
		s-0.256-0.766-0.511-1.021s-0.623-0.397-1.077-0.397c-0.481,0-0.851,0.143-1.105,0.397s-0.425,0.595-0.51,1.021
		s-0.113,0.936-0.113,1.559c0,0.624,0.028,1.162,0.113,1.616c0.085,0.425,0.255,0.765,0.51,1.049
		c0.255,0.255,0.624,0.397,1.105,0.397c0.482,0,0.851-0.143,1.077-0.397c0.255-0.255,0.426-0.595,0.511-1.049
		C88.385,167.868,88.413,167.329,88.413,166.677z"/>
	<polygon id="_x32__1_" fill="#3693C3" points="90.426,163.786 90.426,162.907 92.438,162.907 92.438,170.589 91.446,170.589 
		91.446,163.786 	"/>
	<polygon id="_x33__1_" fill="#3693C3" points="98.816,163.673 95.868,170.589 94.876,170.589 97.881,163.757 93.77,163.757 
		93.77,162.936 98.816,162.936 	"/>
	<path fill="#3693C3" d="M119.678,169.796c0.907-0.709,1.616-1.305,2.098-1.787c0.511-0.453,0.936-0.935,1.275-1.445
		c0.341-0.51,0.539-0.992,0.539-1.502c0-0.453-0.113-0.822-0.34-1.077c-0.228-0.255-0.596-0.397-1.077-0.397
		c-0.482,0-0.851,0.143-1.105,0.454c-0.256,0.312-0.397,0.708-0.426,1.19h-0.936c0.028-0.793,0.256-1.418,0.709-1.842
		c0.453-0.426,1.049-0.652,1.758-0.652c0.736,0,1.304,0.198,1.729,0.596c0.426,0.396,0.652,0.963,0.652,1.672
		c0,0.596-0.17,1.162-0.539,1.701c-0.34,0.566-0.736,1.049-1.19,1.474c-0.453,0.425-1.021,0.907-1.7,1.474h3.656v0.794h-5.103
		v-0.681V169.796z"/>
	<path id="_x31__2_" fill="#3693C3" d="M125.915,166.677c0-1.219,0.198-2.154,0.596-2.834c0.396-0.681,1.077-1.021,2.069-1.021
		s1.672,0.341,2.069,1.021c0.396,0.68,0.595,1.645,0.595,2.834c0,1.248-0.198,2.211-0.595,2.892
		c-0.397,0.681-1.077,1.021-2.069,1.021s-1.673-0.34-2.069-1.021C126.113,168.888,125.915,167.925,125.915,166.677z
		 M130.308,166.677c0-0.623-0.028-1.133-0.113-1.559s-0.255-0.766-0.51-1.021c-0.256-0.255-0.624-0.397-1.077-0.397
		c-0.482,0-0.851,0.143-1.105,0.397c-0.256,0.255-0.426,0.595-0.511,1.021s-0.113,0.936-0.113,1.559
		c0,0.624,0.028,1.162,0.113,1.616c0.085,0.425,0.255,0.765,0.511,1.049c0.255,0.255,0.623,0.397,1.105,0.397
		c0.481,0,0.851-0.143,1.077-0.397c0.255-0.255,0.425-0.595,0.51-1.049C130.28,167.868,130.308,167.329,130.308,166.677z"/>
	<polygon id="_x32__2_" fill="#3693C3" points="132.321,163.786 132.321,162.907 134.305,162.907 134.305,170.589 133.342,170.589 
		133.342,163.786 	"/>
	<path id="_x33__2_" fill="#3693C3" d="M137.367,166.593c-0.396-0.143-0.709-0.369-0.907-0.682
		c-0.198-0.283-0.312-0.651-0.312-1.076c0-0.369,0.085-0.737,0.283-1.021c0.198-0.311,0.482-0.538,0.851-0.736
		c0.368-0.17,0.851-0.283,1.36-0.283c0.539,0,0.992,0.085,1.36,0.283c0.369,0.17,0.652,0.426,0.851,0.736
		c0.198,0.313,0.284,0.652,0.284,1.021c0,0.396-0.114,0.766-0.341,1.076c-0.227,0.313-0.51,0.539-0.907,0.682
		c0.426,0.141,0.794,0.367,1.049,0.708c0.256,0.341,0.397,0.737,0.397,1.219c0,0.454-0.113,0.851-0.341,1.19
		c-0.227,0.34-0.538,0.596-0.964,0.794c-0.425,0.198-0.878,0.284-1.417,0.284c-0.538,0-1.021-0.086-1.417-0.284
		c-0.397-0.198-0.737-0.454-0.936-0.794c-0.227-0.34-0.34-0.736-0.34-1.19c0-0.481,0.142-0.878,0.368-1.219
		c0.255-0.341,0.596-0.567,1.049-0.708H137.367z M140.23,164.948c0-0.426-0.142-0.766-0.426-0.992
		c-0.283-0.227-0.68-0.34-1.162-0.34c-0.481,0-0.879,0.113-1.162,0.34s-0.425,0.566-0.425,1.021c0,0.396,0.142,0.708,0.453,0.964
		c0.283,0.227,0.681,0.368,1.134,0.368c0.482,0,0.851-0.113,1.162-0.368c0.284-0.256,0.454-0.567,0.454-0.964L140.23,164.948z
		 M138.642,167.017c-0.51,0-0.964,0.114-1.275,0.369c-0.34,0.256-0.51,0.623-0.51,1.105c0,0.453,0.17,0.822,0.481,1.105
		s0.766,0.426,1.304,0.426c0.539,0,0.964-0.143,1.304-0.426c0.313-0.283,0.482-0.652,0.482-1.105c0-0.482-0.17-0.85-0.482-1.077
		c-0.312-0.255-0.765-0.368-1.275-0.368L138.642,167.017z"/>
	<path fill="#3693C3" d="M161.575,169.796c0.907-0.709,1.615-1.305,2.098-1.787c0.51-0.453,0.936-0.935,1.275-1.445
		c0.34-0.51,0.539-0.992,0.539-1.502c0-0.453-0.114-0.822-0.341-1.077s-0.595-0.397-1.077-0.397c-0.481,0-0.851,0.143-1.105,0.454
		s-0.396,0.708-0.425,1.19h-0.936c0.028-0.793,0.255-1.418,0.709-1.842c0.453-0.426,1.049-0.652,1.757-0.652
		c0.737,0,1.304,0.198,1.729,0.596c0.425,0.396,0.651,0.963,0.651,1.672c0,0.596-0.17,1.162-0.538,1.701
		c-0.34,0.566-0.737,1.049-1.19,1.474c-0.454,0.425-1.021,0.907-1.701,1.474h3.657v0.794h-5.103v-0.681V169.796z"/>
	<path id="_x31__3_" fill="#3693C3" d="M167.783,166.677c0-1.219,0.198-2.154,0.595-2.834c0.397-0.681,1.077-1.021,2.069-1.021
		s1.673,0.341,2.069,1.021c0.397,0.68,0.596,1.645,0.596,2.834c0,1.248-0.198,2.211-0.596,2.892
		c-0.396,0.681-1.077,1.021-2.069,1.021s-1.672-0.34-2.069-1.021C167.981,168.888,167.783,167.925,167.783,166.677z
		 M172.177,166.677c0-0.623-0.028-1.133-0.113-1.559s-0.255-0.766-0.511-1.021c-0.255-0.255-0.623-0.397-1.077-0.397
		c-0.481,0-0.851,0.143-1.105,0.397s-0.425,0.595-0.51,1.021s-0.113,0.936-0.113,1.559c0,0.624,0.028,1.162,0.113,1.616
		c0.085,0.425,0.255,0.765,0.51,1.049c0.255,0.255,0.624,0.397,1.105,0.397c0.482,0,0.851-0.143,1.077-0.397
		c0.256-0.255,0.426-0.595,0.511-1.049C172.148,167.868,172.177,167.329,172.177,166.677z"/>
	<polygon id="_x32__3_" fill="#3693C3" points="174.189,163.786 174.189,162.907 176.174,162.907 176.174,170.589 175.21,170.589 
		175.21,163.786 	"/>
	<path id="_x33__3_" fill="#3693C3" d="M179.093,168.52c0.057,0.397,0.228,0.709,0.482,0.936c0.255,0.228,0.595,0.341,1.049,0.341
		c0.595,0,1.021-0.228,1.304-0.682c0.283-0.453,0.425-1.246,0.396-2.324c-0.142,0.313-0.396,0.567-0.736,0.737
		c-0.341,0.171-0.737,0.284-1.162,0.284c-0.482,0-0.907-0.086-1.276-0.284c-0.368-0.198-0.651-0.481-0.878-0.851
		c-0.199-0.368-0.313-0.822-0.313-1.36c0-0.765,0.228-1.36,0.652-1.843c0.425-0.453,1.049-0.709,1.871-0.709
		c0.992,0,1.672,0.313,2.098,0.965c0.396,0.652,0.595,1.615,0.595,2.863c0,0.878-0.085,1.615-0.227,2.211
		c-0.17,0.566-0.425,1.02-0.794,1.332c-0.368,0.312-0.907,0.453-1.559,0.453c-0.709,0-1.275-0.198-1.701-0.596
		c-0.396-0.396-0.623-0.879-0.68-1.474H179.093z M180.595,166.96c0.481,0,0.851-0.141,1.162-0.453
		c0.312-0.283,0.453-0.68,0.453-1.19c0-0.538-0.142-0.964-0.453-1.275c-0.283-0.312-0.709-0.481-1.247-0.481
		c-0.482,0-0.879,0.141-1.19,0.453c-0.284,0.312-0.454,0.709-0.454,1.219s0.142,0.936,0.426,1.247
		c0.283,0.312,0.708,0.454,1.275,0.454L180.595,166.96z"/>
	<path fill="#3693C3" d="M203.442,169.796c0.907-0.709,1.616-1.305,2.098-1.787c0.511-0.453,0.936-0.935,1.276-1.445
		c0.34-0.51,0.538-0.992,0.538-1.502c0-0.453-0.113-0.822-0.34-1.077s-0.596-0.397-1.077-0.397c-0.482,0-0.851,0.143-1.105,0.454
		c-0.256,0.312-0.397,0.708-0.426,1.19h-0.936c0.028-0.793,0.256-1.418,0.709-1.842c0.454-0.426,1.049-0.652,1.758-0.652
		c0.736,0,1.304,0.198,1.729,0.596c0.426,0.396,0.652,0.963,0.652,1.672c0,0.596-0.17,1.162-0.539,1.701
		c-0.34,0.566-0.736,1.049-1.19,1.474c-0.453,0.425-1.021,0.907-1.7,1.474h3.656v0.794h-5.103v-0.681V169.796z"/>
	<path id="_x31__4_" fill="#3693C3" d="M209.65,166.677c0-1.219,0.198-2.154,0.596-2.834c0.396-0.681,1.077-1.021,2.069-1.021
		s1.672,0.341,2.069,1.021c0.396,0.68,0.595,1.645,0.595,2.834c0,1.248-0.198,2.211-0.595,2.892
		c-0.397,0.681-1.077,1.021-2.069,1.021s-1.673-0.34-2.069-1.021C209.848,168.888,209.65,167.925,209.65,166.677z M214.044,166.677
		c0-0.623-0.028-1.133-0.113-1.559s-0.255-0.766-0.51-1.021s-0.624-0.397-1.077-0.397c-0.482,0-0.851,0.143-1.105,0.397
		s-0.426,0.595-0.511,1.021s-0.113,0.936-0.113,1.559c0,0.624,0.028,1.162,0.113,1.616c0.085,0.425,0.256,0.765,0.511,1.049
		c0.255,0.255,0.623,0.397,1.105,0.397c0.481,0,0.851-0.143,1.077-0.397c0.255-0.255,0.425-0.595,0.51-1.049
		C214.015,167.868,214.044,167.329,214.044,166.677z"/>
	<path id="_x32__4_" fill="#3693C3" d="M216.198,169.796c0.907-0.709,1.616-1.305,2.098-1.787c0.511-0.453,0.936-0.935,1.276-1.445
		c0.34-0.51,0.538-0.992,0.538-1.502c0-0.453-0.113-0.822-0.34-1.077s-0.596-0.397-1.077-0.397c-0.482,0-0.851,0.143-1.105,0.454
		s-0.397,0.708-0.426,1.19h-0.936c0.028-0.793,0.256-1.418,0.709-1.842c0.454-0.426,1.049-0.652,1.758-0.652
		c0.736,0,1.304,0.198,1.729,0.596c0.426,0.396,0.652,0.963,0.652,1.672c0,0.596-0.17,1.162-0.538,1.701
		c-0.341,0.566-0.737,1.049-1.191,1.474c-0.453,0.425-1.021,0.907-1.7,1.474h3.656v0.794h-5.103v-0.681V169.796z"/>
	<path id="_x33__4_" fill="#3693C3" d="M222.434,166.677c0-1.219,0.199-2.154,0.596-2.834c0.396-0.681,1.077-1.021,2.069-1.021
		s1.672,0.341,2.069,1.021c0.396,0.68,0.595,1.645,0.595,2.834c0,1.248-0.198,2.211-0.595,2.892
		c-0.397,0.681-1.077,1.021-2.069,1.021s-1.673-0.34-2.069-1.021S222.434,167.925,222.434,166.677z M226.828,166.677
		c0-0.623-0.028-1.133-0.113-1.559s-0.255-0.766-0.51-1.021s-0.624-0.397-1.077-0.397c-0.482,0-0.851,0.143-1.105,0.397
		s-0.426,0.595-0.511,1.021s-0.113,0.936-0.113,1.559c0,0.624,0.028,1.162,0.113,1.616c0.085,0.425,0.256,0.765,0.511,1.049
		c0.255,0.255,0.623,0.397,1.105,0.397c0.481,0,0.851-0.143,1.077-0.397c0.255-0.255,0.425-0.595,0.51-1.049
		C226.8,167.868,226.828,167.329,226.828,166.677z"/>
	<path fill="#3693C3" d="M249.421,169.796c0.907-0.709,1.615-1.305,2.098-1.787c0.51-0.453,0.936-0.935,1.275-1.445
		c0.34-0.51,0.538-0.992,0.538-1.502c0-0.453-0.113-0.822-0.34-1.077s-0.595-0.397-1.077-0.397c-0.481,0-0.851,0.143-1.105,0.454
		s-0.396,0.708-0.425,1.19h-0.936c0.028-0.793,0.255-1.418,0.708-1.842c0.454-0.426,1.049-0.652,1.758-0.652
		c0.737,0,1.304,0.198,1.729,0.596c0.425,0.396,0.651,0.963,0.651,1.672c0,0.596-0.17,1.162-0.538,1.701
		c-0.34,0.566-0.737,1.049-1.19,1.474c-0.454,0.425-1.021,0.907-1.701,1.474h3.657v0.794h-5.103v-0.681V169.796z"/>
	<path id="_x31__5_" fill="#3693C3" d="M255.629,166.677c0-1.219,0.198-2.154,0.595-2.834c0.397-0.681,1.077-1.021,2.069-1.021
		s1.673,0.341,2.069,1.021c0.397,0.68,0.596,1.645,0.596,2.834c0,1.248-0.198,2.211-0.596,2.892
		c-0.396,0.681-1.077,1.021-2.069,1.021s-1.672-0.34-2.069-1.021C255.827,168.888,255.629,167.925,255.629,166.677z
		 M260.022,166.677c0-0.623-0.028-1.133-0.113-1.559s-0.256-0.766-0.511-1.021s-0.623-0.397-1.077-0.397
		c-0.481,0-0.851,0.143-1.105,0.397s-0.425,0.595-0.51,1.021s-0.113,0.936-0.113,1.559c0,0.624,0.028,1.162,0.113,1.616
		c0.085,0.425,0.255,0.765,0.51,1.049c0.255,0.255,0.624,0.397,1.105,0.397c0.482,0,0.851-0.143,1.077-0.397
		c0.255-0.255,0.426-0.595,0.511-1.049C259.994,167.868,260.022,167.329,260.022,166.677z"/>
	<path id="_x32__5_" fill="#3693C3" d="M262.177,169.796c0.907-0.709,1.615-1.305,2.098-1.787c0.51-0.453,0.936-0.935,1.275-1.445
		c0.34-0.51,0.539-0.992,0.539-1.502c0-0.453-0.114-0.822-0.341-1.077s-0.595-0.397-1.077-0.397c-0.481,0-0.851,0.143-1.105,0.454
		s-0.396,0.708-0.425,1.19h-0.936c0.028-0.793,0.255-1.418,0.709-1.842c0.453-0.426,1.049-0.652,1.757-0.652
		c0.737,0,1.304,0.198,1.729,0.596c0.425,0.396,0.651,0.963,0.651,1.672c0,0.596-0.17,1.162-0.538,1.701
		c-0.34,0.566-0.737,1.049-1.19,1.474c-0.454,0.425-1.021,0.907-1.701,1.474h3.657v0.794h-5.103v-0.681V169.796z"/>
	<polygon id="_x33__5_" fill="#3693C3" points="268.158,163.786 268.158,162.907 270.141,162.907 270.141,170.589 269.177,170.589 
		269.177,163.786 	"/>
	<path fill="#3693C3" d="M290.778,169.796c0.907-0.709,1.615-1.305,2.098-1.787c0.51-0.453,0.936-0.935,1.275-1.445
		c0.34-0.51,0.539-0.992,0.539-1.502c0-0.453-0.114-0.822-0.341-1.077s-0.595-0.397-1.077-0.397c-0.481,0-0.851,0.143-1.105,0.454
		s-0.396,0.708-0.425,1.19h-0.936c0.028-0.793,0.255-1.418,0.709-1.842c0.453-0.426,1.049-0.652,1.757-0.652
		c0.737,0,1.304,0.198,1.729,0.596c0.425,0.396,0.651,0.963,0.651,1.672c0,0.596-0.17,1.162-0.538,1.701
		c-0.34,0.566-0.737,1.049-1.19,1.474c-0.454,0.425-1.021,0.907-1.701,1.474h3.657v0.794h-5.103v-0.681V169.796z"/>
	<path id="_x31__6_" fill="#3693C3" d="M297.014,166.677c0-1.219,0.198-2.154,0.595-2.834c0.397-0.681,1.077-1.021,2.069-1.021
		s1.673,0.341,2.069,1.021c0.397,0.68,0.596,1.645,0.596,2.834c0,1.248-0.198,2.211-0.596,2.892
		c-0.396,0.681-1.077,1.021-2.069,1.021s-1.672-0.34-2.069-1.021C297.213,168.888,297.014,167.925,297.014,166.677z
		 M301.408,166.677c0-0.623-0.028-1.133-0.113-1.559s-0.255-0.766-0.511-1.021c-0.255-0.255-0.623-0.397-1.077-0.397
		c-0.481,0-0.851,0.143-1.105,0.397s-0.425,0.595-0.51,1.021s-0.113,0.936-0.113,1.559c0,0.624,0.028,1.162,0.113,1.616
		c0.085,0.425,0.255,0.765,0.51,1.049c0.255,0.255,0.624,0.397,1.105,0.397c0.482,0,0.851-0.143,1.077-0.397
		c0.256-0.255,0.426-0.595,0.511-1.049C301.38,167.868,301.408,167.329,301.408,166.677z"/>
	<path id="_x32__6_" fill="#3693C3" d="M303.562,169.796c0.907-0.709,1.615-1.305,2.098-1.787c0.51-0.453,0.936-0.935,1.275-1.445
		c0.34-0.51,0.539-0.992,0.539-1.502c0-0.453-0.113-0.822-0.341-1.077c-0.227-0.255-0.595-0.397-1.077-0.397
		c-0.481,0-0.851,0.143-1.105,0.454s-0.396,0.708-0.425,1.19h-0.936c0.028-0.793,0.255-1.418,0.709-1.842
		c0.453-0.426,1.049-0.652,1.757-0.652c0.737,0,1.305,0.198,1.729,0.596c0.425,0.396,0.652,0.963,0.652,1.672
		c0,0.596-0.171,1.162-0.539,1.701c-0.34,0.566-0.737,1.049-1.19,1.474c-0.454,0.425-1.021,0.907-1.701,1.474h3.657v0.794h-5.103
		v-0.681V169.796z"/>
	<path id="_x33__6_" fill="#3693C3" d="M309.657,169.796c0.907-0.709,1.615-1.305,2.098-1.787c0.51-0.453,0.936-0.935,1.275-1.445
		c0.34-0.51,0.538-0.992,0.538-1.502c0-0.453-0.113-0.822-0.34-1.077s-0.595-0.397-1.077-0.397c-0.481,0-0.851,0.143-1.105,0.454
		s-0.396,0.708-0.425,1.19h-0.936c0.028-0.793,0.255-1.418,0.708-1.842c0.454-0.426,1.049-0.652,1.758-0.652
		c0.737,0,1.304,0.198,1.729,0.596c0.425,0.396,0.651,0.963,0.651,1.672c0,0.596-0.17,1.162-0.538,1.701
		c-0.341,0.566-0.737,1.049-1.19,1.474c-0.454,0.425-1.021,0.907-1.701,1.474h3.657v0.794h-5.103v-0.681V169.796z"/>
	<path fill="#3693C3" d="M332.164,169.796c0.907-0.709,1.615-1.305,2.098-1.787c0.51-0.453,0.936-0.935,1.275-1.445
		c0.34-0.51,0.539-0.992,0.539-1.502c0-0.453-0.113-0.822-0.341-1.077c-0.227-0.255-0.595-0.397-1.077-0.397
		c-0.481,0-0.85,0.143-1.105,0.454c-0.255,0.312-0.396,0.708-0.425,1.19h-0.936c0.028-0.793,0.255-1.418,0.709-1.842
		c0.453-0.426,1.049-0.652,1.757-0.652c0.737,0,1.305,0.198,1.729,0.596c0.425,0.396,0.652,0.963,0.652,1.672
		c0,0.596-0.171,1.162-0.539,1.701c-0.34,0.566-0.737,1.049-1.19,1.474c-0.454,0.425-1.021,0.907-1.701,1.474h3.657v0.794h-5.103
		v-0.681V169.796z"/>
	<path id="_x31__7_" fill="#3693C3" d="M338.372,166.677c0-1.219,0.198-2.154,0.595-2.834c0.397-0.681,1.077-1.021,2.069-1.021
		s1.673,0.341,2.069,1.021c0.397,0.68,0.596,1.645,0.596,2.834c0,1.248-0.198,2.211-0.596,2.892
		c-0.396,0.681-1.077,1.021-2.069,1.021s-1.672-0.34-2.069-1.021C338.57,168.888,338.372,167.925,338.372,166.677z M342.765,166.677
		c0-0.623-0.028-1.133-0.113-1.559s-0.255-0.766-0.511-1.021c-0.255-0.255-0.623-0.397-1.077-0.397c-0.481,0-0.85,0.143-1.105,0.397
		c-0.255,0.255-0.425,0.595-0.51,1.021s-0.113,0.936-0.113,1.559c0,0.624,0.028,1.162,0.113,1.616
		c0.085,0.425,0.255,0.765,0.51,1.049c0.256,0.255,0.624,0.397,1.105,0.397c0.482,0,0.851-0.143,1.077-0.397
		c0.256-0.255,0.426-0.595,0.511-1.049C342.737,167.868,342.765,167.329,342.765,166.677z"/>
	<path id="_x32__7_" fill="#3693C3" d="M344.92,169.796c0.907-0.709,1.616-1.305,2.098-1.787c0.51-0.453,0.936-0.935,1.275-1.445
		c0.341-0.51,0.539-0.992,0.539-1.502c0-0.453-0.113-0.822-0.341-1.077c-0.227-0.255-0.595-0.397-1.077-0.397
		c-0.481,0-0.85,0.143-1.105,0.454c-0.255,0.312-0.396,0.708-0.425,1.19h-0.936c0.028-0.793,0.255-1.418,0.709-1.842
		c0.453-0.426,1.049-0.652,1.757-0.652c0.737,0,1.305,0.198,1.729,0.596c0.425,0.396,0.652,0.963,0.652,1.672
		c0,0.596-0.171,1.162-0.539,1.701c-0.34,0.566-0.737,1.049-1.19,1.474s-1.021,0.907-1.701,1.474h3.657v0.794h-5.103v-0.681V169.796
		z"/>
	<path id="_x33__7_" fill="#3693C3" d="M351.128,164.835c0.057-0.652,0.312-1.162,0.766-1.531c0.453-0.368,1.049-0.539,1.757-0.539
		c0.482,0,0.907,0.086,1.247,0.256c0.341,0.17,0.624,0.396,0.794,0.709c0.17,0.283,0.283,0.623,0.283,1.02
		c0,0.426-0.113,0.822-0.368,1.135c-0.255,0.312-0.566,0.51-0.992,0.623v0.057c0.454,0.113,0.822,0.34,1.105,0.681
		c0.255,0.341,0.397,0.765,0.397,1.304c0,0.396-0.086,0.766-0.284,1.077c-0.17,0.312-0.453,0.567-0.821,0.766
		c-0.369,0.17-0.822,0.283-1.333,0.283c-0.736,0-1.36-0.198-1.842-0.595c-0.482-0.396-0.737-0.936-0.794-1.673h0.936
		c0.057,0.425,0.227,0.765,0.51,1.049c0.283,0.255,0.681,0.397,1.19,0.397c0.482,0,0.879-0.143,1.134-0.397
		c0.256-0.255,0.397-0.595,0.397-0.992c0-0.538-0.17-0.907-0.539-1.134c-0.34-0.227-0.879-0.34-1.615-0.34H352.8v-0.794h0.256
		c0.651,0,1.134-0.113,1.474-0.312c0.34-0.199,0.511-0.539,0.511-0.965c0-0.367-0.114-0.68-0.369-0.906s-0.595-0.34-1.049-0.34
		c-0.425,0-0.794,0.113-1.049,0.34s-0.425,0.539-0.481,0.906h-0.936L351.128,164.835z"/>
	<path fill="#3693C3" d="M375.307,169.796c0.907-0.709,1.615-1.305,2.098-1.787c0.51-0.453,0.936-0.935,1.275-1.445
		c0.34-0.51,0.538-0.992,0.538-1.502c0-0.453-0.113-0.822-0.34-1.077s-0.595-0.397-1.077-0.397c-0.481,0-0.851,0.143-1.105,0.454
		s-0.396,0.708-0.425,1.19h-0.936c0.028-0.793,0.255-1.418,0.708-1.842c0.454-0.426,1.049-0.652,1.758-0.652
		c0.737,0,1.304,0.198,1.729,0.596c0.425,0.396,0.651,0.963,0.651,1.672c0,0.596-0.17,1.162-0.538,1.701
		c-0.341,0.566-0.737,1.049-1.19,1.474c-0.454,0.425-1.021,0.907-1.701,1.474h3.657v0.794h-5.103v-0.681V169.796z"/>
	<path id="_x31__8_" fill="#3693C3" d="M381.515,166.677c0-1.219,0.198-2.154,0.595-2.834c0.396-0.681,1.077-1.021,2.069-1.021
		s1.673,0.341,2.069,1.021c0.396,0.68,0.596,1.645,0.596,2.834c0,1.248-0.199,2.211-0.596,2.892s-1.077,1.021-2.069,1.021
		s-1.673-0.34-2.069-1.021S381.515,167.925,381.515,166.677z M385.909,166.677c0-0.623-0.028-1.133-0.113-1.559
		s-0.256-0.766-0.511-1.021s-0.623-0.397-1.077-0.397c-0.481,0-0.851,0.143-1.105,0.397s-0.425,0.595-0.51,1.021
		c-0.086,0.426-0.114,0.936-0.114,1.559c0,0.624,0.028,1.162,0.114,1.616c0.085,0.425,0.255,0.765,0.51,1.049
		c0.255,0.255,0.624,0.397,1.105,0.397c0.482,0,0.851-0.143,1.077-0.397c0.255-0.255,0.426-0.595,0.511-1.049
		C385.881,167.868,385.909,167.329,385.909,166.677z"/>
	<path id="_x32__8_" fill="#3693C3" d="M388.063,169.796c0.907-0.709,1.615-1.305,2.098-1.787c0.51-0.453,0.936-0.935,1.275-1.445
		c0.34-0.51,0.538-0.992,0.538-1.502c0-0.453-0.113-0.822-0.34-1.077s-0.595-0.397-1.077-0.397c-0.481,0-0.851,0.143-1.105,0.454
		s-0.396,0.708-0.425,1.19h-0.936c0.028-0.793,0.255-1.418,0.708-1.842c0.454-0.426,1.049-0.652,1.758-0.652
		c0.737,0,1.304,0.198,1.729,0.596c0.425,0.396,0.651,0.963,0.651,1.672c0,0.596-0.17,1.162-0.538,1.701
		c-0.34,0.566-0.737,1.049-1.19,1.474c-0.454,0.425-1.021,0.907-1.701,1.474h3.657v0.794h-5.103v-0.681V169.796z"/>
	<path id="_x33__8_" fill="#3693C3" d="M394.044,168.86v-0.738l3.714-5.158h1.162v5.045h1.049v0.852h-1.049v1.7h-0.964v-1.7H394.044
		z M398.012,163.984l-2.863,4.054h2.863V163.984z"/>
	<path fill="#3693C3" d="M416.778,169.796c0.907-0.709,1.615-1.305,2.098-1.787c0.51-0.453,0.936-0.935,1.275-1.445
		c0.34-0.51,0.539-0.992,0.539-1.502c0-0.453-0.114-0.822-0.341-1.077s-0.595-0.397-1.077-0.397c-0.481,0-0.851,0.143-1.105,0.454
		s-0.396,0.708-0.425,1.19h-0.936c0.028-0.793,0.255-1.418,0.709-1.842c0.453-0.426,1.049-0.652,1.757-0.652
		c0.737,0,1.304,0.198,1.729,0.596c0.425,0.396,0.652,0.963,0.652,1.672c0,0.596-0.17,1.162-0.539,1.701
		c-0.34,0.566-0.737,1.049-1.19,1.474c-0.454,0.425-1.021,0.907-1.701,1.474h3.657v0.794h-5.103v-0.681V169.796z"/>
	<path id="_x31__9_" fill="#3693C3" d="M422.986,166.677c0-1.219,0.198-2.154,0.596-2.834c0.396-0.681,1.077-1.021,2.068-1.021
		c0.992,0,1.673,0.341,2.069,1.021c0.397,0.68,0.596,1.645,0.596,2.834c0,1.248-0.198,2.211-0.596,2.892
		c-0.396,0.681-1.077,1.021-2.069,1.021c-0.991,0-1.672-0.34-2.068-1.021C423.184,168.888,422.986,167.925,422.986,166.677z
		 M427.38,166.677c0-0.623-0.028-1.133-0.113-1.559s-0.255-0.766-0.51-1.021c-0.256-0.255-0.624-0.397-1.077-0.397
		c-0.482,0-0.851,0.143-1.106,0.397c-0.255,0.255-0.425,0.595-0.51,1.021s-0.113,0.936-0.113,1.559c0,0.624,0.028,1.162,0.113,1.616
		c0.085,0.425,0.255,0.765,0.51,1.049c0.256,0.255,0.624,0.397,1.106,0.397c0.481,0,0.85-0.143,1.077-0.397
		c0.255-0.255,0.425-0.595,0.51-1.049C427.351,167.868,427.38,167.329,427.38,166.677z"/>
	<path id="_x32__9_" fill="#3693C3" d="M429.534,169.796c0.907-0.709,1.616-1.305,2.098-1.787c0.511-0.453,0.936-0.935,1.275-1.445
		c0.341-0.51,0.539-0.992,0.539-1.502c0-0.453-0.113-0.822-0.341-1.077c-0.227-0.255-0.595-0.397-1.076-0.397
		c-0.482,0-0.851,0.143-1.106,0.454c-0.255,0.312-0.396,0.708-0.425,1.19h-0.936c0.028-0.793,0.255-1.418,0.709-1.842
		c0.453-0.426,1.049-0.652,1.758-0.652c0.736,0,1.304,0.198,1.729,0.596c0.426,0.396,0.652,0.963,0.652,1.672
		c0,0.596-0.17,1.162-0.539,1.701c-0.34,0.566-0.736,1.049-1.19,1.474c-0.453,0.425-1.021,0.907-1.7,1.474h3.656v0.794h-5.103
		v-0.681V169.796z"/>
	<path id="_x33__9_" fill="#3693C3" d="M440.646,163.757h-3.714v2.41c0.17-0.227,0.397-0.426,0.709-0.566
		c0.312-0.143,0.651-0.228,1.021-0.228c0.595,0,1.077,0.114,1.445,0.368c0.368,0.256,0.624,0.567,0.794,0.936
		c0.17,0.397,0.227,0.794,0.227,1.219c0,0.511-0.085,0.965-0.283,1.361s-0.482,0.709-0.879,0.963
		c-0.396,0.228-0.879,0.341-1.445,0.341c-0.737,0-1.333-0.198-1.814-0.567c-0.454-0.368-0.737-0.879-0.851-1.53h0.936
		c0.085,0.397,0.283,0.708,0.596,0.936c0.283,0.227,0.68,0.341,1.134,0.341c0.566,0,0.992-0.171,1.275-0.511
		c0.283-0.341,0.425-0.794,0.425-1.333c0-0.538-0.142-0.963-0.425-1.275c-0.283-0.312-0.709-0.453-1.247-0.453
		c-0.369,0-0.709,0.085-0.992,0.283c-0.284,0.17-0.482,0.426-0.624,0.737h-0.907v-4.337h4.621v0.85V163.757z"/>
	<path fill="#3693C3" d="M459.439,169.796c0.907-0.709,1.616-1.305,2.098-1.787c0.511-0.453,0.936-0.935,1.276-1.445
		c0.34-0.51,0.538-0.992,0.538-1.502c0-0.453-0.113-0.822-0.34-1.077s-0.596-0.397-1.077-0.397c-0.482,0-0.851,0.143-1.105,0.454
		c-0.256,0.312-0.397,0.708-0.426,1.19h-0.936c0.028-0.793,0.256-1.418,0.709-1.842c0.454-0.426,1.049-0.652,1.758-0.652
		c0.736,0,1.304,0.198,1.729,0.596c0.426,0.396,0.652,0.963,0.652,1.672c0,0.596-0.17,1.162-0.539,1.701
		c-0.34,0.566-0.736,1.049-1.19,1.474c-0.453,0.425-1.021,0.907-1.7,1.474h3.656v0.794h-5.103v-0.681V169.796z"/>
	<path id="_x31__10_" fill="#3693C3" d="M465.647,166.677c0-1.219,0.198-2.154,0.596-2.834c0.396-0.681,1.077-1.021,2.069-1.021
		s1.672,0.341,2.069,1.021c0.396,0.68,0.595,1.645,0.595,2.834c0,1.248-0.198,2.211-0.595,2.892
		c-0.397,0.681-1.077,1.021-2.069,1.021s-1.673-0.34-2.069-1.021C465.845,168.888,465.647,167.925,465.647,166.677z
		 M470.041,166.677c0-0.623-0.028-1.133-0.113-1.559s-0.255-0.766-0.51-1.021s-0.624-0.397-1.077-0.397
		c-0.482,0-0.851,0.143-1.105,0.397s-0.426,0.595-0.511,1.021s-0.113,0.936-0.113,1.559c0,0.624,0.028,1.162,0.113,1.616
		c0.085,0.425,0.256,0.765,0.511,1.049c0.255,0.255,0.623,0.397,1.105,0.397c0.481,0,0.851-0.143,1.077-0.397
		c0.255-0.255,0.425-0.595,0.51-1.049C470.012,167.868,470.041,167.329,470.041,166.677z"/>
	<path id="_x32__10_" fill="#3693C3" d="M472.195,169.796c0.907-0.709,1.616-1.305,2.098-1.787c0.511-0.453,0.936-0.935,1.276-1.445
		c0.34-0.51,0.538-0.992,0.538-1.502c0-0.453-0.113-0.822-0.34-1.077s-0.596-0.397-1.077-0.397c-0.482,0-0.851,0.143-1.105,0.454
		s-0.397,0.708-0.426,1.19h-0.936c0.028-0.793,0.256-1.418,0.709-1.842c0.454-0.426,1.049-0.652,1.758-0.652
		c0.736,0,1.304,0.198,1.729,0.596c0.426,0.396,0.652,0.963,0.652,1.672c0,0.596-0.17,1.162-0.538,1.701
		c-0.341,0.566-0.737,1.049-1.191,1.474c-0.453,0.425-1.021,0.907-1.7,1.474h3.656v0.794h-5.103v-0.681V169.796z"/>
	<path id="_x33__10_" fill="#3693C3" d="M482.683,164.749c-0.142-0.793-0.651-1.189-1.445-1.189c-0.624,0-1.105,0.254-1.417,0.736
		c-0.313,0.482-0.454,1.275-0.454,2.381c0.17-0.368,0.426-0.651,0.822-0.879c0.368-0.197,0.794-0.311,1.275-0.311
		c0.737,0,1.304,0.227,1.758,0.68c0.425,0.453,0.651,1.077,0.651,1.871c0,0.481-0.085,0.906-0.283,1.304
		c-0.198,0.368-0.481,0.681-0.851,0.907c-0.368,0.227-0.85,0.34-1.36,0.34c-0.737,0-1.304-0.17-1.7-0.482
		c-0.397-0.311-0.709-0.765-0.851-1.359c-0.17-0.567-0.256-1.276-0.256-2.127c0-2.607,0.907-3.883,2.722-3.883
		c0.681,0,1.247,0.198,1.645,0.566c0.396,0.369,0.623,0.851,0.708,1.418h-0.879L482.683,164.749z M481.238,166.337
		c-0.312,0-0.596,0.057-0.851,0.199c-0.255,0.113-0.481,0.311-0.651,0.566c-0.171,0.255-0.256,0.566-0.256,0.906
		c0,0.539,0.142,0.965,0.454,1.305c0.312,0.34,0.765,0.51,1.332,0.51c0.481,0,0.879-0.141,1.19-0.453
		c0.283-0.313,0.454-0.736,0.454-1.248c0-0.537-0.143-0.991-0.426-1.303C482.202,166.507,481.776,166.337,481.238,166.337z"/>
	
		<linearGradient id="SVGID_25_" gradientUnits="userSpaceOnUse" x1="20150.0059" y1="-10484.4053" x2="21285.0059" y2="-10484.4053" gradientTransform="matrix(0.0283 0 0 -0.0283 -115.6251 -197.2179)">
		<stop  offset="0" style="stop-color:#3693C3"/>
		<stop  offset="1" style="stop-color:#62C1DB"/>
	</linearGradient>
	<polygon fill="url(#SVGID_25_)" points="487.729,148.45 487.729,51.505 455.556,51.505 455.556,148.45 	"/>
	
		<linearGradient id="SVGID_26_" gradientUnits="userSpaceOnUse" x1="21663.0371" y1="-10278.4053" x2="22798.0059" y2="-10278.4053" gradientTransform="matrix(0.0283 0 0 -0.0283 -115.6251 -197.2179)">
		<stop  offset="0" style="stop-color:#3693C3"/>
		<stop  offset="1" style="stop-color:#62C1DB"/>
	</linearGradient>
	<polygon fill="url(#SVGID_26_)" points="530.618,148.45 530.618,39.827 498.445,39.827 498.445,148.45 	"/>
	
		<linearGradient id="SVGID_27_" gradientUnits="userSpaceOnUse" x1="23196.5059" y1="-10069.9209" x2="24331.5059" y2="-10069.9209" gradientTransform="matrix(0.0283 0 0 -0.0283 -115.6251 -197.2179)">
		<stop  offset="0" style="stop-color:#3693C3"/>
		<stop  offset="1" style="stop-color:#62C1DB"/>
	</linearGradient>
	<polygon fill="url(#SVGID_27_)" points="574.087,148.45 574.087,28.006 541.914,28.006 541.914,148.45 	"/>
	<path fill="#FFFFFF" d="M478.744,150.944l-5.84,5.84c-0.709,0.709-1.871,0.709-2.579,0l-5.84-5.84c-0.709-0.708-0.709-1.87,0-2.579
		l5.84-5.839c0.708-0.709,1.87-0.709,2.579,0l5.84,5.839C479.452,149.074,479.452,150.236,478.744,150.944z"/>
	
		<linearGradient id="SVGID_28_" gradientUnits="userSpaceOnUse" x1="20534.0059" y1="-12236.917" x2="20900.9063" y2="-12236.917" gradientTransform="matrix(0.0283 0 0 -0.0283 -115.6251 -197.2179)">
		<stop  offset="0" style="stop-color:#3693C3"/>
		<stop  offset="1" style="stop-color:#62C1DB"/>
	</linearGradient>
	<path fill="url(#SVGID_28_)" d="M476.135,150.944l-3.203,3.203c-0.709,0.709-1.871,0.709-2.579,0l-3.203-3.203
		c-0.709-0.708-0.709-1.87,0-2.579l3.203-3.203c0.708-0.708,1.87-0.708,2.579,0l3.203,3.203
		C476.844,149.074,476.844,150.236,476.135,150.944z"/>
	<path fill="#FFFFFF" d="M521.66,150.944l-5.839,5.84c-0.709,0.709-1.871,0.709-2.58,0l-5.839-5.84c-0.709-0.708-0.709-1.87,0-2.579
		l5.839-5.839c0.709-0.709,1.871-0.709,2.58,0l5.839,5.839C522.369,149.074,522.369,150.236,521.66,150.944z"/>
	<path fill="#FFFFFF" d="M564.549,150.944l-5.84,5.84c-0.709,0.709-1.871,0.709-2.579,0l-5.84-5.84c-0.708-0.708-0.708-1.87,0-2.579
		l5.84-5.839c0.708-0.709,1.87-0.709,2.579,0l5.84,5.839C565.257,149.074,565.257,150.236,564.549,150.944z"/>
	<path fill="#3693C3" d="M502.668,169.796c0.907-0.709,1.616-1.305,2.098-1.787c0.511-0.453,0.936-0.935,1.275-1.445
		c0.341-0.51,0.539-0.992,0.539-1.502c0-0.453-0.113-0.822-0.34-1.077c-0.228-0.255-0.596-0.397-1.077-0.397
		c-0.482,0-0.851,0.143-1.105,0.454c-0.256,0.312-0.397,0.708-0.426,1.19h-0.936c0.028-0.793,0.255-1.418,0.709-1.842
		c0.453-0.426,1.049-0.652,1.758-0.652c0.736,0,1.304,0.198,1.729,0.596c0.426,0.396,0.652,0.963,0.652,1.672
		c0,0.596-0.17,1.162-0.539,1.701c-0.34,0.566-0.736,1.049-1.19,1.474c-0.453,0.425-1.021,0.907-1.7,1.474h3.656v0.794h-5.103
		v-0.681V169.796z"/>
	<path id="_x31__11_" fill="#3693C3" d="M508.904,166.677c0-1.219,0.198-2.154,0.596-2.834c0.396-0.681,1.077-1.021,2.069-1.021
		s1.672,0.341,2.069,1.021c0.396,0.68,0.595,1.645,0.595,2.834c0,1.248-0.198,2.211-0.595,2.892
		c-0.397,0.681-1.077,1.021-2.069,1.021s-1.673-0.34-2.069-1.021C509.102,168.888,508.904,167.925,508.904,166.677z
		 M513.298,166.677c0-0.623-0.028-1.133-0.113-1.559s-0.255-0.766-0.51-1.021c-0.256-0.255-0.624-0.397-1.077-0.397
		c-0.482,0-0.851,0.143-1.105,0.397c-0.256,0.255-0.426,0.595-0.511,1.021s-0.113,0.936-0.113,1.559
		c0,0.624,0.028,1.162,0.113,1.616c0.085,0.425,0.255,0.765,0.511,1.049c0.255,0.255,0.623,0.397,1.105,0.397
		c0.481,0,0.85-0.143,1.077-0.397c0.255-0.255,0.425-0.595,0.51-1.049C513.269,167.868,513.298,167.329,513.298,166.677z"/>
	<path id="_x32__11_" fill="#3693C3" d="M515.452,169.796c0.907-0.709,1.616-1.305,2.098-1.787c0.511-0.453,0.936-0.935,1.275-1.445
		c0.341-0.51,0.539-0.992,0.539-1.502c0-0.453-0.113-0.822-0.34-1.077c-0.228-0.255-0.596-0.397-1.077-0.397
		c-0.482,0-0.851,0.143-1.105,0.454c-0.256,0.312-0.397,0.708-0.426,1.19h-0.936c0.028-0.793,0.256-1.418,0.709-1.842
		c0.453-0.426,1.049-0.652,1.758-0.652c0.736,0,1.304,0.198,1.729,0.596c0.426,0.396,0.652,0.963,0.652,1.672
		c0,0.596-0.17,1.162-0.539,1.701c-0.34,0.566-0.736,1.049-1.19,1.474c-0.453,0.425-1.021,0.907-1.7,1.474h3.656v0.794h-5.103
		v-0.681V169.796z"/>
	<polygon id="_x33__11_" fill="#3693C3" points="526.394,163.673 523.418,170.589 522.454,170.589 525.459,163.757 521.348,163.757 
		521.348,162.936 526.394,162.936 	"/>
	<path fill="#3693C3" d="M545.216,169.796c0.907-0.709,1.616-1.305,2.098-1.787c0.511-0.453,0.936-0.935,1.276-1.445
		c0.34-0.51,0.538-0.992,0.538-1.502c0-0.453-0.113-0.822-0.34-1.077s-0.596-0.397-1.077-0.397c-0.482,0-0.851,0.143-1.105,0.454
		c-0.256,0.312-0.397,0.708-0.426,1.19h-0.936c0.028-0.793,0.256-1.418,0.709-1.842c0.453-0.426,1.049-0.652,1.758-0.652
		c0.736,0,1.304,0.198,1.729,0.596c0.426,0.396,0.652,0.963,0.652,1.672c0,0.596-0.17,1.162-0.539,1.701
		c-0.34,0.566-0.736,1.049-1.19,1.474c-0.453,0.425-1.021,0.907-1.7,1.474h3.656v0.794h-5.103v-0.681V169.796z"/>
	<path id="_x31__12_" fill="#3693C3" d="M551.452,166.677c0-1.219,0.198-2.154,0.596-2.834c0.396-0.681,1.077-1.021,2.069-1.021
		s1.672,0.341,2.069,1.021c0.396,0.68,0.595,1.645,0.595,2.834c0,1.248-0.198,2.211-0.595,2.892
		c-0.397,0.681-1.077,1.021-2.069,1.021s-1.673-0.34-2.069-1.021C551.65,168.888,551.452,167.925,551.452,166.677z M555.845,166.677
		c0-0.623-0.028-1.133-0.113-1.559s-0.255-0.766-0.51-1.021s-0.624-0.397-1.077-0.397c-0.482,0-0.851,0.143-1.105,0.397
		s-0.426,0.595-0.511,1.021s-0.113,0.936-0.113,1.559c0,0.624,0.028,1.162,0.113,1.616c0.085,0.425,0.256,0.765,0.511,1.049
		c0.255,0.255,0.623,0.397,1.105,0.397c0.481,0,0.851-0.143,1.077-0.397c0.255-0.255,0.425-0.595,0.51-1.049
		C555.817,167.868,555.845,167.329,555.845,166.677z"/>
	<path id="_x32__12_" fill="#3693C3" d="M558,169.796c0.907-0.709,1.616-1.305,2.098-1.787c0.511-0.453,0.936-0.935,1.276-1.445
		c0.34-0.51,0.538-0.992,0.538-1.502c0-0.453-0.113-0.822-0.34-1.077s-0.596-0.397-1.077-0.397c-0.482,0-0.851,0.143-1.105,0.454
		s-0.397,0.708-0.426,1.19h-0.935c0.027-0.793,0.255-1.418,0.708-1.842c0.454-0.426,1.049-0.652,1.758-0.652
		c0.737,0,1.304,0.198,1.729,0.596c0.426,0.396,0.652,0.963,0.652,1.672c0,0.596-0.17,1.162-0.538,1.701
		c-0.341,0.566-0.737,1.049-1.191,1.474c-0.453,0.425-1.021,0.907-1.7,1.474h3.656v0.794H558v-0.681V169.796z"/>
	<path id="_x33__12_" fill="#3693C3" d="M565.597,166.593c-0.397-0.143-0.709-0.369-0.907-0.682
		c-0.198-0.283-0.312-0.651-0.312-1.076c0-0.369,0.085-0.737,0.283-1.021c0.198-0.311,0.481-0.538,0.851-0.736
		c0.368-0.17,0.85-0.283,1.36-0.283c0.538,0,0.992,0.085,1.36,0.283c0.368,0.17,0.652,0.426,0.851,0.736
		c0.198,0.313,0.283,0.652,0.283,1.021c0,0.396-0.113,0.766-0.34,1.076c-0.227,0.313-0.511,0.539-0.907,0.682
		c0.425,0.141,0.794,0.367,1.049,0.708s0.396,0.737,0.396,1.219c0,0.454-0.113,0.851-0.34,1.19s-0.538,0.596-0.964,0.794
		c-0.425,0.198-0.879,0.284-1.417,0.284c-0.539,0-1.021-0.086-1.417-0.284c-0.397-0.198-0.737-0.454-0.936-0.794
		c-0.228-0.34-0.341-0.736-0.341-1.19c0-0.481,0.142-0.878,0.369-1.219c0.255-0.341,0.595-0.567,1.049-0.708H565.597z
		 M568.46,164.948c0-0.426-0.142-0.766-0.425-0.992s-0.681-0.34-1.162-0.34c-0.482,0-0.879,0.113-1.162,0.34
		s-0.426,0.566-0.426,1.021c0,0.396,0.143,0.708,0.454,0.964c0.283,0.227,0.68,0.368,1.134,0.368c0.481,0,0.851-0.113,1.162-0.368
		c0.283-0.256,0.453-0.567,0.453-0.964L568.46,164.948z M566.873,167.017c-0.511,0-0.964,0.114-1.275,0.369
		c-0.341,0.256-0.511,0.623-0.511,1.105c0,0.453,0.17,0.822,0.482,1.105c0.312,0.283,0.765,0.426,1.304,0.426
		c0.538,0,0.964-0.143,1.304-0.426c0.312-0.283,0.481-0.652,0.481-1.105c0-0.482-0.17-0.85-0.481-1.077
		c-0.312-0.255-0.766-0.368-1.275-0.368L566.873,167.017z"/>
	
		<linearGradient id="SVGID_29_" gradientUnits="userSpaceOnUse" x1="22047.0137" y1="-12236.917" x2="22413.9297" y2="-12236.917" gradientTransform="matrix(0.0283 0 0 -0.0283 -115.6251 -197.2179)">
		<stop  offset="0" style="stop-color:#3693C3"/>
		<stop  offset="1" style="stop-color:#62C1DB"/>
	</linearGradient>
	<path fill="url(#SVGID_29_)" d="M519.024,150.944l-3.203,3.203c-0.709,0.709-1.871,0.709-2.579,0l-3.203-3.203
		c-0.709-0.708-0.709-1.87,0-2.579l3.203-3.203c0.708-0.708,1.87-0.708,2.579,0l3.203,3.203
		C519.733,149.074,519.733,150.236,519.024,150.944z"/>
	
		<linearGradient id="SVGID_30_" gradientUnits="userSpaceOnUse" x1="23560.0059" y1="-12236.917" x2="23926.9063" y2="-12236.917" gradientTransform="matrix(0.0283 0 0 -0.0283 -115.6251 -197.2179)">
		<stop  offset="0" style="stop-color:#3693C3"/>
		<stop  offset="1" style="stop-color:#62C1DB"/>
	</linearGradient>
	<path fill="url(#SVGID_30_)" d="M561.912,150.944l-3.203,3.203c-0.709,0.709-1.871,0.709-2.579,0l-3.203-3.203
		c-0.709-0.708-0.709-1.87,0-2.579l3.203-3.203c0.708-0.708,1.87-0.708,2.579,0l3.203,3.203
		C562.621,149.074,562.621,150.236,561.912,150.944z"/>
</g>
</svg>
