<?xml version="1.0" encoding="UTF-8"?>
<!DOCTYPE svg PUBLIC "-//W3C//DTD SVG 1.1//EN" "http://www.w3.org/Graphics/SVG/1.1/DTD/svg11.dtd">
<!-- Creator: CorelDRAW X6 -->
<svg xmlns="http://www.w3.org/2000/svg" xml:space="preserve" width="215mm" height="65mm" version="1.1" style="shape-rendering:geometricPrecision; text-rendering:geometricPrecision; image-rendering:optimizeQuality; fill-rule:evenodd; clip-rule:evenodd"
viewBox="0 0 21500 6500"
 xmlns:xlink="http://www.w3.org/1999/xlink">
 <defs>
  <style type="text/css">
   <![CDATA[
    .fil12 {fill:none}
    .fil18 {fill:#E6E7E8;fill-rule:nonzero}
    .fil40 {fill:#3693C3;fill-rule:nonzero}
    .fil17 {fill:#999999;fill-rule:nonzero}
    .fil29 {fill:white;fill-rule:nonzero}
    .fil16 {fill:url(#id0)}
    .fil14 {fill:url(#id1)}
    .fil15 {fill:url(#id2)}
    .fil13 {fill:url(#id3)}
    .fil26 {fill:url(#id4)}
    .fil19 {fill:url(#id5)}
    .fil20 {fill:url(#id6)}
    .fil23 {fill:url(#id7)}
    .fil41 {fill:url(#id8)}
    .fil43 {fill:url(#id9)}
    .fil44 {fill:url(#id10)}
    .fil21 {fill:url(#id11)}
    .fil27 {fill:url(#id12)}
    .fil24 {fill:url(#id13)}
    .fil28 {fill:url(#id14)}
    .fil22 {fill:url(#id15)}
    .fil25 {fill:url(#id16)}
    .fil4 {fill:url(#id17)}
    .fil1 {fill:url(#id18)}
    .fil2 {fill:url(#id19)}
    .fil9 {fill:url(#id20)}
    .fil11 {fill:url(#id21)}
    .fil5 {fill:url(#id22)}
    .fil10 {fill:url(#id23)}
    .fil6 {fill:url(#id24)}
    .fil0 {fill:url(#id25)}
    .fil8 {fill:url(#id26)}
    .fil3 {fill:url(#id27)}
    .fil7 {fill:url(#id28)}
    .fil30 {fill:url(#id29);fill-rule:nonzero}
    .fil31 {fill:url(#id30);fill-rule:nonzero}
    .fil32 {fill:url(#id31);fill-rule:nonzero}
    .fil33 {fill:url(#id32);fill-rule:nonzero}
    .fil34 {fill:url(#id33);fill-rule:nonzero}
    .fil35 {fill:url(#id34);fill-rule:nonzero}
    .fil36 {fill:url(#id35);fill-rule:nonzero}
    .fil37 {fill:url(#id36);fill-rule:nonzero}
    .fil38 {fill:url(#id37);fill-rule:nonzero}
    .fil39 {fill:url(#id38);fill-rule:nonzero}
    .fil42 {fill:url(#id39);fill-rule:nonzero}
   ]]>
  </style>
  <linearGradient id="id0" gradientUnits="userSpaceOnUse" x1="669.66" y1="4330.84" x2="21034.2" y2="4330.84">
   <stop offset="0" style="stop-color:#F8F8F8"/>
   <stop offset="0.0313725" style="stop-color:#F8F8F8"/>
   <stop offset="0.0784314" style="stop-color:#E5E5E5"/>
   <stop offset="0.929412" style="stop-color:#E8E8E8"/>
   <stop offset="1" style="stop-color:white"/>
  </linearGradient>
  <linearGradient id="id1" gradientUnits="userSpaceOnUse" xlink:href="#id0" x1="669.66" y1="3209.87" x2="21034.2" y2="3209.87">
  </linearGradient>
  <linearGradient id="id2" gradientUnits="userSpaceOnUse" xlink:href="#id0" x1="669.66" y1="2088.9" x2="21034.2" y2="2088.9">
  </linearGradient>
  <linearGradient id="id3" gradientUnits="userSpaceOnUse" xlink:href="#id0" x1="669.66" y1="967.93" x2="21034.2" y2="967.93">
  </linearGradient>
  <linearGradient id="id4" gradientUnits="userSpaceOnUse" x1="11602.1" y1="3659.5" x2="12737.5" y2="3659.5">
   <stop offset="0" style="stop-color:#3693C3"/>
   <stop offset="1" style="stop-color:#62C1DB"/>
  </linearGradient>
  <linearGradient id="id5" gradientUnits="userSpaceOnUse" xlink:href="#id4" x1="1082.82" y1="4756.88" x2="2218.19" y2="4756.88">
  </linearGradient>
  <linearGradient id="id6" gradientUnits="userSpaceOnUse" xlink:href="#id4" x1="2560.18" y1="4669.98" x2="3695.55" y2="4669.98">
  </linearGradient>
  <linearGradient id="id7" gradientUnits="userSpaceOnUse" xlink:href="#id4" x1="7089.49" y1="4188.13" x2="8224.86" y2="4188.13">
  </linearGradient>
  <linearGradient id="id8" gradientUnits="userSpaceOnUse" xlink:href="#id4" x1="16070.7" y1="3273.59" x2="17206.1" y2="3273.59">
  </linearGradient>
  <linearGradient id="id9" gradientUnits="userSpaceOnUse" xlink:href="#id4" x1="17583.8" y1="3067.21" x2="18719.2" y2="3067.21">
  </linearGradient>
  <linearGradient id="id10" gradientUnits="userSpaceOnUse" xlink:href="#id4" x1="19096.9" y1="2848.85" x2="20232.3" y2="2848.85">
  </linearGradient>
  <linearGradient id="id11" gradientUnits="userSpaceOnUse" xlink:href="#id4" x1="4053.82" y1="4521.68" x2="5189.19" y2="4521.68">
  </linearGradient>
  <linearGradient id="id12" gradientUnits="userSpaceOnUse" xlink:href="#id4" x1="13120" y1="3558.14" x2="14237" y2="3558.14">
  </linearGradient>
  <linearGradient id="id13" gradientUnits="userSpaceOnUse" xlink:href="#id4" x1="8609.01" y1="3974.49" x2="9723.46" y2="3974.49">
  </linearGradient>
  <linearGradient id="id14" gradientUnits="userSpaceOnUse" xlink:href="#id4" x1="14572.5" y1="3404.03" x2="15693" y2="3404.03">
  </linearGradient>
  <linearGradient id="id15" gradientUnits="userSpaceOnUse" xlink:href="#id4" x1="5528.97" y1="4365.9" x2="6664.34" y2="4365.9">
  </linearGradient>
  <linearGradient id="id16" gradientUnits="userSpaceOnUse" xlink:href="#id4" x1="10104.3" y1="3816.5" x2="11258.2" y2="3816.5">
  </linearGradient>
  <radialGradient id="id17" gradientUnits="userSpaceOnUse" cx="36603" cy="-28602.6" r="6463.23" fx="36603" fy="-28602.6">
   <stop offset="0" style="stop-color:#838383"/>
   <stop offset="0.478431" style="stop-color:#C1C1C1"/>
   <stop offset="1" style="stop-color:white"/>
  </radialGradient>
  <radialGradient id="id18" gradientUnits="userSpaceOnUse" xlink:href="#id17" cx="51190.8" cy="-28602.6" r="6463.23" fx="51190.8" fy="-28602.6">
  </radialGradient>
  <radialGradient id="id19" gradientUnits="userSpaceOnUse" xlink:href="#id17" cx="66494.6" cy="-28602.6" r="6463.23" fx="66494.6" fy="-28602.6">
  </radialGradient>
  <radialGradient id="id20" gradientUnits="userSpaceOnUse" xlink:href="#id17" cx="81082.4" cy="-28602.6" r="6463.24" fx="81082.4" fy="-28602.6">
  </radialGradient>
  <radialGradient id="id21" gradientUnits="userSpaceOnUse" xlink:href="#id17" cx="96040.3" cy="-28602.6" r="6463.23" fx="96040.3" fy="-28602.6">
  </radialGradient>
  <radialGradient id="id22" gradientUnits="userSpaceOnUse" xlink:href="#id17" cx="110628" cy="-28602.6" r="6463.23" fx="110628" fy="-28602.6">
  </radialGradient>
  <radialGradient id="id23" gradientUnits="userSpaceOnUse" xlink:href="#id17" cx="125932" cy="-28602.6" r="6463.23" fx="125932" fy="-28602.6">
  </radialGradient>
  <radialGradient id="id24" gradientUnits="userSpaceOnUse" xlink:href="#id17" cx="140520" cy="-28602.6" r="6463.24" fx="140520" fy="-28602.6">
  </radialGradient>
  <radialGradient id="id25" gradientUnits="userSpaceOnUse" xlink:href="#id17" cx="155580" cy="-28602.6" r="6463.23" fx="155580" fy="-28602.6">
  </radialGradient>
  <radialGradient id="id26" gradientUnits="userSpaceOnUse" xlink:href="#id17" cx="169603" cy="-28602.6" r="6463.25" fx="169603" fy="-28602.6">
  </radialGradient>
  <radialGradient id="id27" gradientUnits="userSpaceOnUse" xlink:href="#id17" cx="184907" cy="-28602.6" r="6463.25" fx="184907" fy="-28602.6">
  </radialGradient>
  <radialGradient id="id28" gradientUnits="userSpaceOnUse" xlink:href="#id17" cx="199495" cy="-28602.6" r="6463.23" fx="199495" fy="-28602.6">
  </radialGradient>
  <linearGradient id="id29" gradientUnits="userSpaceOnUse" xlink:href="#id4" x1="1467.06" y1="5279.05" x2="1833.95" y2="5279.05">
  </linearGradient>
  <linearGradient id="id30" gradientUnits="userSpaceOnUse" xlink:href="#id4" x1="2944.42" y1="5279.05" x2="3311.32" y2="5279.05">
  </linearGradient>
  <linearGradient id="id31" gradientUnits="userSpaceOnUse" xlink:href="#id4" x1="4491.82" y1="5279.05" x2="4858.72" y2="5279.05">
  </linearGradient>
  <linearGradient id="id32" gradientUnits="userSpaceOnUse" xlink:href="#id4" x1="5913.21" y1="5279.05" x2="6280.11" y2="5279.05">
  </linearGradient>
  <linearGradient id="id33" gradientUnits="userSpaceOnUse" xlink:href="#id4" x1="7473.73" y1="5279.05" x2="7840.62" y2="5279.05">
  </linearGradient>
  <linearGradient id="id34" gradientUnits="userSpaceOnUse" xlink:href="#id4" x1="8981.1" y1="5279.05" x2="9348" y2="5279.05">
  </linearGradient>
  <linearGradient id="id35" gradientUnits="userSpaceOnUse" xlink:href="#id4" x1="10497.8" y1="5279.05" x2="10864.6" y2="5279.05">
  </linearGradient>
  <linearGradient id="id36" gradientUnits="userSpaceOnUse" xlink:href="#id4" x1="11956.5" y1="5279.05" x2="12323.4" y2="5279.05">
  </linearGradient>
  <linearGradient id="id37" gradientUnits="userSpaceOnUse" xlink:href="#id4" x1="13491.5" y1="5279.05" x2="13858.4" y2="5279.05">
  </linearGradient>
  <linearGradient id="id38" gradientUnits="userSpaceOnUse" xlink:href="#id4" x1="14949.3" y1="5279.05" x2="15316.2" y2="5279.05">
  </linearGradient>
  <linearGradient id="id39" gradientUnits="userSpaceOnUse" xlink:href="#id4" x1="16455" y1="5279.05" x2="16821.9" y2="5279.05">
  </linearGradient>
 </defs>
<symbol id="Fm8-38-0" viewBox="148555 -31546 14051 3132">
 <polygon class="fil0" points="148555,-28415 162605,-28415 162605,-31546 148555,-31546 "/>
</symbol>
<symbol id="Fm1-29-0" viewBox="44166 -31546 14051 3132">
 <polygon class="fil1" points="44166,-28415 58216,-28415 58216,-31546 44166,-31546 "/>
</symbol>
<symbol id="Fm2-32-0" viewBox="59469 -31546 14051 3132">
 <polygon class="fil2" points="59469,-28415 73520,-28415 73520,-31546 59469,-31546 "/>
</symbol>
<symbol id="Fm10-30-0" viewBox="177882 -31546 14051 3132">
 <polygon class="fil3" points="177882,-28415 191932,-28415 191932,-31546 177882,-31546 "/>
</symbol>
<symbol id="Fm0-28-0" viewBox="29578 -31546 14051 3132">
 <polygon class="fil4" points="29578,-28415 43628,-28415 43628,-31546 29578,-31546 "/>
</symbol>
<symbol id="Fm5-35-0" viewBox="103603 -31546 14051 3132">
 <polygon class="fil5" points="103603,-28415 117653,-28415 117653,-31546 103603,-31546 "/>
</symbol>
<symbol id="Fm7-37-0" viewBox="133494 -31546 14051 3132">
 <polygon class="fil6" points="133494,-28415 147545,-28415 147545,-31546 133494,-31546 "/>
</symbol>
<symbol id="Fm11-31-0" viewBox="192470 -31546 14051 3132">
 <polygon class="fil7" points="192470,-28415 206520,-28415 206520,-31546 192470,-31546 "/>
</symbol>
<symbol id="Fm9-39-0" viewBox="162578 -31546 14051 3132">
 <polygon class="fil8" points="162578,-28415 176629,-28415 176629,-31546 162578,-31546 "/>
</symbol>
<symbol id="Fm3-33-0" viewBox="74057 -31546 14051 3132">
 <polygon class="fil9" points="74057,-28415 88108,-28415 88108,-31546 74057,-31546 "/>
</symbol>
<symbol id="Fm6-36-0" viewBox="118907 -31546 14051 3132">
 <polygon class="fil10" points="118907,-28415 132957,-28415 132957,-31546 118907,-31546 "/>
</symbol>
<symbol id="Fm4-34-0" viewBox="89015 -31546 14051 3132">
 <polygon class="fil11" points="89015,-28415 103066,-28415 103066,-31546 89015,-31546 "/>
</symbol>
 <g id="Layer_x0020_1">
  <metadata id="CorelCorpID_0Corel-Layer"/>
  <rect class="fil12" width="21500" height="6500"/>
  <polygon class="fil13" points="670,985 21034,985 21034,951 670,951 "/>
  <polygon class="fil14" points="21034,3193 670,3193 670,3227 21034,3227 "/>
  <polygon class="fil15" points="670,2106 21034,2106 21034,2072 670,2072 "/>
  <polygon class="fil16" points="21034,4314 670,4314 670,4348 21034,4348 "/>
  <path class="fil17" d="M421 4457l-154 0 0 -16 84 -96c14,-16 24,-29 29,-40 5,-10 8,-21 8,-31 0,-16 -5,-28 -14,-37 -9,-9 -22,-14 -38,-14 -17,0 -30,5 -40,16 -10,11 -15,24 -15,41l-20 0c0,-14 3,-26 9,-38 6,-11 15,-20 27,-27 12,-6 25,-10 39,-10 23,0 40,6 53,18 13,12 19,28 19,48 0,11 -4,24 -11,38 -7,14 -20,31 -38,51l-69 77 129 0 0 17z"/>
  <path class="fil17" d="M472 4331l12 -120 123 0 0 19 -106 0 -9 83c13,-9 29,-14 46,-14 22,0 40,7 53,22 13,14 20,34 20,58 0,26 -6,46 -19,60 -13,14 -31,21 -54,21 -21,0 -39,-6 -52,-18 -13,-12 -21,-29 -23,-50l19 0c2,17 8,29 17,38 9,9 22,13 38,13 18,0 31,-6 40,-17 9,-11 13,-27 13,-48 0,-18 -5,-33 -15,-44 -10,-11 -24,-17 -41,-17 -10,0 -18,1 -25,4 -7,2 -15,7 -22,14l-16 -5z"/>
  <path class="fil17" d="M278 3230l12 -120 123 0 0 19 -105 0 -9 83c13,-9 29,-14 46,-14 22,0 40,7 53,22 13,14 20,34 20,58 0,26 -6,46 -19,60 -13,14 -31,21 -54,21 -21,0 -39,-6 -52,-18 -13,-12 -21,-29 -23,-50l19 0c2,17 8,29 17,38 9,9 22,13 38,13 18,0 31,-6 40,-17 9,-11 13,-27 13,-48 0,-18 -5,-33 -15,-44 -10,-11 -24,-17 -41,-17 -10,0 -18,1 -25,4 -7,2 -15,7 -22,14l-16 -5z"/>
  <path class="fil17" d="M584 3209c0,-28 -5,-49 -14,-64 -9,-14 -23,-22 -42,-22 -18,0 -32,7 -41,21 -9,14 -14,35 -14,62l0 48c0,28 5,49 14,64 10,15 23,22 41,22 18,0 32,-7 41,-22 9,-15 14,-36 14,-64l0 -47zm20 44c0,35 -6,61 -19,79 -13,18 -31,27 -56,27 -24,0 -43,-9 -56,-26 -13,-18 -20,-43 -20,-77l0 -44c0,-35 6,-61 19,-78 13,-18 32,-27 56,-27 24,0 43,9 56,26 13,17 19,42 20,76l0 45z"/>
  <polygon class="fil17" points="421,1978 316,2212 295,2212 399,1983 259,1983 259,1966 421,1966 "/>
  <path class="fil17" d="M475 2086l12 -120 123 0 0 19 -106 0 -9 83c13,-9 29,-14 46,-14 22,0 40,7 53,22 13,14 20,34 20,58 0,26 -6,46 -19,60 -13,14 -31,21 -54,21 -21,0 -39,-6 -52,-18 -13,-12 -21,-29 -23,-50l19 0c2,17 8,29 17,38 9,9 22,13 38,13 18,0 31,-6 40,-17 9,-11 13,-27 13,-48 0,-18 -5,-33 -15,-44 -10,-11 -24,-17 -41,-17 -10,0 -18,1 -25,4 -7,2 -15,7 -22,14l-16 -5z"/>
  <polygon class="fil17" points="262,1110 241,1110 241,889 175,914 175,895 258,864 262,864 "/>
  <path class="fil17" d="M487 964c0,-28 -5,-49 -14,-64 -9,-14 -23,-22 -42,-22 -18,0 -32,7 -41,21 -9,14 -14,35 -14,62l0 48c0,28 5,49 14,64 10,15 23,22 41,22 18,0 32,-7 41,-22 9,-15 14,-36 14,-64l0 -47zm20 44c0,35 -6,61 -19,79 -13,18 -31,27 -56,27 -24,0 -43,-9 -56,-26 -13,-18 -20,-43 -20,-77l0 -44c0,-35 6,-61 19,-78 13,-18 32,-27 56,-27 24,0 43,9 56,26 13,17 19,42 20,76l0 45z"/>
  <path class="fil17" d="M679 964c0,-28 -5,-49 -14,-64 -9,-14 -23,-22 -42,-22 -18,0 -32,7 -41,21 -9,14 -14,35 -14,62l0 48c0,28 5,49 14,64 10,15 23,22 41,22 18,0 32,-7 41,-22 9,-15 14,-36 14,-64l0 -47zm20 44c0,35 -6,61 -19,79 -13,18 -31,27 -56,27 -24,0 -43,-9 -56,-26 -13,-18 -20,-43 -20,-77l0 -44c0,-35 6,-61 19,-78 13,-18 32,-27 56,-27 24,0 43,9 56,26 13,17 19,42 20,76l0 45z"/>
  <g id="_1330108448">
   <path class="fil17" d="M20930 4457l-154 0 0 -16 84 -96c14,-16 24,-29 29,-40 5,-10 8,-21 8,-31 0,-16 -5,-28 -14,-37 -9,-9 -22,-14 -38,-14 -17,0 -30,5 -40,16 -10,11 -15,24 -15,41l-20 0c0,-14 3,-26 9,-38 6,-11 15,-20 27,-27 12,-6 25,-10 39,-10 23,0 40,6 53,18 13,12 19,28 19,48 0,11 -4,24 -11,38 -7,14 -20,31 -38,51l-69 77 129 0 0 17z"/>
   <path class="fil17" d="M20982 4331l12 -120 123 0 0 19 -105 0 -9 83c13,-9 29,-14 46,-14 22,0 40,7 53,22 13,14 20,34 20,58 0,26 -6,46 -19,60 -13,14 -31,21 -54,21 -21,0 -39,-6 -52,-18 -13,-12 -21,-29 -23,-50l19 0c2,17 8,29 17,38 9,9 22,13 38,13 18,0 31,-6 40,-17 9,-11 13,-27 13,-48 0,-18 -5,-33 -15,-44 -10,-11 -24,-17 -41,-17 -10,0 -18,1 -25,4 -7,2 -15,7 -22,14l-16 -5z"/>
   <path class="fil17" d="M20787 3230l12 -120 123 0 0 19 -106 0 -9 83c13,-9 29,-14 46,-14 22,0 40,7 53,22 13,14 20,34 20,58 0,26 -6,46 -19,60 -13,14 -31,21 -54,21 -21,0 -39,-6 -52,-18 -13,-12 -21,-29 -23,-50l19 0c2,17 8,29 17,38 9,9 22,13 38,13 18,0 31,-6 40,-17 9,-11 13,-27 13,-48 0,-18 -5,-33 -15,-44 -10,-11 -24,-17 -41,-17 -10,0 -18,1 -25,4 -7,2 -15,7 -22,14l-16 -5z"/>
   <path class="fil17" d="M21093 3209c0,-28 -5,-49 -14,-64 -9,-14 -23,-22 -42,-22 -18,0 -32,7 -41,21 -9,14 -14,35 -14,62l0 48c0,28 5,49 14,64 10,15 23,22 41,22 18,0 32,-7 41,-22 9,-15 14,-36 14,-64l0 -47zm20 44c0,35 -6,61 -19,79 -13,18 -31,27 -56,27 -24,0 -43,-9 -56,-26 -13,-18 -20,-43 -20,-77l0 -44c0,-35 6,-61 19,-78 13,-18 32,-27 56,-27 24,0 43,9 56,26 13,17 19,42 20,76l0 45z"/>
   <polygon class="fil17" points="20930,1978 20825,2212 20804,2212 20908,1983 20769,1983 20769,1966 20930,1966 "/>
   <path class="fil17" d="M20984 2086l12 -120 123 0 0 19 -106 0 -9 83c13,-9 29,-14 46,-14 22,0 40,7 53,22 13,14 20,34 20,58 0,26 -6,46 -19,60 -13,14 -31,21 -54,21 -21,0 -39,-6 -52,-18 -13,-12 -21,-29 -23,-50l19 0c2,17 8,29 17,38 9,9 22,13 38,13 18,0 31,-6 40,-17 9,-11 13,-27 13,-48 0,-18 -5,-33 -15,-44 -10,-11 -24,-17 -41,-17 -10,0 -18,1 -25,4 -7,2 -15,7 -22,14l-16 -5z"/>
   <polygon class="fil17" points="20771,1110 20751,1110 20751,889 20684,914 20684,895 20768,864 20771,864 "/>
   <path class="fil17" d="M20997 964c0,-28 -5,-49 -14,-64 -9,-14 -23,-22 -42,-22 -18,0 -32,7 -41,21 -9,14 -14,35 -14,62l0 48c0,28 5,49 14,64 10,15 23,22 41,22 18,0 32,-7 41,-22 9,-15 14,-36 14,-64l0 -47zm20 44c0,35 -6,61 -19,79 -13,18 -31,27 -56,27 -24,0 -43,-9 -56,-26 -13,-18 -20,-43 -20,-77l0 -44c0,-35 6,-61 19,-78 13,-18 32,-27 56,-27 24,0 43,9 56,26 13,17 19,42 20,76l0 45z"/>
   <path class="fil17" d="M21188 964c0,-28 -5,-49 -14,-64 -9,-14 -23,-22 -42,-22 -18,0 -32,7 -41,21 -9,14 -14,35 -14,62l0 48c0,28 5,49 14,64 10,15 23,22 41,22 18,0 32,-7 41,-22 9,-15 14,-36 14,-64l0 -47zm20 44c0,35 -6,61 -19,79 -13,18 -31,27 -56,27 -24,0 -43,-9 -56,-26 -13,-18 -20,-43 -20,-77l0 -44c0,-35 6,-61 19,-78 13,-18 32,-27 56,-27 24,0 43,9 56,26 13,17 19,42 20,76l0 45z"/>
  </g>
  <polygon class="fil18" points="21500,6476 0,6476 0,5279 21500,5279 "/>
  <path class="fil19" d="M2218 5237l0 -453c-32,-285 -274,-507 -568,-507 -294,0 -536,222 -568,507l0 453 1135 0z"/>
  <path class="fil20" d="M3696 5237l0 -627c-32,-285 -274,-507 -568,-507 -294,0 -536,222 -568,507l0 627 1135 0z"/>
  <path class="fil21" d="M5184 4314l-1126 0 0 924 1126 0 0 -924zm-563 -507c294,0 536,222 568,507l-1135 0c32,-285 274,-507 568,-507z"/>
  <path class="fil22" d="M5529 5237l1135 0 0 -1235c-32,-285 -274,-507 -568,-507 -294,0 -536,222 -568,507l0 1235z"/>
  <path class="fil23" d="M8225 5237l0 -1591c-32,-285 -274,-507 -568,-507 -294,0 -536,222 -568,507l0 1591 1135 0z"/>
  <path class="fil24" d="M8609 3210l0 2027 1114 0 0 -2027c-31,-280 -269,-498 -557,-498 -288,0 -526,218 -557,498z"/>
  <path class="fil25" d="M10104 5237l1154 0 0 -2330 -1 0c-34,-288 -279,-511 -576,-511 -297,0 -542,223 -576,511l-1 0 0 4 0 2326z"/>
  <path class="fil26" d="M11602 2589l0 0 0 2648 1135 0 0 -2648c-32,-285 -274,-507 -568,-507 -294,0 -536,222 -568,507z"/>
  <path class="fil27" d="M13120 2378l0 2859 1117 0 0 -2859c-31,-281 -269,-499 -559,-499 -289,0 -527,218 -559,499z"/>
  <path class="fil28" d="M14573 5237l1120 0 0 -3165 -1120 0 0 3165zm560 -3666c290,0 529,219 560,501l-1120 0c31,-282 270,-501 560,-501z"/>
  <polygon class="fil29" points="21500,5328 0,5328 0,5230 21500,5230 "/>
  <path class="fil29" d="M1902 5325l-206 206c-25,25 -66,25 -91,0l-206 -206c-25,-25 -25,-66 0,-91l206 -206c25,-25 66,-25 91,0l206 206c25,25 25,66 0,91z"/>
  <path class="fil30" d="M1809 5325l-113 113c-25,25 -66,25 -91,0l-113 -113c-25,-25 -25,-66 0,-91l113 -113c25,-25 66,-25 91,0l113 113c25,25 25,66 0,91z"/>
  <path class="fil29" d="M3379 5325l-206 206c-25,25 -66,25 -91,0l-206 -206c-25,-25 -25,-66 0,-91l206 -206c25,-25 66,-25 91,0l206 206c25,25 25,66 0,91z"/>
  <path class="fil31" d="M3286 5325l-113 113c-25,25 -66,25 -91,0l-113 -113c-25,-25 -25,-66 0,-91l113 -113c25,-25 66,-25 91,0l113 113c25,25 25,66 0,91z"/>
  <path class="fil29" d="M4926 5325l-206 206c-25,25 -66,25 -91,0l-206 -206c-25,-25 -25,-66 0,-91l206 -206c25,-25 66,-25 91,0l206 206c25,25 25,66 0,91z"/>
  <path class="fil32" d="M4834 5325l-113 113c-25,25 -66,25 -91,0l-113 -113c-25,-25 -25,-66 0,-91l113 -113c25,-25 66,-25 91,0l113 113c25,25 25,66 0,91z"/>
  <path class="fil29" d="M6348 5325l-206 206c-25,25 -66,25 -91,0l-206 -206c-25,-25 -25,-66 0,-91l206 -206c25,-25 66,-25 91,0l206 206c25,25 25,66 0,91z"/>
  <path class="fil33" d="M6255 5325l-113 113c-25,25 -66,25 -91,0l-113 -113c-25,-25 -25,-66 0,-91l113 -113c25,-25 66,-25 91,0l113 113c25,25 25,66 0,91z"/>
  <path class="fil29" d="M7908 5325l-206 206c-25,25 -66,25 -91,0l-206 -206c-25,-25 -25,-66 0,-91l206 -206c25,-25 66,-25 91,0l206 206c25,25 25,66 0,91z"/>
  <path class="fil34" d="M7816 5325l-113 113c-25,25 -66,25 -91,0l-113 -113c-25,-25 -25,-66 0,-91l113 -113c25,-25 66,-25 91,0l113 113c25,25 25,66 0,91z"/>
  <path class="fil29" d="M9416 5325l-206 206c-25,25 -66,25 -91,0l-206 -206c-25,-25 -25,-66 0,-91l206 -206c25,-25 66,-25 91,0l206 206c25,25 25,66 0,91z"/>
  <path class="fil35" d="M9323 5325l-113 113c-25,25 -66,25 -91,0l-113 -113c-25,-25 -25,-66 0,-91l113 -113c25,-25 66,-25 91,0l113 113c25,25 25,66 0,91z"/>
  <path class="fil29" d="M10932 5325l-206 206c-25,25 -66,25 -91,0l-206 -206c-25,-25 -25,-66 0,-91l206 -206c25,-25 66,-25 91,0l206 206c25,25 25,66 0,91z"/>
  <path class="fil36" d="M10840 5325l-113 113c-25,25 -66,25 -91,0l-113 -113c-25,-25 -25,-66 0,-91l113 -113c25,-25 66,-25 91,0l113 113c25,25 25,66 0,91z"/>
  <path class="fil29" d="M12391 5325l-206 206c-25,25 -66,25 -91,0l-206 -206c-25,-25 -25,-66 0,-91l206 -206c25,-25 66,-25 91,0l206 206c25,25 25,66 0,91z"/>
  <path class="fil37" d="M12298 5325l-113 113c-25,25 -66,25 -91,0l-113 -113c-25,-25 -25,-66 0,-91l113 -113c25,-25 66,-25 91,0l113 113c25,25 25,66 0,91z"/>
  <path class="fil29" d="M13926 5325l-206 206c-25,25 -66,25 -91,0l-206 -206c-25,-25 -25,-66 0,-91l206 -206c25,-25 66,-25 91,0l206 206c25,25 25,66 0,91z"/>
  <path class="fil38" d="M13833 5325l-113 113c-25,25 -66,25 -91,0l-113 -113c-25,-25 -25,-66 0,-91l113 -113c25,-25 66,-25 91,0l113 113c25,25 25,66 0,91z"/>
  <path class="fil29" d="M15384 5325l-206 206c-25,25 -66,25 -91,0l-206 -206c-25,-25 -25,-66 0,-91l206 -206c25,-25 66,-25 91,0l206 206c25,25 25,66 0,91z"/>
  <path class="fil39" d="M15291 5325l-113 113c-25,25 -66,25 -91,0l-113 -113c-25,-25 -25,-66 0,-91l113 -113c25,-25 66,-25 91,0l113 113c25,25 25,66 0,91z"/>
  <path class="fil40" d="M1268 5990c32,-25 57,-46 74,-63 18,-16 33,-33 45,-51 12,-18 19,-35 19,-53 0,-16 -4,-29 -12,-38 -8,-9 -21,-14 -38,-14 -17,0 -30,5 -39,16 -9,11 -14,25 -15,42l-33 0c1,-28 9,-50 25,-65 16,-15 37,-23 62,-23 26,0 46,7 61,21 15,14 23,34 23,59 0,21 -6,41 -19,60 -12,20 -26,37 -42,52 -16,15 -36,32 -60,52l129 0 0 28 -180 0 0 -24z"/>
  <path id="1" class="fil40" d="M1487 5880c0,-43 7,-76 21,-100 14,-24 38,-36 73,-36 35,0 59,12 73,36 14,24 21,58 21,100 0,44 -7,78 -21,102 -14,24 -38,36 -73,36 -35,0 -59,-12 -73,-36 -14,-24 -21,-58 -21,-102zm155 0c0,-22 -1,-40 -4,-55 -3,-15 -9,-27 -18,-36 -9,-9 -22,-14 -38,-14 -17,0 -30,5 -39,14 -9,9 -15,21 -18,36 -3,15 -4,33 -4,55 0,22 1,41 4,57 3,15 9,27 18,37 9,9 22,14 39,14 17,0 30,-5 38,-14 9,-9 15,-21 18,-37 3,-15 4,-34 4,-57z"/>
  <polygon id="2" class="fil40" points="1713,5778 1713,5747 1783,5747 1783,6018 1749,6018 1749,5778 "/>
  <path id="3" class="fil40" d="M1993 5812c-5,-28 -23,-42 -51,-42 -22,0 -39,9 -50,26 -11,17 -16,45 -16,84 6,-13 15,-23 29,-31 13,-7 28,-11 45,-11 26,0 46,8 62,24 15,16 23,38 23,66 0,17 -3,32 -10,46 -7,13 -17,24 -30,32 -13,8 -30,12 -48,12 -26,0 -46,-6 -60,-17 -14,-11 -25,-27 -30,-48 -6,-20 -9,-45 -9,-75 0,-92 32,-137 96,-137 24,0 44,7 58,20 14,13 22,30 25,50l-31 0zm-51 56c-11,0 -21,2 -30,7 -9,4 -17,11 -23,20 -6,9 -9,20 -9,32 0,19 5,34 16,46 11,12 27,18 47,18 17,0 31,-5 42,-16 10,-11 16,-26 16,-44 0,-19 -5,-35 -15,-46 -10,-11 -25,-17 -44,-17z"/>
  <path class="fil40" d="M2745 5990c32,-25 57,-46 74,-63 18,-16 33,-33 45,-51 12,-18 19,-35 19,-53 0,-16 -4,-29 -12,-38 -8,-9 -21,-14 -38,-14 -17,0 -30,5 -39,16 -9,11 -14,25 -15,42l-33 0c1,-28 9,-50 25,-65 16,-15 37,-23 62,-23 26,0 46,7 61,21 15,14 23,34 23,59 0,21 -6,41 -19,60 -12,20 -26,37 -42,52 -16,15 -36,32 -60,52l129 0 0 28 -180 0 0 -24z"/>
  <path id="1" class="fil40" d="M2964 5880c0,-43 7,-76 21,-100 14,-24 38,-36 73,-36 35,0 59,12 73,36 14,24 21,58 21,100 0,44 -7,78 -21,102 -14,24 -38,36 -73,36 -35,0 -59,-12 -73,-36 -14,-24 -21,-58 -21,-102zm155 0c0,-22 -1,-40 -4,-55 -3,-15 -9,-27 -18,-36 -9,-9 -22,-14 -38,-14 -17,0 -30,5 -39,14 -9,9 -15,21 -18,36 -3,15 -4,33 -4,55 0,22 1,41 4,57 3,15 9,27 18,37 9,9 22,14 39,14 17,0 30,-5 38,-14 9,-9 15,-21 18,-37 3,-15 4,-34 4,-57z"/>
  <polygon id="2" class="fil40" points="3190,5778 3190,5747 3261,5747 3261,6018 3226,6018 3226,5778 "/>
  <polygon id="3" class="fil40" points="3486,5774 3382,6018 3347,6018 3453,5777 3308,5777 3308,5748 3486,5748 "/>
  <path class="fil40" d="M4222 5990c32,-25 57,-46 74,-63 18,-16 33,-33 45,-51 12,-18 19,-35 19,-53 0,-16 -4,-29 -12,-38 -8,-9 -21,-14 -38,-14 -17,0 -30,5 -39,16 -9,11 -14,25 -15,42l-33 0c1,-28 9,-50 25,-65 16,-15 37,-23 62,-23 26,0 46,7 61,21 15,14 23,34 23,59 0,21 -6,41 -19,60 -12,20 -26,37 -42,52 -16,15 -36,32 -60,52l129 0 0 28 -180 0 0 -24z"/>
  <path id="1" class="fil40" d="M4442 5880c0,-43 7,-76 21,-100 14,-24 38,-36 73,-36 35,0 59,12 73,36 14,24 21,58 21,100 0,44 -7,78 -21,102 -14,24 -38,36 -73,36 -35,0 -59,-12 -73,-36 -14,-24 -21,-58 -21,-102zm155 0c0,-22 -1,-40 -4,-55 -3,-15 -9,-27 -18,-36 -9,-9 -22,-14 -38,-14 -17,0 -30,5 -39,14 -9,9 -15,21 -18,36 -3,15 -4,33 -4,55 0,22 1,41 4,57 3,15 9,27 18,37 9,9 22,14 39,14 17,0 30,-5 38,-14 9,-9 15,-21 18,-37 3,-15 4,-34 4,-57z"/>
  <polygon id="2" class="fil40" points="4668,5778 4668,5747 4738,5747 4738,6018 4704,6018 4704,5778 "/>
  <path id="3" class="fil40" d="M4846 5877c-14,-5 -25,-13 -32,-24 -7,-10 -11,-23 -11,-38 0,-13 3,-26 10,-36 7,-11 17,-19 30,-26 13,-6 30,-10 48,-10 19,0 35,3 48,10 13,6 23,15 30,26 7,11 10,23 10,36 0,14 -4,27 -12,38 -8,11 -18,19 -32,24 15,5 28,13 37,25 9,12 14,26 14,43 0,16 -4,30 -12,42 -8,12 -19,21 -34,28 -15,7 -31,10 -50,10 -19,0 -36,-3 -50,-10 -14,-7 -26,-16 -33,-28 -8,-12 -12,-26 -12,-42 0,-17 5,-31 13,-43 9,-12 21,-20 37,-25zm101 -58c0,-15 -5,-27 -15,-35 -10,-8 -24,-12 -41,-12 -17,0 -31,4 -41,12 -10,8 -15,20 -15,36 0,14 5,25 16,34 10,8 24,13 40,13 17,0 30,-4 41,-13 10,-9 16,-20 16,-34zm-56 73c-18,0 -34,4 -45,13 -12,9 -18,22 -18,39 0,16 6,29 17,39 11,10 27,15 46,15 19,0 34,-5 46,-15 11,-10 17,-23 17,-39 0,-17 -6,-30 -17,-38 -11,-9 -27,-13 -45,-13z"/>
  <path class="fil40" d="M5700 5990c32,-25 57,-46 74,-63 18,-16 33,-33 45,-51 12,-18 19,-35 19,-53 0,-16 -4,-29 -12,-38 -8,-9 -21,-14 -38,-14 -17,0 -30,5 -39,16 -9,11 -14,25 -15,42l-33 0c1,-28 9,-50 25,-65 16,-15 37,-23 62,-23 26,0 46,7 61,21 15,14 23,34 23,59 0,21 -6,41 -19,60 -12,20 -26,37 -42,52 -16,15 -36,32 -60,52l129 0 0 28 -180 0 0 -24z"/>
  <path id="1" class="fil40" d="M5919 5880c0,-43 7,-76 21,-100 14,-24 38,-36 73,-36 35,0 59,12 73,36 14,24 21,58 21,100 0,44 -7,78 -21,102 -14,24 -38,36 -73,36 -35,0 -59,-12 -73,-36 -14,-24 -21,-58 -21,-102zm155 0c0,-22 -1,-40 -4,-55 -3,-15 -9,-27 -18,-36 -9,-9 -22,-14 -38,-14 -17,0 -30,5 -39,14 -9,9 -15,21 -18,36 -3,15 -4,33 -4,55 0,22 1,41 4,57 3,15 9,27 18,37 9,9 22,14 39,14 17,0 30,-5 38,-14 9,-9 15,-21 18,-37 3,-15 4,-34 4,-57z"/>
  <polygon id="2" class="fil40" points="6145,5778 6145,5747 6215,5747 6215,6018 6181,6018 6181,5778 "/>
  <path id="3" class="fil40" d="M6318 5945c2,14 8,25 17,33 9,8 21,12 37,12 21,0 36,-8 46,-24 10,-16 15,-44 14,-82 -5,11 -14,20 -26,26 -12,6 -26,10 -41,10 -17,0 -32,-3 -45,-10 -13,-7 -23,-17 -31,-30 -7,-13 -11,-29 -11,-48 0,-27 8,-48 23,-65 15,-16 37,-25 66,-25 35,0 59,11 74,34 14,23 21,57 21,101 0,31 -3,57 -8,78 -6,20 -15,36 -28,47 -13,11 -32,16 -55,16 -25,0 -45,-7 -60,-21 -14,-14 -22,-31 -24,-52l31 0zm53 -55c17,0 30,-5 41,-16 11,-10 16,-24 16,-42 0,-19 -5,-34 -16,-45 -10,-11 -25,-17 -44,-17 -17,0 -31,5 -42,16 -10,11 -16,25 -16,43 0,18 5,33 15,44 10,11 25,16 45,16z"/>
  <path class="fil40" d="M7177 5990c32,-25 57,-46 74,-63 18,-16 33,-33 45,-51 12,-18 19,-35 19,-53 0,-16 -4,-29 -12,-38 -8,-9 -21,-14 -38,-14 -17,0 -30,5 -39,16 -9,11 -14,25 -15,42l-33 0c1,-28 9,-50 25,-65 16,-15 37,-23 62,-23 26,0 46,7 61,21 15,14 23,34 23,59 0,21 -6,41 -19,60 -12,20 -26,37 -42,52 -16,15 -36,32 -60,52l129 0 0 28 -180 0 0 -24z"/>
  <path id="1" class="fil40" d="M7396 5880c0,-43 7,-76 21,-100 14,-24 38,-36 73,-36 35,0 59,12 73,36 14,24 21,58 21,100 0,44 -7,78 -21,102 -14,24 -38,36 -73,36 -35,0 -59,-12 -73,-36 -14,-24 -21,-58 -21,-102zm155 0c0,-22 -1,-40 -4,-55 -3,-15 -9,-27 -18,-36 -9,-9 -22,-14 -38,-14 -17,0 -30,5 -39,14 -9,9 -15,21 -18,36 -3,15 -4,33 -4,55 0,22 1,41 4,57 3,15 9,27 18,37 9,9 22,14 39,14 17,0 30,-5 38,-14 9,-9 15,-21 18,-37 3,-15 4,-34 4,-57z"/>
  <path id="2" class="fil40" d="M7627 5990c32,-25 57,-46 74,-63 18,-16 33,-33 45,-51 12,-18 19,-35 19,-53 0,-16 -4,-29 -12,-38 -8,-9 -21,-14 -38,-14 -17,0 -30,5 -39,16 -9,11 -14,25 -15,42l-33 0c1,-28 9,-50 25,-65 16,-15 37,-23 62,-23 26,0 46,7 61,21 15,14 23,34 23,59 0,21 -6,41 -19,60 -12,20 -26,37 -42,52 -16,15 -36,32 -60,52l129 0 0 28 -180 0 0 -24z"/>
  <path id="3" class="fil40" d="M7847 5880c0,-43 7,-76 21,-100 14,-24 38,-36 73,-36 35,0 59,12 73,36 14,24 21,58 21,100 0,44 -7,78 -21,102 -14,24 -38,36 -73,36 -35,0 -59,-12 -73,-36 -14,-24 -21,-58 -21,-102zm155 0c0,-22 -1,-40 -4,-55 -3,-15 -9,-27 -18,-36 -9,-9 -22,-14 -38,-14 -17,0 -30,5 -39,14 -9,9 -15,21 -18,36 -3,15 -4,33 -4,55 0,22 1,41 4,57 3,15 9,27 18,37 9,9 22,14 39,14 17,0 30,-5 38,-14 9,-9 15,-21 18,-37 3,-15 4,-34 4,-57z"/>
  <path class="fil40" d="M8799 5990c32,-25 57,-46 74,-63 18,-16 33,-33 45,-51 12,-18 19,-35 19,-53 0,-16 -4,-29 -12,-38 -8,-9 -21,-14 -38,-14 -17,0 -30,5 -39,16 -9,11 -14,25 -15,42l-33 0c1,-28 9,-50 25,-65 16,-15 37,-23 62,-23 26,0 46,7 61,21 15,14 23,34 23,59 0,21 -6,41 -19,60 -12,20 -26,37 -42,52 -16,15 -36,32 -60,52l129 0 0 28 -180 0 0 -24z"/>
  <path id="1" class="fil40" d="M9018 5880c0,-43 7,-76 21,-100 14,-24 38,-36 73,-36 35,0 59,12 73,36 14,24 21,58 21,100 0,44 -7,78 -21,102 -14,24 -38,36 -73,36 -35,0 -59,-12 -73,-36 -14,-24 -21,-58 -21,-102zm155 0c0,-22 -1,-40 -4,-55 -3,-15 -9,-27 -18,-36 -9,-9 -22,-14 -38,-14 -17,0 -30,5 -39,14 -9,9 -15,21 -18,36 -3,15 -4,33 -4,55 0,22 1,41 4,57 3,15 9,27 18,37 9,9 22,14 39,14 17,0 30,-5 38,-14 9,-9 15,-21 18,-37 3,-15 4,-34 4,-57z"/>
  <path id="2" class="fil40" d="M9249 5990c32,-25 57,-46 74,-63 18,-16 33,-33 45,-51 12,-18 19,-35 19,-53 0,-16 -4,-29 -12,-38 -8,-9 -21,-14 -38,-14 -17,0 -30,5 -39,16 -9,11 -14,25 -15,42l-33 0c1,-28 9,-50 25,-65 16,-15 37,-23 62,-23 26,0 46,7 61,21 15,14 23,34 23,59 0,21 -6,41 -19,60 -12,20 -26,37 -42,52 -16,15 -36,32 -60,52l129 0 0 28 -180 0 0 -24z"/>
  <polygon id="3" class="fil40" points="9460,5778 9460,5747 9530,5747 9530,6018 9496,6018 9496,5778 "/>
  <path class="fil40" d="M10258 5990c32,-25 57,-46 74,-63 18,-16 33,-33 45,-51 12,-18 19,-35 19,-53 0,-16 -4,-29 -12,-38 -8,-9 -21,-14 -38,-14 -17,0 -30,5 -39,16 -9,11 -14,25 -15,42l-33 0c1,-28 9,-50 25,-65 16,-15 37,-23 62,-23 26,0 46,7 61,21 15,14 23,34 23,59 0,21 -6,41 -19,60 -12,20 -26,37 -42,52 -16,15 -36,32 -60,52l129 0 0 28 -180 0 0 -24z"/>
  <path id="1" class="fil40" d="M10478 5880c0,-43 7,-76 21,-100 14,-24 38,-36 73,-36 35,0 59,12 73,36 14,24 21,58 21,100 0,44 -7,78 -21,102 -14,24 -38,36 -73,36 -35,0 -59,-12 -73,-36 -14,-24 -21,-58 -21,-102zm155 0c0,-22 -1,-40 -4,-55 -3,-15 -9,-27 -18,-36 -9,-9 -22,-14 -38,-14 -17,0 -30,5 -39,14 -9,9 -15,21 -18,36 -3,15 -4,33 -4,55 0,22 1,41 4,57 3,15 9,27 18,37 9,9 22,14 39,14 17,0 30,-5 38,-14 9,-9 15,-21 18,-37 3,-15 4,-34 4,-57z"/>
  <path id="2" class="fil40" d="M10709 5990c32,-25 57,-46 74,-63 18,-16 33,-33 45,-51 12,-18 19,-35 19,-53 0,-16 -4,-29 -12,-38 -8,-9 -21,-14 -38,-14 -17,0 -30,5 -39,16 -9,11 -14,25 -15,42l-33 0c1,-28 9,-50 25,-65 16,-15 37,-23 62,-23 26,0 46,7 61,21 15,14 23,34 23,59 0,21 -6,41 -19,60 -12,20 -26,37 -42,52 -16,15 -36,32 -60,52l129 0 0 28 -180 0 0 -24z"/>
  <path id="3" class="fil40" d="M10924 5990c32,-25 57,-46 74,-63 18,-16 33,-33 45,-51 12,-18 19,-35 19,-53 0,-16 -4,-29 -12,-38 -8,-9 -21,-14 -38,-14 -17,0 -30,5 -39,16 -9,11 -14,25 -15,42l-33 0c1,-28 9,-50 25,-65 16,-15 37,-23 62,-23 26,0 46,7 61,21 15,14 23,34 23,59 0,21 -6,41 -19,60 -12,20 -26,37 -42,52 -16,15 -36,32 -60,52l129 0 0 28 -180 0 0 -24z"/>
  <path class="fil40" d="M11718 5990c32,-25 57,-46 74,-63 18,-16 33,-33 45,-51 12,-18 19,-35 19,-53 0,-16 -4,-29 -12,-38 -8,-9 -21,-14 -38,-14 -17,0 -30,5 -39,16 -9,11 -14,25 -15,42l-33 0c1,-28 9,-50 25,-65 16,-15 37,-23 62,-23 26,0 46,7 61,21 15,14 23,34 23,59 0,21 -6,41 -19,60 -12,20 -26,37 -42,52 -16,15 -36,32 -60,52l129 0 0 28 -180 0 0 -24z"/>
  <path id="1" class="fil40" d="M11937 5880c0,-43 7,-76 21,-100 14,-24 38,-36 73,-36 35,0 59,12 73,36 14,24 21,58 21,100 0,44 -7,78 -21,102 -14,24 -38,36 -73,36 -35,0 -59,-12 -73,-36 -14,-24 -21,-58 -21,-102zm155 0c0,-22 -1,-40 -4,-55 -3,-15 -9,-27 -18,-36 -9,-9 -22,-14 -38,-14 -17,0 -30,5 -39,14 -9,9 -15,21 -18,36 -3,15 -4,33 -4,55 0,22 1,41 4,57 3,15 9,27 18,37 9,9 22,14 39,14 17,0 30,-5 38,-14 9,-9 15,-21 18,-37 3,-15 4,-34 4,-57z"/>
  <path id="2" class="fil40" d="M12168 5990c32,-25 57,-46 74,-63 18,-16 33,-33 45,-51 12,-18 19,-35 19,-53 0,-16 -4,-29 -12,-38 -8,-9 -21,-14 -38,-14 -17,0 -30,5 -39,16 -9,11 -14,25 -15,42l-33 0c1,-28 9,-50 25,-65 16,-15 37,-23 62,-23 26,0 46,7 61,21 15,14 23,34 23,59 0,21 -6,41 -19,60 -12,20 -26,37 -42,52 -16,15 -36,32 -60,52l129 0 0 28 -180 0 0 -24z"/>
  <path id="3" class="fil40" d="M12387 5815c2,-23 11,-41 27,-54 16,-13 37,-19 62,-19 17,0 32,3 44,9 12,6 22,14 28,25 6,10 10,22 10,36 0,15 -4,29 -13,40 -9,11 -20,18 -35,22l0 2c16,4 29,12 39,24 9,12 14,27 14,46 0,14 -3,27 -10,38 -6,11 -16,20 -29,27 -13,6 -29,10 -47,10 -26,0 -48,-7 -65,-21 -17,-14 -26,-33 -28,-59l33 0c2,15 8,27 18,37 10,9 24,14 42,14 17,0 31,-5 40,-14 9,-9 14,-21 14,-35 0,-19 -6,-32 -19,-40 -12,-8 -31,-12 -57,-12l-9 0 0 -28 9 0c23,0 40,-4 52,-11 12,-7 18,-19 18,-34 0,-13 -4,-24 -13,-32 -9,-8 -21,-12 -37,-12 -15,0 -28,4 -37,12 -9,8 -15,19 -17,32l-33 0z"/>
  <path class="fil40" d="M13240 5990c32,-25 57,-46 74,-63 18,-16 33,-33 45,-51 12,-18 19,-35 19,-53 0,-16 -4,-29 -12,-38 -8,-9 -21,-14 -38,-14 -17,0 -30,5 -39,16 -9,11 -14,25 -15,42l-33 0c1,-28 9,-50 25,-65 16,-15 37,-23 62,-23 26,0 46,7 61,21 15,14 23,34 23,59 0,21 -6,41 -19,60 -12,20 -26,37 -42,52 -16,15 -36,32 -60,52l129 0 0 28 -180 0 0 -24z"/>
  <path id="1" class="fil40" d="M13459 5880c0,-43 7,-76 21,-100 14,-24 38,-36 73,-36 35,0 59,12 73,36 14,24 21,58 21,100 0,44 -7,78 -21,102 -14,24 -38,36 -73,36 -35,0 -59,-12 -73,-36 -14,-24 -21,-58 -21,-102zm155 0c0,-22 -1,-40 -4,-55 -3,-15 -9,-27 -18,-36 -9,-9 -22,-14 -38,-14 -17,0 -30,5 -39,14 -9,9 -15,21 -18,36 -3,15 -4,33 -4,55 0,22 1,41 4,57 3,15 9,27 18,37 9,9 22,14 39,14 17,0 30,-5 38,-14 9,-9 15,-21 18,-37 3,-15 4,-34 4,-57z"/>
  <path id="2" class="fil40" d="M13690 5990c32,-25 57,-46 74,-63 18,-16 33,-33 45,-51 12,-18 19,-35 19,-53 0,-16 -4,-29 -12,-38 -8,-9 -21,-14 -38,-14 -17,0 -30,5 -39,16 -9,11 -14,25 -15,42l-33 0c1,-28 9,-50 25,-65 16,-15 37,-23 62,-23 26,0 46,7 61,21 15,14 23,34 23,59 0,21 -6,41 -19,60 -12,20 -26,37 -42,52 -16,15 -36,32 -60,52l129 0 0 28 -180 0 0 -24z"/>
  <path id="3" class="fil40" d="M13901 5957l0 -26 131 -182 41 0 0 178 37 0 0 30 -37 0 0 60 -34 0 0 -60 -138 0zm140 -172l-101 143 101 0 0 -143z"/>
  <path class="fil40" d="M14703 5990c32,-25 57,-46 74,-63 18,-16 33,-33 45,-51 12,-18 19,-35 19,-53 0,-16 -4,-29 -12,-38 -8,-9 -21,-14 -38,-14 -17,0 -30,5 -39,16 -9,11 -14,25 -15,42l-33 0c1,-28 9,-50 25,-65 16,-15 37,-23 62,-23 26,0 46,7 61,21 15,14 23,34 23,59 0,21 -6,41 -19,60 -12,20 -26,37 -42,52 -16,15 -36,32 -60,52l129 0 0 28 -180 0 0 -24z"/>
  <path id="1" class="fil40" d="M14922 5880c0,-43 7,-76 21,-100 14,-24 38,-36 73,-36 35,0 59,12 73,36 14,24 21,58 21,100 0,44 -7,78 -21,102 -14,24 -38,36 -73,36 -35,0 -59,-12 -73,-36 -14,-24 -21,-58 -21,-102zm155 0c0,-22 -1,-40 -4,-55 -3,-15 -9,-27 -18,-36 -9,-9 -22,-14 -38,-14 -17,0 -30,5 -39,14 -9,9 -15,21 -18,36 -3,15 -4,33 -4,55 0,22 1,41 4,57 3,15 9,27 18,37 9,9 22,14 39,14 17,0 30,-5 38,-14 9,-9 15,-21 18,-37 3,-15 4,-34 4,-57z"/>
  <path id="2" class="fil40" d="M15153 5990c32,-25 57,-46 74,-63 18,-16 33,-33 45,-51 12,-18 19,-35 19,-53 0,-16 -4,-29 -12,-38 -8,-9 -21,-14 -38,-14 -17,0 -30,5 -39,16 -9,11 -14,25 -15,42l-33 0c1,-28 9,-50 25,-65 16,-15 37,-23 62,-23 26,0 46,7 61,21 15,14 23,34 23,59 0,21 -6,41 -19,60 -12,20 -26,37 -42,52 -16,15 -36,32 -60,52l129 0 0 28 -180 0 0 -24z"/>
  <path id="3" class="fil40" d="M15545 5777l-131 0 0 85c6,-8 14,-15 25,-20 11,-5 23,-8 36,-8 21,0 38,4 51,13 13,9 22,20 28,33 6,14 8,28 8,43 0,18 -3,34 -10,48 -7,14 -17,25 -31,34 -14,8 -31,12 -51,12 -26,0 -47,-7 -64,-20 -16,-13 -26,-31 -30,-54l33 0c3,14 10,25 21,33 10,8 24,12 40,12 20,0 35,-6 45,-18 10,-12 15,-28 15,-47 0,-19 -5,-34 -15,-45 -10,-11 -25,-16 -44,-16 -13,0 -25,3 -35,10 -10,6 -17,15 -22,26l-32 0 0 -153 163 0 0 30z"/>
  <path class="fil40" d="M16208 5990c32,-25 57,-46 74,-63 18,-16 33,-33 45,-51 12,-18 19,-35 19,-53 0,-16 -4,-29 -12,-38 -8,-9 -21,-14 -38,-14 -17,0 -30,5 -39,16 -9,11 -14,25 -15,42l-33 0c1,-28 9,-50 25,-65 16,-15 37,-23 62,-23 26,0 46,7 61,21 15,14 23,34 23,59 0,21 -6,41 -19,60 -12,20 -26,37 -42,52 -16,15 -36,32 -60,52l129 0 0 28 -180 0 0 -24z"/>
  <path id="1" class="fil40" d="M16427 5880c0,-43 7,-76 21,-100 14,-24 38,-36 73,-36 35,0 59,12 73,36 14,24 21,58 21,100 0,44 -7,78 -21,102 -14,24 -38,36 -73,36 -35,0 -59,-12 -73,-36 -14,-24 -21,-58 -21,-102zm155 0c0,-22 -1,-40 -4,-55 -3,-15 -9,-27 -18,-36 -9,-9 -22,-14 -38,-14 -17,0 -30,5 -39,14 -9,9 -15,21 -18,36 -3,15 -4,33 -4,55 0,22 1,41 4,57 3,15 9,27 18,37 9,9 22,14 39,14 17,0 30,-5 38,-14 9,-9 15,-21 18,-37 3,-15 4,-34 4,-57z"/>
  <path id="2" class="fil40" d="M16658 5990c32,-25 57,-46 74,-63 18,-16 33,-33 45,-51 12,-18 19,-35 19,-53 0,-16 -4,-29 -12,-38 -8,-9 -21,-14 -38,-14 -17,0 -30,5 -39,16 -9,11 -14,25 -15,42l-33 0c1,-28 9,-50 25,-65 16,-15 37,-23 62,-23 26,0 46,7 61,21 15,14 23,34 23,59 0,21 -6,41 -19,60 -12,20 -26,37 -42,52 -16,15 -36,32 -60,52l129 0 0 28 -180 0 0 -24z"/>
  <path id="3" class="fil40" d="M17028 5812c-5,-28 -23,-42 -51,-42 -22,0 -39,9 -50,26 -11,17 -16,45 -16,84 6,-13 15,-23 29,-31 13,-7 28,-11 45,-11 26,0 46,8 62,24 15,16 23,38 23,66 0,17 -3,32 -10,46 -7,13 -17,24 -30,32 -13,8 -30,12 -48,12 -26,0 -46,-6 -60,-17 -14,-11 -25,-27 -30,-48 -6,-20 -9,-45 -9,-75 0,-92 32,-137 96,-137 24,0 44,7 58,20 14,13 22,30 25,50l-31 0zm-51 56c-11,0 -21,2 -30,7 -9,4 -17,11 -23,20 -6,9 -9,20 -9,32 0,19 5,34 16,46 11,12 27,18 47,18 17,0 31,-5 42,-16 10,-11 16,-26 16,-44 0,-19 -5,-35 -15,-46 -10,-11 -25,-17 -44,-17z"/>
  <path class="fil41" d="M17206 5237l0 -3420c-32,-285 -274,-507 -568,-507 -294,0 -536,222 -568,507l0 3420 1135 0z"/>
  <path class="fil29" d="M16889 5325l-206 206c-25,25 -66,25 -91,0l-206 -206c-25,-25 -25,-66 0,-91l206 -206c25,-25 66,-25 91,0l206 206c25,25 25,66 0,91z"/>
  <path class="fil42" d="M16797 5325l-113 113c-25,25 -66,25 -91,0l-113 -113c-25,-25 -25,-66 0,-91l113 -113c25,-25 66,-25 91,0l113 113c25,25 25,66 0,91z"/>
  <path class="fil43" d="M18719 5237l0 -3832c-32,-285 -274,-507 -568,-507 -294,0 -536,222 -568,507l0 3832 1135 0z"/>
  <path class="fil29" d="M18403 5325l-206 206c-25,25 -66,25 -91,0l-206 -206c-25,-25 -25,-66 0,-91l206 -206c25,-25 66,-25 91,0l206 206c25,25 25,66 0,91z"/>
  <path class="fil42" d="M18310 5325l-113 113c-25,25 -66,25 -91,0l-113 -113c-25,-25 -25,-66 0,-91l113 -113c25,-25 66,-25 91,0l113 113c25,25 25,66 0,91z"/>
  <path class="fil44" d="M20232 5237l0 -4269c-32,-285 -274,-507 -568,-507 -294,0 -536,222 -568,507l0 4269 1135 0z"/>
  <path class="fil29" d="M19916 5325l-206 206c-25,25 -66,25 -91,0l-206 -206c-25,-25 -25,-66 0,-91l206 -206c25,-25 66,-25 91,0l206 206c25,25 25,66 0,91z"/>
  <path class="fil42" d="M19823 5325l-113 113c-25,25 -66,25 -91,0l-113 -113c-25,-25 -25,-66 0,-91l113 -113c25,-25 66,-25 91,0l113 113c25,25 25,66 0,91z"/>
  <path class="fil40" d="M17733 5990c32,-25 57,-46 74,-63 18,-16 33,-33 45,-51 12,-18 19,-35 19,-53 0,-16 -4,-29 -12,-38 -8,-9 -21,-14 -38,-14 -17,0 -30,5 -39,16 -9,11 -14,25 -15,42l-33 0c1,-28 9,-50 25,-65 16,-15 37,-23 62,-23 26,0 46,7 61,21 15,14 23,34 23,59 0,21 -6,41 -19,60 -12,20 -26,37 -42,52 -16,15 -36,32 -60,52l129 0 0 28 -180 0 0 -24z"/>
  <path id="1" class="fil40" d="M17953 5880c0,-43 7,-76 21,-100 14,-24 38,-36 73,-36 35,0 59,12 73,36 14,24 21,58 21,100 0,44 -7,78 -21,102 -14,24 -38,36 -73,36 -35,0 -59,-12 -73,-36 -14,-24 -21,-58 -21,-102zm155 0c0,-22 -1,-40 -4,-55 -3,-15 -9,-27 -18,-36 -9,-9 -22,-14 -38,-14 -17,0 -30,5 -39,14 -9,9 -15,21 -18,36 -3,15 -4,33 -4,55 0,22 1,41 4,57 3,15 9,27 18,37 9,9 22,14 39,14 17,0 30,-5 38,-14 9,-9 15,-21 18,-37 3,-15 4,-34 4,-57z"/>
  <path id="2" class="fil40" d="M18184 5990c32,-25 57,-46 74,-63 18,-16 33,-33 45,-51 12,-18 19,-35 19,-53 0,-16 -4,-29 -12,-38 -8,-9 -21,-14 -38,-14 -17,0 -30,5 -39,16 -9,11 -14,25 -15,42l-33 0c1,-28 9,-50 25,-65 16,-15 37,-23 62,-23 26,0 46,7 61,21 15,14 23,34 23,59 0,21 -6,41 -19,60 -12,20 -26,37 -42,52 -16,15 -36,32 -60,52l129 0 0 28 -180 0 0 -24z"/>
  <polygon id="3" class="fil40" points="18570,5774 18465,6018 18431,6018 18537,5777 18392,5777 18392,5748 18570,5748 "/>
  <path class="fil40" d="M19234 5990c32,-25 57,-46 74,-63 18,-16 33,-33 45,-51 12,-18 19,-35 19,-53 0,-16 -4,-29 -12,-38 -8,-9 -21,-14 -38,-14 -17,0 -30,5 -39,16 -9,11 -14,25 -15,42l-33 0c1,-28 9,-50 25,-65 16,-15 37,-23 62,-23 26,0 46,7 61,21 15,14 23,34 23,59 0,21 -6,41 -19,60 -12,20 -26,37 -42,52 -16,15 -36,32 -60,52l129 0 0 28 -180 0 0 -24z"/>
  <path id="1" class="fil40" d="M19454 5880c0,-43 7,-76 21,-100 14,-24 38,-36 73,-36 35,0 59,12 73,36 14,24 21,58 21,100 0,44 -7,78 -21,102 -14,24 -38,36 -73,36 -35,0 -59,-12 -73,-36 -14,-24 -21,-58 -21,-102zm155 0c0,-22 -1,-40 -4,-55 -3,-15 -9,-27 -18,-36 -9,-9 -22,-14 -38,-14 -17,0 -30,5 -39,14 -9,9 -15,21 -18,36 -3,15 -4,33 -4,55 0,22 1,41 4,57 3,15 9,27 18,37 9,9 22,14 39,14 17,0 30,-5 38,-14 9,-9 15,-21 18,-37 3,-15 4,-34 4,-57z"/>
  <path id="2" class="fil40" d="M19685 5990c32,-25 57,-46 74,-63 18,-16 33,-33 45,-51 12,-18 19,-35 19,-53 0,-16 -4,-29 -12,-38 -8,-9 -21,-14 -38,-14 -17,0 -30,5 -39,16 -9,11 -14,25 -15,42l-33 0c1,-28 9,-50 25,-65 16,-15 37,-23 62,-23 26,0 46,7 61,21 15,14 23,34 23,59 0,21 -6,41 -19,60 -12,20 -26,37 -42,52 -16,15 -36,32 -60,52l129 0 0 28 -180 0 0 -24z"/>
  <path id="3" class="fil40" d="M19953 5877c-14,-5 -25,-13 -32,-24 -7,-10 -11,-23 -11,-38 0,-13 3,-26 10,-36 7,-11 17,-19 30,-26 13,-6 30,-10 48,-10 19,0 35,3 48,10 13,6 23,15 30,26 7,11 10,23 10,36 0,14 -4,27 -12,38 -8,11 -18,19 -32,24 15,5 28,13 37,25 9,12 14,26 14,43 0,16 -4,30 -12,42 -8,12 -19,21 -34,28 -15,7 -31,10 -50,10 -19,0 -36,-3 -50,-10 -14,-7 -26,-16 -33,-28 -8,-12 -12,-26 -12,-42 0,-17 5,-31 13,-43 9,-12 21,-20 37,-25zm101 -58c0,-15 -5,-27 -15,-35 -10,-8 -24,-12 -41,-12 -17,0 -31,4 -41,12 -10,8 -15,20 -15,36 0,14 5,25 16,34 10,8 24,13 40,13 17,0 30,-4 41,-13 10,-9 16,-20 16,-34zm-56 73c-18,0 -34,4 -45,13 -12,9 -18,22 -18,39 0,16 6,29 17,39 11,10 27,15 46,15 19,0 34,-5 46,-15 11,-10 17,-23 17,-39 0,-17 -6,-30 -17,-38 -11,-9 -27,-13 -45,-13z"/>
 </g>
</svg>
